<svg width="36" height="36" viewBox="0 0 36 36" fill="none" xmlns="http://www.w3.org/2000/svg">
<g clip-path="url(#clip0_3636_691)">
<path d="M34.9491 3.86406L32.1375 1.05176C31.9624 0.876646 31.7546 0.737735 31.5259 0.64296C31.2972 0.548186 31.052 0.499405 30.8044 0.499405C30.5569 0.499405 30.3117 0.548186 30.083 0.64296C29.8543 0.737735 29.6465 0.876646 29.4714 1.05176L27.2416 3.28369L26.5853 2.62744C26.2315 2.27445 25.7521 2.07622 25.2523 2.07622C24.7525 2.07622 24.2731 2.27445 23.9193 2.62744L20.5293 6.02148C20.1759 6.37504 19.9773 6.85453 19.9773 7.35449C19.9773 7.85445 20.1759 8.33394 20.5293 8.6875L21.6231 9.78125L19.9244 11.4807L18.8306 10.3869C18.6556 10.2119 18.4477 10.073 18.219 9.97826C17.9903 9.88352 17.7452 9.83476 17.4976 9.83476C17.25 9.83476 17.0049 9.88352 16.7762 9.97826C16.5475 10.073 16.3397 10.2119 16.1646 10.3869C15.9895 10.562 15.8507 10.7698 15.756 10.9985C15.6612 11.2272 15.6125 11.4724 15.6125 11.7199C15.6125 11.9675 15.6612 12.2126 15.756 12.4413C15.8507 12.6701 15.9895 12.8779 16.1646 13.0529L17.2584 14.1467L16.0416 15.3546L14.9478 14.2608C14.5943 13.9073 14.1148 13.7087 13.6148 13.7087C13.1148 13.7087 12.6353 13.9073 12.2818 14.2608C11.9283 14.6144 11.7296 15.0939 11.7296 15.5938C11.7296 15.8414 11.7784 16.0865 11.8731 16.3153C11.9679 16.544 12.1067 16.7518 12.2818 16.9269L13.3755 18.0206L12.1635 19.2306L11.0698 18.1368C10.7162 17.7833 10.2367 17.5847 9.73677 17.5847C9.23679 17.5847 8.7573 17.7833 8.40376 18.1368C8.05023 18.4904 7.85161 18.9698 7.85161 19.4698C7.85161 19.9698 8.05023 20.4493 8.40376 20.8028L9.49751 21.8966L6.47534 24.9208C6.2545 24.8929 6.03213 24.8787 5.80952 24.8784C4.75887 24.8784 3.73181 25.19 2.85822 25.7737C1.98463 26.3574 1.30375 27.1871 0.901684 28.1577C0.499616 29.1284 0.394417 30.1965 0.599389 31.227C0.804362 32.2575 1.3103 33.204 2.05323 33.9469C2.79615 34.6898 3.7427 35.1958 4.77316 35.4008C5.80363 35.6057 6.87174 35.5005 7.84242 35.0985C8.8131 34.6964 9.64275 34.0155 10.2265 33.1419C10.8102 32.2683 11.1217 31.2413 11.1217 30.1906C11.1214 29.968 11.1073 29.7457 11.0793 29.5248L14.1036 26.5013L15.1973 27.595C15.5509 27.9485 16.0304 28.1471 16.5303 28.1471C17.0303 28.1471 17.5098 27.9485 17.8633 27.595C18.2168 27.2415 18.4154 26.762 18.4154 26.262C18.4154 25.7621 18.2168 25.2826 17.8633 24.929L16.7696 23.8353L17.9836 22.6212L19.0774 23.7149C19.431 24.0683 19.9105 24.2667 20.4104 24.2667C20.9103 24.2667 21.3898 24.0683 21.7434 23.7149C22.0964 23.3611 22.2946 22.8817 22.2946 22.3819C22.2946 21.8821 22.0964 21.4028 21.7434 21.0489L20.6497 19.9552L21.8637 18.7411L22.9575 19.8349C23.311 20.1884 23.7905 20.3869 24.2905 20.3869C24.7904 20.3869 25.2699 20.1884 25.6235 19.8349C25.7986 19.6598 25.9375 19.452 26.0323 19.2233C26.1271 18.9946 26.1758 18.7494 26.1758 18.5019C26.1758 18.2543 26.1271 18.0091 26.0323 17.7804C25.9375 17.5517 25.7986 17.3439 25.6235 17.1688L24.5297 16.0751L26.2292 14.3764L27.3229 15.4701C27.4979 15.6453 27.7057 15.7843 27.9344 15.8791C28.1631 15.9739 28.4083 16.0228 28.6559 16.0228C28.9035 16.0228 29.1487 15.9739 29.3774 15.8791C29.6062 15.7843 29.8139 15.6453 29.9889 15.4701L33.383 12.0768C33.5581 11.9017 33.697 11.6939 33.7918 11.4652C33.8865 11.2365 33.9353 10.9913 33.9353 10.7438C33.9353 10.4962 33.8865 10.251 33.7918 10.0223C33.697 9.79357 33.5581 9.58576 33.383 9.41074L32.7281 8.75586L34.9593 6.52393C35.3096 6.16926 35.5051 5.69033 35.5032 5.19188C35.5013 4.69342 35.3021 4.21601 34.9491 3.86406ZM8.83989 33.2217C8.13864 33.9228 7.21599 34.359 6.22916 34.4561C5.24232 34.5532 4.25235 34.3051 3.42792 33.7541C2.60349 33.2031 1.99561 32.3833 1.70784 31.4344C1.42008 30.4855 1.47024 29.4661 1.84977 28.55C2.22931 27.6339 2.91474 26.8778 3.78928 26.4104C4.66382 25.943 5.67336 25.7933 6.6459 25.9868C7.61844 26.1803 8.4938 26.705 9.12284 27.4716C9.75188 28.2381 10.0957 29.199 10.0957 30.1906C10.095 31.3274 9.64341 32.4175 8.83989 33.2217ZM10.7963 28.3565C10.5295 27.6344 10.1095 26.9787 9.56515 26.4343C9.0208 25.89 8.36503 25.4699 7.64292 25.2031L10.2235 22.6226L13.3769 25.776L10.7963 28.3565ZM17.1326 26.8684C16.9712 27.0289 16.7528 27.119 16.5252 27.119C16.2976 27.119 16.0792 27.0289 15.9178 26.8684L9.13042 20.081C8.97708 19.9185 8.89309 19.7027 8.89628 19.4793C8.89946 19.256 8.98958 19.0426 9.14749 18.8846C9.30541 18.7266 9.51869 18.6364 9.74205 18.6331C9.96541 18.6298 10.1813 18.7136 10.3438 18.8669L17.1333 25.6563C17.2933 25.8174 17.3831 26.0353 17.3831 26.2624C17.3831 26.4894 17.2933 26.7073 17.1333 26.8684H17.1326ZM16.0388 23.1086L12.8854 19.9552L14.1036 18.7445L17.2556 21.8966L16.0388 23.1086ZM21.012 22.9903C20.8509 23.1511 20.6325 23.2414 20.4049 23.2414C20.1773 23.2414 19.959 23.1511 19.7979 22.9903L13.0098 16.2022C12.8533 16.0403 12.7666 15.8234 12.7685 15.5982C12.7704 15.373 12.8607 15.1576 13.02 14.9983C13.1792 14.8391 13.3946 14.7488 13.6198 14.7469C13.845 14.745 14.062 14.8316 14.2239 14.9882L21.0113 21.7756C21.1724 21.9366 21.2629 22.155 21.2631 22.3828C21.2632 22.6106 21.1729 22.8291 21.012 22.9903ZM19.9182 19.234L16.7696 16.0799L17.9836 14.8658L21.1371 18.0192L19.9182 19.234ZM25.1402 18.5046C25.1402 18.6745 25.0897 18.8405 24.9953 18.9817C24.9009 19.1229 24.7667 19.2329 24.6097 19.2978C24.4527 19.3628 24.28 19.3797 24.1134 19.3464C23.9468 19.3131 23.7939 19.2312 23.6739 19.1109L16.8892 12.3263C16.7327 12.1644 16.646 11.9474 16.6479 11.7222C16.6498 11.497 16.7401 11.2816 16.8994 11.1224C17.0586 10.9631 17.274 10.8728 17.4992 10.8709C17.7244 10.869 17.9414 10.9557 18.1033 11.1122L24.8907 17.8996C24.9703 17.9788 25.0335 18.073 25.0767 18.1767C25.1198 18.2804 25.1421 18.3916 25.1422 18.5039L25.1402 18.5046ZM23.799 15.3546L20.6456 12.2012L22.3443 10.5024L25.4977 13.6559L23.799 15.3546ZM32.6474 11.3542L29.2541 14.7476C29.1744 14.8273 29.0798 14.8906 28.9756 14.9338C28.8714 14.977 28.7598 14.9992 28.647 14.9992C28.5343 14.9992 28.4226 14.977 28.3185 14.9338C28.2143 14.8906 28.1197 14.8273 28.04 14.7476L21.2526 7.96016C21.0918 7.79906 21.0015 7.58074 21.0015 7.35312C21.0015 7.12551 21.0918 6.90719 21.2526 6.74609L24.646 3.35273C24.8071 3.1921 25.0254 3.10191 25.253 3.10191C25.4805 3.10191 25.6988 3.1921 25.86 3.35273L32.6474 10.1388C32.7272 10.2184 32.7905 10.3131 32.8337 10.4172C32.8769 10.5214 32.8991 10.633 32.8991 10.7458C32.8991 10.8586 32.8769 10.9702 32.8337 11.0744C32.7905 11.1785 32.7272 11.2732 32.6474 11.3528V11.3542ZM34.2238 5.80273L31.9925 8.03467L27.9662 4.0083L30.1981 1.77705C30.2778 1.69727 30.3724 1.63397 30.4766 1.59079C30.5807 1.54761 30.6924 1.52538 30.8051 1.52538C30.9179 1.52538 31.0295 1.54761 31.1337 1.59079C31.2379 1.63397 31.3325 1.69727 31.4122 1.77705L34.2238 4.58867C34.3846 4.74977 34.4749 4.96809 34.4749 5.1957C34.4749 5.42332 34.3846 5.64163 34.2238 5.80273Z" fill="black"/>
<path d="M5.81226 27.6182C5.21775 27.6183 4.64168 27.8246 4.18222 28.2019C3.72276 28.5792 3.40834 29.1041 3.29252 29.6872C3.17671 30.2703 3.26667 30.8756 3.54707 31.3998C3.82748 31.924 4.28098 32.3348 4.83031 32.5621C5.37964 32.7895 5.9908 32.8193 6.55965 32.6465C7.1285 32.4738 7.61985 32.1091 7.94998 31.6147C8.2801 31.1202 8.42857 30.5266 8.37008 29.935C8.3116 29.3434 8.04979 28.7903 7.62925 28.3701C7.39115 28.1309 7.10796 27.9412 6.79607 27.8121C6.48418 27.6831 6.14979 27.6171 5.81226 27.6182ZM6.90601 31.2795C6.65355 31.5317 6.32149 31.6885 5.96637 31.7234C5.61126 31.7582 5.25504 31.6689 4.95838 31.4706C4.66171 31.2724 4.44294 30.9774 4.33931 30.636C4.23568 30.2945 4.25359 29.9277 4.39001 29.598C4.52643 29.2683 4.77292 28.9961 5.0875 28.8276C5.40208 28.6592 5.7653 28.6051 6.11533 28.6744C6.46536 28.7437 6.78054 28.9322 7.00722 29.2077C7.2339 29.4833 7.35805 29.8289 7.35854 30.1857C7.35841 30.389 7.31818 30.5902 7.24018 30.7779C7.16217 30.9656 7.04792 31.136 6.90395 31.2795H6.90601Z" fill="black"/>
</g>
<defs>
<clipPath id="clip0_3636_691">
<rect width="35" height="35" fill="white" transform="translate(0.5 0.5)"/>
</clipPath>
</defs>
</svg>
