<svg width="25" height="25" viewBox="0 0 25 25" fill="none" xmlns="http://www.w3.org/2000/svg">
<g clip-path="url(#clip0_3806_4555)">
<path d="M2.10474 20.2797C2.10474 20.4775 2.26167 20.6382 2.45776 20.6452V22.8894C2.45776 24.0532 3.40458 25 4.56835 25H8.99978C10.1635 25 11.1104 24.0532 11.1104 22.8894V20.6452C11.3065 20.6382 11.4634 20.4775 11.4634 20.2797C11.4634 20.0819 11.3065 19.9211 11.1104 19.9141V11.0261C11.3065 11.0191 11.4634 10.8584 11.4634 10.6606C11.4634 10.4628 11.3065 10.302 11.1104 10.295V8.84796C11.1104 7.34377 9.96237 6.10281 8.49651 5.95501V5.4908H8.73074C9.36535 5.4908 9.88161 4.97454 9.88161 4.33992C9.88161 4.10916 10.0693 3.92147 10.3 3.92147H10.8485C11.0164 4.67884 11.6929 5.24715 12.5001 5.24715C13.3072 5.24715 13.9837 4.67884 14.1516 3.92147H14.7001C14.9309 3.92147 15.1186 4.10916 15.1186 4.33992C15.1186 4.97454 15.6348 5.4908 16.2694 5.4908H16.5036V5.95501C15.0377 6.10281 13.8897 7.34377 13.8897 8.84796V10.295C13.6936 10.302 13.5367 10.4628 13.5367 10.6606C13.5367 10.8584 13.6937 11.0191 13.8897 11.0261V19.9141C13.6936 19.9211 13.5367 20.0818 13.5367 20.2796C13.5367 20.4774 13.6937 20.6382 13.8897 20.6451V22.8894C13.8897 24.0531 14.8366 24.9999 16.0003 24.9999H20.4318C21.5955 24.9999 22.5424 24.0531 22.5424 22.8894V20.6451C22.7385 20.6382 22.8954 20.4774 22.8954 20.2796C22.8954 20.0818 22.7384 19.9211 22.5424 19.9141V16.3245C22.5424 16.1223 22.3784 15.9583 22.1761 15.9583C21.9738 15.9583 21.8099 16.1223 21.8099 16.3245V19.9134H14.6222V11.0267H21.8099V14.6156C21.8099 14.8179 21.9738 14.9818 22.1761 14.9818C22.3784 14.9818 22.5424 14.8179 22.5424 14.6156V11.026C22.7385 11.019 22.8954 10.8583 22.8954 10.6605C22.8954 10.4627 22.7384 10.302 22.5424 10.295V8.84791C22.5424 7.34372 21.3944 6.10276 19.9285 5.95496V4.69266C19.9285 4.32205 19.6476 4.0161 19.2877 3.97562V3.28715H19.5687C20.0937 3.28715 20.5209 2.86 20.5209 2.335V0.952145C20.5209 0.427147 20.0937 0 19.5687 0H16.8635C16.3385 0 15.9113 0.427147 15.9113 0.952145V2.33505C15.9113 2.86005 16.3385 3.28719 16.8635 3.28719H17.1445V3.97567C16.7846 4.01615 16.5037 4.3221 16.5037 4.69271V4.75833H16.2695C16.0387 4.75833 15.8511 4.57064 15.8511 4.33988C15.8511 3.70526 15.3348 3.189 14.7002 3.189H14.1517C13.9838 2.43163 13.3073 1.86332 12.5001 1.86332C11.6929 1.86332 11.0164 2.43163 10.8485 3.189H10.3C9.66545 3.189 9.14919 3.70526 9.14919 4.33988C9.14919 4.57064 8.96145 4.75833 8.73074 4.75833H8.49651V4.69271C8.49651 4.3221 8.21565 4.01615 7.85569 3.97567V3.28719H8.13674C8.66174 3.28719 9.08889 2.86005 9.08889 2.33505V0.952145C9.08889 0.427147 8.66174 0 8.13674 0H5.43148C4.90648 0 4.47934 0.427147 4.47934 0.952145V2.33505C4.47934 2.86005 4.90648 3.28719 5.43148 3.28719H5.71253V3.97567C5.35258 4.01615 5.07172 4.3221 5.07172 4.69271V5.95501C3.60585 6.10281 2.45786 7.34377 2.45786 8.84796V10.295C2.26172 10.302 2.10483 10.4628 2.10483 10.6606C2.10483 10.8584 2.26177 11.0191 2.45786 11.0261V19.9141C2.26167 19.9211 2.10474 20.0818 2.10474 20.2797ZM21.8099 20.6459V22.8894C21.8099 23.6493 21.1917 24.2676 20.4318 24.2676H16.0003C15.2404 24.2676 14.6222 23.6494 14.6222 22.8894V20.6459H21.8099ZM16.8635 2.55477C16.7444 2.55477 16.6437 2.45414 16.6437 2.33505V0.952145C16.6437 0.833053 16.7444 0.732419 16.8635 0.732419H19.5687C19.6878 0.732419 19.7885 0.833053 19.7885 0.952145V2.33505C19.7885 2.45414 19.6878 2.55477 19.5687 2.55477C19.0269 2.55477 17.4352 2.55477 16.8635 2.55477ZM19.1961 4.7032V5.94016H17.2361V4.7032H19.1961ZM17.8769 3.97078V3.28719H18.5553V3.97078H17.8769ZM16.8699 6.67258H19.5623C20.9326 6.67258 21.8099 7.72145 21.8099 8.84796V10.2943H14.6222V8.84791C14.6222 7.72194 15.4989 6.67258 16.8699 6.67258ZM12.5001 2.59574C13.0291 2.59574 13.4595 3.02616 13.4595 3.55521C13.4595 4.08426 13.0291 4.51468 12.5001 4.51468C11.971 4.51468 11.5406 4.08426 11.5406 3.55521C11.5406 3.02616 11.971 2.59574 12.5001 2.59574ZM5.43143 2.55477C5.31234 2.55477 5.21171 2.45414 5.21171 2.33505V0.952145C5.21171 0.833053 5.31234 0.732419 5.43143 0.732419H8.1367C8.25579 0.732419 8.35642 0.833053 8.35642 0.952145V2.33505C8.35642 2.45414 8.25579 2.55477 8.1367 2.55477C7.56492 2.55477 5.97323 2.55477 5.43143 2.55477ZM7.76404 4.7032V5.94016H5.80404V4.7032H7.76404ZM6.44486 3.97078V3.28719H7.12322V3.97078H6.44486ZM3.19018 8.84791C3.19018 7.72228 4.06659 6.67258 5.43783 6.67258H8.20256C9.40202 6.67258 10.3779 7.64846 10.3779 8.84796V10.2943H3.19018V8.84791ZM3.19018 11.0268H10.3779V19.9134H3.19018V11.0268ZM3.19018 20.6459H10.3779V22.8894C10.3779 23.6493 9.75969 24.2676 8.99973 24.2676H4.56835C3.80844 24.2676 3.19018 23.6494 3.19018 22.8894V20.6459Z" fill="black"/>
<path d="M16.4481 15.4701C16.4481 16.445 17.2412 17.238 18.216 17.238C19.1909 17.238 19.984 16.445 19.984 15.4701C19.984 14.4953 19.1909 13.7021 18.216 13.7021C17.2412 13.7021 16.4481 14.4953 16.4481 15.4701ZM19.2516 15.4701C19.2516 16.0411 18.787 16.5056 18.216 16.5056C17.6451 16.5056 17.1805 16.0411 17.1805 15.4701C17.1805 14.8991 17.6451 14.4346 18.216 14.4346C18.787 14.4346 19.2516 14.8991 19.2516 15.4701Z" fill="black"/>
<path d="M6.78403 13.7021C5.80918 13.7021 5.01611 14.4953 5.01611 15.4701C5.01611 16.0226 5.26758 16.5333 5.70605 16.871C5.86616 16.9945 6.09619 16.9646 6.21968 16.8044C6.34316 16.6442 6.31328 16.4143 6.15308 16.2908C5.896 16.0928 5.74858 15.7936 5.74858 15.4701C5.74858 14.8991 6.21313 14.4345 6.78408 14.4345C7.35508 14.4345 7.81963 14.8991 7.81963 15.4701C7.81963 15.7936 7.67217 16.0927 7.41509 16.2908C7.25488 16.4143 7.22505 16.6442 7.34849 16.8044C7.47217 16.965 7.7023 16.9942 7.86211 16.871C8.30059 16.5333 8.5521 16.0226 8.5521 15.4701C8.552 14.4953 7.75889 13.7021 6.78403 13.7021Z" fill="black"/>
</g>
<defs>
<clipPath id="clip0_3806_4555">
<rect width="25" height="25" fill="white"/>
</clipPath>
</defs>
</svg>
