<svg width="110" height="110" viewBox="0 0 110 110" fill="none" xmlns="http://www.w3.org/2000/svg">
<path d="M55.0343 110H54.2857C53.7487 110 53.3126 109.564 53.3126 109.027C53.3126 108.49 53.7487 108.054 54.2857 108.054H55.0343C55.5713 108.054 56.0074 108.49 56.0074 109.027C56.0074 109.564 55.5727 110 55.0343 110ZM46.7973 110H46.0487C45.5117 110 45.0756 109.564 45.0756 109.027C45.0756 108.49 45.5117 108.054 46.0487 108.054H46.7973C47.3343 108.054 47.7704 108.49 47.7704 109.027C47.7704 109.564 47.3357 110 46.7973 110ZM38.5603 110H37.8117C37.2747 110 36.8386 109.564 36.8386 109.027C36.8386 108.49 37.2747 108.054 37.8117 108.054H38.5603C39.0973 108.054 39.5334 108.49 39.5334 109.027C39.5348 109.564 39.0987 110 38.5603 110ZM30.3234 110H29.5747C29.0377 110 28.6016 109.564 28.6016 109.027C28.6016 108.49 29.0377 108.054 29.5747 108.054H30.3234C30.8603 108.054 31.2964 108.49 31.2964 109.027C31.2978 109.564 30.8617 110 30.3234 110ZM22.0864 110H21.3377C20.8007 110 20.3647 109.564 20.3647 109.027C20.3647 108.49 20.8007 108.054 21.3377 108.054H22.0864C22.6233 108.054 23.0594 108.49 23.0594 109.027C23.0608 109.564 22.6247 110 22.0864 110ZM13.8508 110H13.1021C12.5651 110 12.1291 109.564 12.1291 109.027C12.1291 108.49 12.5651 108.054 13.1021 108.054H13.8508C14.3877 108.054 14.8238 108.49 14.8238 109.027C14.8238 109.564 14.3877 110 13.8508 110ZM5.89839 108.468C5.72453 108.468 5.54788 108.421 5.38804 108.323C5.15671 108.18 4.92677 108.027 4.70665 107.869C4.27062 107.555 4.17247 106.946 4.48653 106.51C4.80059 106.074 5.40907 105.976 5.84511 106.29C6.02737 106.422 6.21805 106.548 6.40873 106.667C6.8658 106.949 7.0088 107.549 6.72699 108.006C6.54473 108.302 6.22506 108.468 5.89839 108.468ZM1.22678 101.948C0.782336 101.948 0.381352 101.641 0.279003 101.19C0.218715 100.925 0.168241 100.654 0.127582 100.385C0.0462638 99.8534 0.412197 99.3571 0.943571 99.2758C1.47494 99.1959 1.97127 99.5604 2.05259 100.092C2.08623 100.315 2.1283 100.539 2.17877 100.758C2.29794 101.282 1.96846 101.804 1.4455 101.923C1.36979 101.94 1.29829 101.948 1.22678 101.948ZM0.970209 93.7307C0.433227 93.7307 -0.00280762 93.2947 -0.00280762 92.7577V92.009C-0.00280762 91.472 0.433227 91.036 0.970209 91.036C1.50719 91.036 1.94323 91.472 1.94323 92.009V92.7577C1.94463 93.2947 1.50859 93.7307 0.970209 93.7307ZM0.970209 85.4937C0.433227 85.4937 -0.00280762 85.0577 -0.00280762 84.5207V83.772C-0.00280762 83.235 0.433227 82.799 0.970209 82.799C1.50719 82.799 1.94323 83.235 1.94323 83.772V84.5207C1.94463 85.0577 1.50859 85.4937 0.970209 85.4937ZM0.970209 77.2567C0.433227 77.2567 -0.00280762 76.8207 -0.00280762 76.2837V75.535C-0.00280762 74.998 0.433227 74.562 0.970209 74.562C1.50719 74.562 1.94323 74.998 1.94323 75.535V76.2837C1.94463 76.8207 1.50859 77.2567 0.970209 77.2567ZM0.970209 69.0197C0.433227 69.0197 -0.00280762 68.5837 -0.00280762 68.0467V67.298C-0.00280762 66.761 0.433227 66.325 0.970209 66.325C1.50719 66.325 1.94323 66.761 1.94323 67.298V68.0467C1.94463 68.5837 1.50859 69.0197 0.970209 69.0197ZM0.970209 60.7827C0.433227 60.7827 -0.00280762 60.3467 -0.00280762 59.8097V59.061C-0.00280762 58.524 0.433227 58.088 0.970209 58.088C1.50719 58.088 1.94323 58.524 1.94323 59.061V59.8097C1.94463 60.3467 1.50859 60.7827 0.970209 60.7827Z" fill="#21E786"/>
<path d="M98.7458 109.924H55.0344C54.5381 109.924 54.1357 109.522 54.1357 109.026C54.1357 108.529 54.5381 108.127 55.0344 108.127H98.7458C103.959 108.127 108.2 103.886 108.2 98.6729V11.2514C108.2 6.03859 103.959 1.79742 98.7458 1.79742H11.3229C6.11013 1.79742 1.86895 6.03859 1.86895 11.2514V54.9628C1.86895 55.4592 1.46656 55.8615 0.970242 55.8615C0.473919 55.8615 0.0715332 55.4592 0.0715332 54.9628V11.2514C0.0715332 5.04735 5.11888 0 11.3229 0H98.7444C104.948 0 109.996 5.04735 109.996 11.2514V98.6729C109.997 104.877 104.95 109.924 98.7458 109.924Z" fill="#21E786"/>
</svg>
