<svg width="35" height="36" viewBox="0 0 35 36" fill="none" xmlns="http://www.w3.org/2000/svg">
<g clip-path="url(#clip0_3756_9501)">
<path d="M29.1732 23.9175C28.5032 23.9175 27.8507 24.0308 27.2284 24.2547L23.6007 20.627C24.3243 19.5108 24.8461 18.2963 25.1546 17.0084H26.917C27.219 17.0084 27.4638 16.7635 27.4638 16.4615V12.0721C27.4638 11.7701 27.219 11.5253 26.917 11.5253H25.1546C24.8689 10.3321 24.4001 9.20105 23.7566 8.15276L25.0036 6.90575C25.1062 6.80321 25.1638 6.6641 25.1638 6.51904C25.1638 6.37398 25.1062 6.23487 25.0036 6.13233L21.8999 3.02861C21.6862 2.81499 21.3401 2.81513 21.1264 3.02861L19.8796 4.27556C18.8317 3.63229 17.7007 3.16349 16.507 2.87768V1.11523C16.507 0.813223 16.2621 0.568359 15.9601 0.568359H11.5708C11.2687 0.568359 11.0239 0.813223 11.0239 1.11523V2.87781C9.83066 3.16355 8.69966 3.63236 7.65144 4.27576L6.40436 3.02868C6.30175 2.92614 6.16271 2.86852 6.01765 2.86852C5.87259 2.86852 5.73354 2.92614 5.63094 3.02868L2.52715 6.13247C2.31359 6.34602 2.31359 6.69227 2.52715 6.90582L3.77416 8.1529C3.13097 9.20064 2.66216 10.3316 2.37635 11.5253H0.61377C0.311758 11.5253 0.0668945 11.7701 0.0668945 12.0721V16.4615C0.0668945 16.7635 0.311758 17.0084 0.61377 17.0084H2.37628C2.66202 18.2018 3.13076 19.3326 3.77423 20.3808L2.52715 21.6278C2.42461 21.7304 2.36698 21.8695 2.36698 22.0145C2.36698 22.1596 2.42461 22.2986 2.52715 22.4013L5.63101 25.505C5.84449 25.7185 6.19073 25.7185 6.40436 25.505L7.65123 24.258C8.69897 24.9012 9.82998 25.3701 11.0237 25.6559V27.4184C11.0237 27.7204 11.2686 27.9652 11.5706 27.9652H15.96C16.262 27.9652 16.5068 27.7204 16.5068 27.4184V25.656C17.7941 25.3478 19.0087 24.8258 20.1254 24.102L23.7532 27.7299C23.5294 28.3522 23.4161 29.0046 23.4161 29.6746C23.4161 32.849 25.9986 35.4316 29.1731 35.4316C32.3476 35.4316 34.9302 32.8491 34.9302 29.6746C34.9302 26.5001 32.3476 23.9175 29.1732 23.9175ZM15.8532 24.6799C15.5974 24.7309 15.4132 24.9554 15.4132 25.2162V26.8716H12.1176V25.2162C12.1176 24.9554 11.9334 24.7309 11.6776 24.6799C10.3151 24.4081 9.03715 23.8784 7.87928 23.1056C7.6623 22.9608 7.37349 22.9893 7.18892 23.1736L6.01765 24.345L3.68721 22.0146L4.85861 20.8433C5.04298 20.6588 5.07148 20.3699 4.92677 20.153C4.15355 18.9944 3.62391 17.7164 3.35245 16.3546C3.30146 16.0988 3.07696 15.9146 2.8161 15.9146H1.16064V12.619H2.81617C3.07696 12.619 3.30152 12.4349 3.35252 12.1791C3.62425 10.8167 4.15396 9.53882 4.92684 8.38088C5.07155 8.16397 5.04305 7.87502 4.85868 7.69059L3.68728 6.51918L6.01765 4.18881L7.18898 5.36021C7.37342 5.54458 7.66244 5.57322 7.87928 5.42844C9.03797 4.65516 10.316 4.12551 11.6776 3.85405C11.9334 3.80306 12.1176 3.57856 12.1176 3.31771V1.66211H15.4132V3.31764C15.4132 3.57843 15.5974 3.80299 15.8532 3.85398C17.2156 4.12564 18.4936 4.65536 19.6516 5.4283C19.8686 5.57315 20.1574 5.54451 20.3419 5.36015L21.5132 4.18881L23.8437 6.51911L22.6723 7.69045C22.4879 7.87481 22.4594 8.16377 22.6041 8.38067C23.3774 9.53957 23.9072 10.8175 24.1785 12.1791C24.2295 12.4349 24.454 12.6191 24.7148 12.6191H26.3702V15.9147H24.7148C24.454 15.9147 24.2295 16.0989 24.1785 16.3547C23.9314 17.5933 23.4705 18.7619 22.808 19.8343L20.6217 17.648C21.1377 16.6018 21.4094 15.4417 21.4094 14.2669C21.4094 10.052 17.9803 6.62288 13.7654 6.62288C9.55053 6.62288 6.12135 10.0519 6.12135 14.2668C6.12135 18.4818 9.55039 21.9108 13.7654 21.9108C14.9402 21.9108 16.1004 21.639 17.1466 21.1231L19.3328 23.3094C18.2598 23.9721 17.0912 24.4331 15.8532 24.6799ZM13.7654 8.5098C13.3119 8.5098 12.8602 8.56278 12.4229 8.6673C12.2304 8.71331 12.0776 8.85987 12.0238 9.05046C11.9699 9.24104 12.0233 9.44585 12.1633 9.58592L15.002 12.4246L14.3513 14.8528L11.9231 15.5034L9.08445 12.6648C8.94438 12.5248 8.73985 12.4713 8.54899 12.5252C8.35848 12.579 8.21185 12.7317 8.16584 12.9243C8.06132 13.3618 8.00827 13.8135 8.00827 14.2669C8.00827 17.4414 10.5908 20.0239 13.7653 20.0239C14.4352 20.0239 15.0876 19.9106 15.71 19.6867L16.3217 20.2983C15.5174 20.6387 14.6464 20.8171 13.7653 20.8171C10.1535 20.8171 7.2151 17.8787 7.2151 14.2668C7.2151 10.655 10.1535 7.71656 13.7653 7.71656C17.3771 7.71656 20.3156 10.655 20.3156 14.2668C20.3156 15.1479 20.1371 16.0189 19.7967 16.8231L19.1852 16.2116C19.409 15.5892 19.5223 14.9368 19.5223 14.2668C19.5224 11.0924 16.9398 8.5098 13.7654 8.5098ZM29.1732 34.3379C26.6018 34.3379 24.5099 32.246 24.5099 29.6746C24.5099 29.0288 24.6396 28.4032 24.8954 27.8155C24.9851 27.6095 24.9396 27.3695 24.7807 27.2105L16.2295 18.6593C16.1248 18.5546 15.9849 18.4991 15.8427 18.4991C15.769 18.4991 15.6948 18.5139 15.6245 18.5446C15.0367 18.8004 14.4112 18.9302 13.7654 18.9302C11.1941 18.9302 9.10216 16.8382 9.10216 14.2669C9.10216 14.2544 9.10223 14.2418 9.10229 14.2293L11.3731 16.5001C11.5113 16.6382 11.7126 16.6921 11.9014 16.6417L14.9395 15.8276C15.1282 15.777 15.2756 15.6296 15.3262 15.4409L16.1403 12.4027C16.1908 12.214 16.1369 12.0126 15.9988 11.8745L13.728 9.60369C13.7405 9.60362 13.7529 9.60355 13.7654 9.60355C16.3368 9.60355 18.4288 11.6955 18.4288 14.2668C18.4288 14.9128 18.2991 15.5382 18.0432 16.1259C17.9535 16.332 17.999 16.5719 18.1579 16.7308L26.7092 25.2822C26.8681 25.441 27.1082 25.4864 27.3143 25.3969C27.9019 25.141 28.5274 25.0113 29.1733 25.0113C31.7446 25.0113 33.8366 27.1033 33.8366 29.6746C33.8366 32.246 31.7445 34.3379 29.1732 34.3379ZM30.2294 26.7888C30.0912 26.6507 29.8896 26.5967 29.7011 26.6473L27.2021 27.3169C27.0134 27.3675 26.866 27.5149 26.8154 27.7036L26.1458 30.2026C26.0953 30.3914 26.1492 30.5927 26.2873 30.7309L28.1167 32.5603C28.2207 32.6642 28.3603 32.7205 28.5034 32.7205C28.5506 32.7205 28.5983 32.7144 28.6449 32.7019L31.1439 32.0323C31.3326 31.9817 31.48 31.8343 31.5306 31.6456L32.2002 29.1466C32.2508 28.9579 32.1968 28.7566 32.0587 28.6183L30.2294 26.7888ZM30.5559 31.0574L28.667 31.5636L27.2841 30.1808L27.7903 28.2917L29.6793 27.7856L31.0621 29.1684L30.5559 31.0574Z" fill="black"/>
</g>
<defs>
<clipPath id="clip0_3756_9501">
<rect width="35" height="35" fill="white" transform="translate(-0.00146484 0.5)"/>
</clipPath>
</defs>
</svg>
