<svg width="35" height="36" viewBox="0 0 35 36" fill="none" xmlns="http://www.w3.org/2000/svg">
<g clip-path="url(#clip0_3756_9495)">
<path d="M32.3476 22.8853C31.9922 22.2695 31.4162 21.8286 30.7255 21.6435C30.035 21.4585 29.3156 21.5522 28.6999 21.9076L21.708 25.9443C21.6643 25.556 21.5416 25.1763 21.3409 24.8256C20.9556 24.152 20.3342 23.6697 19.5911 23.4675L11.6783 21.3137C11.6547 21.3072 11.6307 21.3025 11.6064 21.2992C10.4091 21.1407 9.31578 21.4325 8.35724 22.1667L6.25663 23.7753L6.17289 23.4628C6.02803 22.9224 5.4707 22.601 4.93039 22.7453L3.04756 23.2498C2.78636 23.3198 2.56775 23.4878 2.43212 23.7228C2.29643 23.9578 2.26027 24.2312 2.33027 24.4925L5.05986 34.6794C5.12986 34.9406 5.29782 35.1593 5.53277 35.295C5.68952 35.3855 5.86322 35.4318 6.03917 35.4318C6.12702 35.4318 6.2154 35.4202 6.30236 35.3969L8.18511 34.8924C8.44638 34.8224 8.665 34.6545 8.80062 34.4194C8.93631 34.1844 8.97248 33.911 8.90248 33.6498L8.79966 33.266C9.91666 32.4305 10.944 32.1959 12.1885 32.4813L16.7209 33.5204C17.1146 33.6106 17.4983 33.6557 17.8709 33.6557C18.6431 33.6557 19.368 33.4622 20.0358 33.0765L31.3704 26.5328C32.6452 25.7968 33.0836 24.1605 32.3476 22.8853ZM6.09584 34.32L3.4072 24.2859L5.1369 23.8225L7.82554 33.8565L6.09584 34.32ZM30.8234 25.5857L19.4889 32.1295C18.7352 32.5646 17.9098 32.671 16.9653 32.4544L12.4328 31.4153C10.996 31.0861 9.75697 31.3097 8.49827 32.1415L6.56294 24.9185L9.02231 23.035C9.74295 22.4831 10.53 22.268 11.4276 22.3791L19.3039 24.5227C19.7651 24.6483 20.1513 24.9487 20.3916 25.3686C20.6319 25.7886 20.695 26.2738 20.5695 26.7349C20.3085 27.6937 19.3161 28.2612 18.3575 28.0005L14.1306 26.85C13.839 26.7708 13.5386 26.9426 13.4593 27.2341C13.38 27.5255 13.5519 27.826 13.8434 27.9053L18.0702 29.0557C18.3239 29.1248 18.5788 29.1577 18.83 29.1577C20.0061 29.1576 21.0936 28.4341 21.5295 27.3104L29.2469 22.8549C29.6095 22.6455 30.0341 22.5905 30.4426 22.6999C30.851 22.8094 31.1911 23.0693 31.4004 23.4319C31.8349 24.185 31.5761 25.1512 30.8234 25.5857ZM15.6359 19.0127L21.4991 23.2267C21.5944 23.2953 21.7063 23.3295 21.8182 23.3295C21.9301 23.3295 22.042 23.2953 22.1374 23.2267L28.0004 19.0128C30.313 17.3505 31.5354 14.9666 31.5354 12.1187V4.20387C31.5354 4.01082 31.4337 3.83206 31.2676 3.73356C27.5779 1.54448 24.6636 0.568245 21.8183 0.568176C21.8182 0.568176 21.8184 0.568176 21.8183 0.568176C18.973 0.568176 16.0585 1.54448 12.369 3.73349C12.2029 3.83193 12.1011 4.01075 12.1011 4.2038V12.1187C12.1011 14.9667 13.3234 17.3506 15.6359 19.0127ZM13.1948 4.51661C19.6848 0.732922 23.9515 0.732991 30.4417 4.51668V12.1187C30.4417 14.5997 29.3768 16.6765 27.362 18.1246L21.8182 22.1091L16.2742 18.1245C14.2597 16.6766 13.1948 14.5998 13.1948 12.1187V4.51661ZM16.7529 17.4585L21.4991 20.8697C21.5944 20.9382 21.7063 20.9725 21.8182 20.9725C21.9301 20.9725 22.042 20.9382 22.1374 20.8697L26.8834 17.4586C28.7003 16.1527 29.6215 14.3561 29.6215 12.1187V5.31095C29.6215 5.11237 29.5138 4.9293 29.3402 4.83291C23.7163 1.70923 19.9202 1.70916 14.2964 4.83284C14.1228 4.92923 14.0151 5.1123 14.0151 5.31088V12.1187C14.0151 14.3563 14.9362 16.1528 16.7529 17.4585ZM15.1088 5.63456C20.1483 2.90101 23.4882 2.90108 28.5278 5.63463V12.1187C28.5278 13.984 27.7598 15.4817 26.245 16.5705L21.8182 19.7522L17.3913 16.5704C15.8768 15.4819 15.1088 13.9842 15.1088 12.1187V5.63456ZM20.0644 14.8189C20.113 14.8232 20.1615 14.8253 20.2098 14.8253C20.6441 14.8253 21.0611 14.6538 21.3715 14.3434L26.6616 9.05328C27.3031 8.41166 27.3032 7.36775 26.6616 6.72599C26.02 6.08444 24.976 6.0843 24.3343 6.72599L20.3472 10.7132L19.1709 9.23293C18.8976 8.88929 18.507 8.67266 18.0708 8.62276C17.6346 8.57326 17.2052 8.69604 16.8616 8.96913C16.5179 9.24237 16.3012 9.63304 16.2514 10.0692C16.2015 10.5054 16.3246 10.9349 16.5977 11.2784L18.8684 14.1359C19.1487 14.5279 19.5836 14.7765 20.0644 14.8189ZM17.3381 10.1934C17.3548 10.0474 17.4272 9.9168 17.5422 9.82533C17.6404 9.74727 17.7597 9.70584 17.8833 9.70584C17.9044 9.70584 17.9256 9.70707 17.9468 9.70953C18.0927 9.72615 18.2233 9.79867 18.3147 9.91352L19.8723 11.8737C19.9692 11.9956 20.1137 12.0705 20.2693 12.0794C20.4245 12.0882 20.577 12.0303 20.6872 11.9201L25.1077 7.49948C25.3229 7.28435 25.6731 7.28435 25.8882 7.49941C26.1033 7.7146 26.1034 8.06474 25.8882 8.27987L20.5982 13.57C20.4398 13.7284 20.2557 13.7378 20.1604 13.7294C19.9965 13.7149 19.8485 13.6294 19.7545 13.4946C19.748 13.4853 19.7413 13.4763 19.7342 13.4675L17.454 10.5979C17.3626 10.483 17.3214 10.3393 17.3381 10.1934Z" fill="black"/>
</g>
<defs>
<clipPath id="clip0_3756_9495">
<rect width="35" height="35" fill="white" transform="translate(0 0.5)"/>
</clipPath>
</defs>
</svg>
