<svg width="35" height="36" viewBox="0 0 35 36" fill="none" xmlns="http://www.w3.org/2000/svg">
<g clip-path="url(#clip0_3756_9443)">
<path d="M33.1125 3.49927H31.3495V2.73535C31.3495 1.6913 30.5001 0.841797 29.456 0.841797C28.4119 0.841797 27.5625 1.69123 27.5625 2.73535V3.49927H25.9016V2.73535C25.9016 1.6913 25.0521 0.841797 24.008 0.841797C22.9639 0.841797 22.1145 1.69123 22.1145 2.73535V3.49927H12.8719V2.73535C12.8719 1.6913 12.0224 0.841797 10.9783 0.841797C9.93426 0.841797 9.08476 1.69123 9.08476 2.73535V3.49927H7.42383V2.73535C7.42383 1.6913 6.57439 0.841797 5.53027 0.841797C4.48615 0.841797 3.63672 1.69123 3.63672 2.73535V3.49927H1.87373C0.836787 3.49927 -0.00683594 4.34289 -0.00683594 5.3799V33.2776C-0.00683594 34.3146 0.836787 35.1582 1.8738 35.1582H26.2432C26.906 35.1582 26.906 34.1328 26.2432 34.1328H1.8738C1.40219 34.1328 1.01855 33.7492 1.01855 33.2776V10.9312H3.97817C4.64105 10.9312 4.64105 9.90584 3.97817 9.90584H1.01855V5.3799C1.01855 4.90836 1.40219 4.52466 1.8738 4.52466H3.63679V5.32911C3.63679 6.37316 4.48622 7.22267 5.53034 7.22267C6.57439 7.22267 7.4239 6.37323 7.4239 5.32911V4.52466H9.08482V5.32911C9.08482 6.37316 9.93426 7.22267 10.9784 7.22267C12.0225 7.22267 12.8719 6.37323 12.8719 5.32911V4.52466H22.1145V5.32911C22.1145 6.37316 22.9639 7.22267 24.008 7.22267C25.0521 7.22267 25.9016 6.37323 25.9016 5.32911V4.52466H27.5625V5.32911C27.5625 6.37316 28.4119 7.22267 29.456 7.22267C30.5001 7.22267 31.3495 6.37323 31.3495 5.32911V4.52466H33.1125C33.5841 4.52466 33.9678 4.90829 33.9678 5.3799V9.90584H7.07465C6.41177 9.90584 6.41177 10.9312 7.07465 10.9312H33.9678V33.2776C33.9678 33.7491 33.5841 34.1328 33.1125 34.1328H29.3193C28.6565 34.1328 28.6565 35.1582 29.3193 35.1582H33.1125C34.1495 35.1582 34.9932 34.3146 34.9932 33.2776V5.3799C34.9932 4.34289 34.1495 3.49927 33.1125 3.49927ZM6.39851 5.32911C6.39851 5.80776 6.00906 6.19728 5.53034 6.19728C5.05162 6.19728 4.66218 5.80783 4.66218 5.32911V2.73535C4.66218 2.2567 5.05162 1.86719 5.53034 1.86719C6.00899 1.86719 6.39851 2.25663 6.39851 2.73535V5.32911ZM11.8465 5.32911C11.8465 5.80776 11.457 6.19728 10.9783 6.19728C10.4997 6.19728 10.1101 5.80783 10.1101 5.32911V2.73535C10.1101 2.2567 10.4996 1.86719 10.9783 1.86719C11.457 1.86719 11.8465 2.25663 11.8465 2.73535V5.32911ZM24.8762 5.32911C24.8762 5.80776 24.4867 6.19728 24.008 6.19728C23.5293 6.19728 23.1399 5.80783 23.1399 5.32911V2.73535C23.1399 2.2567 23.5293 1.86719 24.008 1.86719C24.4867 1.86719 24.8762 2.25663 24.8762 2.73535V5.32911ZM30.3242 5.32911C30.3242 5.80776 29.9347 6.19728 29.456 6.19728C28.9773 6.19728 28.5879 5.80783 28.5879 5.32911V2.73535C28.5879 2.2567 28.9773 1.86719 29.456 1.86719C29.9347 1.86719 30.3242 2.25663 30.3242 2.73535V5.32911Z" fill="#21E786"/>
<path d="M9.80177 13.2714C8.76735 13.2714 7.92578 14.1129 7.92578 15.1473C7.92578 16.1818 8.76735 17.0233 9.80177 17.0233C10.8362 17.0233 11.6778 16.1818 11.6778 15.1473C11.6778 14.1129 10.8362 13.2714 9.80177 13.2714ZM9.80177 15.9979C9.33275 15.9979 8.95117 15.6164 8.95117 15.1473C8.95117 14.6783 9.33275 14.2968 9.80177 14.2968C10.2708 14.2968 10.6524 14.6783 10.6524 15.1473C10.6524 15.6164 10.2708 15.9979 9.80177 15.9979Z" fill="#21E786"/>
<path d="M14.8691 13.2714C13.8347 13.2714 12.9932 14.1129 12.9932 15.1473C12.9932 16.1818 13.8347 17.0233 14.8691 17.0233C15.9036 17.0233 16.7451 16.1818 16.7451 15.1473C16.7451 14.1129 15.9035 13.2714 14.8691 13.2714ZM14.8691 15.9979C14.4001 15.9979 14.0186 15.6164 14.0186 15.1473C14.0186 14.6783 14.4001 14.2968 14.8691 14.2968C15.3382 14.2968 15.7197 14.6783 15.7197 15.1473C15.7197 15.6164 15.3382 15.9979 14.8691 15.9979Z" fill="#21E786"/>
<path d="M25.0029 13.2714C23.9685 13.2714 23.127 14.1129 23.127 15.1473C23.127 16.1818 23.9686 17.0233 25.0029 17.0233C26.0373 17.0233 26.8789 16.1818 26.8789 15.1473C26.8789 14.1129 26.0374 13.2714 25.0029 13.2714ZM25.0029 15.9979C24.5339 15.9979 24.1523 15.6164 24.1523 15.1473C24.1523 14.6783 24.5339 14.2968 25.0029 14.2968C25.4719 14.2968 25.8535 14.6783 25.8535 15.1473C25.8535 15.6164 25.472 15.9979 25.0029 15.9979Z" fill="#21E786"/>
<path d="M30.0698 17.0233C31.1042 17.0233 31.9458 16.1818 31.9458 15.1473C31.9458 14.1129 31.1041 13.2714 30.0698 13.2714C29.0354 13.2714 28.1938 14.1129 28.1938 15.1473C28.1938 16.1818 29.0354 17.0233 30.0698 17.0233ZM30.0698 14.2968C30.5388 14.2968 30.9204 14.6783 30.9204 15.1473C30.9204 15.6164 30.5388 15.9979 30.0698 15.9979C29.6008 15.9979 29.2192 15.6164 29.2192 15.1473C29.2192 14.6783 29.6008 14.2968 30.0698 14.2968Z" fill="#21E786"/>
<path d="M4.73487 18.1147C3.70046 18.1147 2.85889 18.9563 2.85889 19.9907C2.85889 21.0251 3.70046 21.8667 4.73487 21.8667C5.76929 21.8667 6.61086 21.0251 6.61086 19.9907C6.61086 18.9563 5.76929 18.1147 4.73487 18.1147ZM4.73487 20.8413C4.26586 20.8413 3.88428 20.4597 3.88428 19.9907C3.88428 19.5217 4.26586 19.1401 4.73487 19.1401C5.20389 19.1401 5.58547 19.5217 5.58547 19.9907C5.58547 20.4597 5.20389 20.8413 4.73487 20.8413Z" fill="#21E786"/>
<path d="M9.80177 18.1147C8.76735 18.1147 7.92578 18.9563 7.92578 19.9907C7.92578 21.0251 8.76735 21.8667 9.80177 21.8667C10.8362 21.8667 11.6778 21.0251 11.6778 19.9907C11.6778 18.9563 10.8362 18.1147 9.80177 18.1147ZM9.80177 20.8413C9.33275 20.8413 8.95117 20.4597 8.95117 19.9907C8.95117 19.5217 9.33275 19.1401 9.80177 19.1401C10.2708 19.1401 10.6524 19.5217 10.6524 19.9907C10.6524 20.4597 10.2708 20.8413 9.80177 20.8413Z" fill="#21E786"/>
<path d="M14.8691 18.1147C13.8347 18.1147 12.9932 18.9563 12.9932 19.9907C12.9932 21.0251 13.8347 21.8667 14.8691 21.8667C15.9036 21.8667 16.7451 21.0251 16.7451 19.9907C16.7451 18.9563 15.9035 18.1147 14.8691 18.1147ZM14.8691 20.8413C14.4001 20.8413 14.0186 20.4597 14.0186 19.9907C14.0186 19.5217 14.4001 19.1401 14.8691 19.1401C15.3382 19.1401 15.7197 19.5217 15.7197 19.9907C15.7197 20.4597 15.3382 20.8413 14.8691 20.8413Z" fill="#21E786"/>
<path d="M25.0029 18.1147C23.9685 18.1147 23.127 18.9563 23.127 19.9907C23.127 21.0251 23.9686 21.8667 25.0029 21.8667C26.0373 21.8667 26.8789 21.0251 26.8789 19.9907C26.8789 18.9563 26.0374 18.1147 25.0029 18.1147ZM25.0029 20.8413C24.5339 20.8413 24.1523 20.4597 24.1523 19.9907C24.1523 19.5217 24.5339 19.1401 25.0029 19.1401C25.4719 19.1401 25.8535 19.5217 25.8535 19.9907C25.8535 20.4597 25.472 20.8413 25.0029 20.8413Z" fill="#21E786"/>
<path d="M30.0698 21.8667C31.1042 21.8667 31.9458 21.0251 31.9458 19.9907C31.9458 18.9563 31.1041 18.1147 30.0698 18.1147C29.0354 18.1147 28.1938 18.9563 28.1938 19.9907C28.1938 21.0251 29.0354 21.8667 30.0698 21.8667ZM30.0698 19.1401C30.5388 19.1401 30.9204 19.5217 30.9204 19.9907C30.9204 20.4598 30.5388 20.8413 30.0698 20.8413C29.6008 20.8413 29.2192 20.4598 29.2192 19.9907C29.2192 19.5217 29.6008 19.1401 30.0698 19.1401Z" fill="#21E786"/>
<path d="M4.73487 22.9581C3.70046 22.9581 2.85889 23.7997 2.85889 24.8341C2.85889 25.8685 3.70046 26.7101 4.73487 26.7101C5.76929 26.7101 6.61086 25.8685 6.61086 24.8341C6.61086 23.7997 5.76929 22.9581 4.73487 22.9581ZM4.73487 25.6847C4.26586 25.6847 3.88428 25.3031 3.88428 24.8341C3.88428 24.3651 4.26586 23.9835 4.73487 23.9835C5.20389 23.9835 5.58547 24.3651 5.58547 24.8341C5.58547 25.3031 5.20389 25.6847 4.73487 25.6847Z" fill="#21E786"/>
<path d="M9.80177 22.9581C8.76735 22.9581 7.92578 23.7997 7.92578 24.8341C7.92578 25.8685 8.76735 26.7101 9.80177 26.7101C10.8362 26.7101 11.6778 25.8685 11.6778 24.8341C11.6778 23.7997 10.8362 22.9581 9.80177 22.9581ZM9.80177 25.6847C9.33275 25.6847 8.95117 25.3031 8.95117 24.8341C8.95117 24.3651 9.33275 23.9835 9.80177 23.9835C10.2708 23.9835 10.6524 24.3651 10.6524 24.8341C10.6524 25.3031 10.2708 25.6847 9.80177 25.6847Z" fill="#21E786"/>
<path d="M14.8691 22.9581C13.8347 22.9581 12.9932 23.7997 12.9932 24.8341C12.9932 25.8685 13.8347 26.7101 14.8691 26.7101C15.9036 26.7101 16.7451 25.8685 16.7451 24.8341C16.7451 23.7997 15.9035 22.9581 14.8691 22.9581ZM14.8691 25.6847C14.4001 25.6847 14.0186 25.3031 14.0186 24.8341C14.0186 24.3651 14.4001 23.9835 14.8691 23.9835C15.3382 23.9835 15.7197 24.3651 15.7197 24.8341C15.7197 25.3031 15.3382 25.6847 14.8691 25.6847Z" fill="#21E786"/>
<path d="M25.0029 22.9581C23.9685 22.9581 23.127 23.7997 23.127 24.8341C23.127 25.8685 23.9686 26.7101 25.0029 26.7101C26.0373 26.7101 26.8789 25.8685 26.8789 24.8341C26.8789 23.7997 26.0374 22.9581 25.0029 22.9581ZM25.0029 25.6847C24.5339 25.6847 24.1523 25.3031 24.1523 24.8341C24.1523 24.3651 24.5339 23.9835 25.0029 23.9835C25.4719 23.9835 25.8535 24.3651 25.8535 24.8341C25.8535 25.3031 25.472 25.6847 25.0029 25.6847Z" fill="#21E786"/>
<path d="M19.936 13.2714C18.9016 13.2714 18.0601 14.1129 18.0601 15.1473C18.0601 16.1818 18.9016 17.0233 19.936 17.0233C20.9703 17.0233 21.8119 16.1818 21.8119 15.1473C21.8119 14.1129 20.9704 13.2714 19.936 13.2714ZM19.936 15.9979C19.467 15.9979 19.0854 15.6164 19.0854 15.1473C19.0854 14.6783 19.467 14.2968 19.936 14.2968C20.4049 14.2968 20.7865 14.6783 20.7865 15.1473C20.7865 15.6164 20.405 15.9979 19.936 15.9979Z" fill="#21E786"/>
<path d="M19.936 18.1147C18.9016 18.1147 18.0601 18.9563 18.0601 19.9907C18.0601 21.0251 18.9016 21.8667 19.936 21.8667C20.9703 21.8667 21.8119 21.0251 21.8119 19.9907C21.8119 18.9563 20.9704 18.1147 19.936 18.1147ZM19.936 20.8413C19.467 20.8413 19.0854 20.4597 19.0854 19.9907C19.0854 19.5217 19.467 19.1401 19.936 19.1401C20.4049 19.1401 20.7865 19.5217 20.7865 19.9907C20.7865 20.4597 20.405 20.8413 19.936 20.8413Z" fill="#21E786"/>
<path d="M19.936 22.9581C18.9016 22.9581 18.0601 23.7997 18.0601 24.8341C18.0601 25.8685 18.9016 26.7101 19.936 26.7101C20.9703 26.7101 21.8119 25.8685 21.8119 24.8341C21.8119 23.7997 20.9704 22.9581 19.936 22.9581ZM19.936 25.6847C19.467 25.6847 19.0854 25.3031 19.0854 24.8341C19.0854 24.3651 19.467 23.9835 19.936 23.9835C20.4049 23.9835 20.7865 24.3651 20.7865 24.8341C20.7865 25.3031 20.405 25.6847 19.936 25.6847Z" fill="#21E786"/>
<path d="M31.9458 24.8341C31.9458 23.7997 31.1041 22.9581 30.0698 22.9581C29.0354 22.9581 28.1938 23.7997 28.1938 24.8341C28.1938 25.8685 29.0354 26.7101 30.0698 26.7101C31.1041 26.7101 31.9458 25.8685 31.9458 24.8341ZM29.2192 24.8341C29.2192 24.3651 29.6008 23.9835 30.0697 23.9835C30.5387 23.9835 30.9203 24.3651 30.9203 24.8341C30.9203 25.3031 30.5387 25.6847 30.0697 25.6847C29.6008 25.6847 29.2192 25.3031 29.2192 24.8341Z" fill="#21E786"/>
<path d="M4.73487 27.8015C3.70046 27.8015 2.85889 28.6431 2.85889 29.6775C2.85889 30.7119 3.70046 31.5535 4.73487 31.5535C5.76929 31.5535 6.61086 30.7119 6.61086 29.6775C6.61086 28.6431 5.76929 27.8015 4.73487 27.8015ZM4.73487 30.5281C4.26586 30.5281 3.88428 30.1465 3.88428 29.6775C3.88428 29.2085 4.26586 28.8269 4.73487 28.8269C5.20389 28.8269 5.58547 29.2085 5.58547 29.6775C5.58547 30.1465 5.20389 30.5281 4.73487 30.5281Z" fill="#21E786"/>
<path d="M9.80177 27.8015C8.76735 27.8015 7.92578 28.6431 7.92578 29.6775C7.92578 30.7119 8.76735 31.5535 9.80177 31.5535C10.8362 31.5535 11.6778 30.7119 11.6778 29.6775C11.6778 28.6431 10.8362 27.8015 9.80177 27.8015ZM9.80177 30.5281C9.33275 30.5281 8.95117 30.1465 8.95117 29.6775C8.95117 29.2085 9.33275 28.8269 9.80177 28.8269C10.2708 28.8269 10.6524 29.2085 10.6524 29.6775C10.6524 30.1465 10.2708 30.5281 9.80177 30.5281Z" fill="#21E786"/>
<path d="M14.8691 27.8015C13.8347 27.8015 12.9932 28.6431 12.9932 29.6775C12.9932 30.7119 13.8347 31.5535 14.8691 31.5535C15.9036 31.5535 16.7451 30.7119 16.7451 29.6775C16.7451 28.6431 15.9035 27.8015 14.8691 27.8015ZM14.8691 30.5281C14.4001 30.5281 14.0186 30.1465 14.0186 29.6775C14.0186 29.2085 14.4001 28.8269 14.8691 28.8269C15.3382 28.8269 15.7197 29.2085 15.7197 29.6775C15.7197 30.1465 15.3382 30.5281 14.8691 30.5281Z" fill="#21E786"/>
</g>
<defs>
<clipPath id="clip0_3756_9443">
<rect width="35" height="35" fill="white" transform="translate(-0.00683594 0.5)"/>
</clipPath>
</defs>
</svg>
