<svg width="36" height="36" viewBox="0 0 36 36" fill="none" xmlns="http://www.w3.org/2000/svg">
<g clip-path="url(#clip0_3902_5197)">
<path d="M33.5865 15.1125L31.5346 13.4708C31.5264 13.4642 31.5182 13.456 31.51 13.4495L33.4202 13.0672C33.6756 13.0163 33.8594 12.7921 33.8594 12.5312V10.8906C33.8594 10.5887 33.6144 10.3438 33.3125 10.3438H30.5781C30.2763 10.3438 30.0312 10.5887 30.0312 10.8906V11.8488C30.0187 11.8318 30.0061 11.8148 29.9935 11.7979C29.9591 11.7027 29.8978 11.6251 29.8202 11.5633C29.5123 11.1274 29.2487 10.691 29.077 10.3137L28.1527 8.28094C27.5637 6.9843 25.9866 5.96875 24.5625 5.96875H11.4375C10.0134 5.96875 8.43625 6.9843 7.84727 8.28094L6.92359 10.3131C6.75187 10.6905 6.48828 11.1274 6.18039 11.5633C6.10273 11.6251 6.04203 11.7027 6.00703 11.7979C5.99445 11.8148 5.98242 11.8313 5.9693 11.8488V10.8906C5.9693 10.5887 5.7243 10.3438 5.42242 10.3438H2.6875C2.38563 10.3438 2.14062 10.5887 2.14062 10.8906V12.5312C2.14062 12.7921 2.32437 13.0163 2.58031 13.0672L4.49055 13.4495C4.48234 13.456 4.47414 13.4642 4.46594 13.4708L2.41352 15.1125C1.34055 15.9711 0.5 17.72 0.5 19.0938V28.3906C0.5 29.2952 1.23609 30.0312 2.14062 30.0312H6.51562C7.42016 30.0312 8.15625 29.2952 8.15625 28.3906V27.2969H27.8438V28.3906C27.8438 29.2952 28.5798 30.0312 29.4844 30.0312H33.8594C34.7639 30.0312 35.5 29.2952 35.5 28.3906V19.0938C35.5 17.72 34.6595 15.9711 33.5865 15.1125ZM28.617 26.2031L27.363 24.9491C26.8309 24.417 25.8619 24.0156 25.1094 24.0156H10.6172C9.86469 24.0156 8.89563 24.417 8.36352 24.9491L7.10953 26.2031H3.23438C2.32984 26.2031 1.59375 25.467 1.59375 24.5625V21.8281H2.14062V22.375C2.14062 23.5814 3.12172 24.5625 4.32812 24.5625H5.96875C6.27063 24.5625 6.51562 24.3175 6.51562 24.0156C6.51562 23.7138 6.27063 23.4688 5.96875 23.4688H4.32812C3.72492 23.4688 3.23438 22.9782 3.23438 22.375V21.8281H4.32812C4.78203 21.8281 5.4875 22.1202 5.80852 22.4412C5.91516 22.5478 6.05516 22.6014 6.19516 22.6014C6.33516 22.6014 6.47516 22.5478 6.5818 22.4412C6.79563 22.2273 6.79563 21.8817 6.5818 21.6679C6.04969 21.1358 5.08117 20.7344 4.32812 20.7344H1.59375V19.0938C1.59375 18.9007 1.62437 18.6923 1.66758 18.4796C2.01758 18.8449 2.52672 19.0938 3.23438 19.0938H7.60938C7.7543 19.0938 7.8932 19.0363 7.99602 18.9335L8.70312 18.2264L9.41023 18.9335C9.5125 19.0363 9.65195 19.0938 9.79688 19.0938H16.133L17.6134 20.5741C17.72 20.6808 17.86 20.7344 18 20.7344C18.14 20.7344 18.28 20.6808 18.3866 20.5741L19.867 19.0938H26.2031C26.348 19.0938 26.4875 19.0363 26.5898 18.9335L27.2969 18.2264L28.004 18.9335C28.1062 19.0363 28.2457 19.0938 28.3906 19.0938H32.7656C33.4733 19.0938 33.9824 18.8449 34.3324 18.4796C34.3756 18.6923 34.4062 18.9007 34.4062 19.0938V20.7344H31.6719C30.9194 20.7344 29.9503 21.1358 29.4182 21.6679C29.2044 21.8817 29.2044 22.2273 29.4182 22.4412C29.5248 22.5478 29.6648 22.6014 29.8048 22.6014C29.9448 22.6014 30.0848 22.5478 30.1915 22.4412C30.5125 22.1202 31.218 21.8281 31.6719 21.8281H32.7656V22.375C32.7656 22.9782 32.2751 23.4688 31.6719 23.4688H30.0312C29.7294 23.4688 29.4844 23.7138 29.4844 24.0156C29.4844 24.3175 29.7294 24.5625 30.0312 24.5625H31.6719C32.8783 24.5625 33.8594 23.5814 33.8594 22.375V21.8281H34.4062V24.5625C34.4062 25.467 33.6702 26.2031 32.7656 26.2031H28.617ZM27.0705 26.2031H8.65609L9.1368 25.7224C9.45781 25.4014 10.1633 25.1094 10.6172 25.1094H25.1094C25.5633 25.1094 26.2688 25.4014 26.5898 25.7224L27.0705 26.2031ZM6.82188 12.5312H29.1781C29.708 13.2318 30.3134 13.8946 30.851 14.325L31.5089 14.8511L27.6409 16.3982C27.6403 16.3982 27.6403 16.3988 27.6398 16.3988C27.5736 16.4255 27.5112 16.4655 27.4577 16.5191L26.9108 17.0659L25.9767 18H19.6406C19.4957 18 19.3562 18.0574 19.254 18.1602L18 19.4142L16.746 18.1602C16.6438 18.0574 16.5043 18 16.3594 18H10.0233L9.08977 17.0665L8.54289 16.5196C8.4893 16.466 8.42695 16.4261 8.36078 16.3993C8.36023 16.3993 8.36023 16.3988 8.35969 16.3988L4.49164 14.8516L5.14953 14.3255C5.68656 13.8946 6.29195 13.2318 6.82188 12.5312ZM33.8271 17.1354C33.7172 17.7069 33.3628 18 32.7656 18H28.617L28.0702 17.4531L28.1511 17.3722L32.4905 15.6364L32.9029 15.9667C33.2496 16.244 33.5695 16.6656 33.8271 17.1354ZM31.125 11.4375H32.7656V12.0828L31.125 12.4109V11.4375ZM7.91836 10.7659L8.84203 8.73375C9.25437 7.82758 10.4427 7.0625 11.4375 7.0625H24.5625C25.5573 7.0625 26.7456 7.82758 27.1574 8.7332L28.0816 10.7659C28.1779 10.977 28.3031 11.2051 28.4404 11.4375H7.55961C7.69688 11.2051 7.82266 10.977 7.91836 10.7659ZM3.23438 11.4375H4.875V12.4109L3.23438 12.0828V11.4375ZM3.09656 15.9667L3.50891 15.6364L7.84891 17.3722L7.92984 17.4531L7.38297 18H3.23438C2.63719 18 2.28281 17.7069 2.17289 17.1354C2.43047 16.6656 2.74984 16.244 3.09656 15.9667ZM6.51562 28.9375H2.14062C1.8393 28.9375 1.59375 28.692 1.59375 28.3906V26.7363C2.05203 27.083 2.61641 27.2969 3.23438 27.2969H7.0625V28.3906C7.0625 28.692 6.81695 28.9375 6.51562 28.9375ZM33.8594 28.9375H29.4844C29.183 28.9375 28.9375 28.692 28.9375 28.3906V27.2969H32.7656C33.3836 27.2969 33.948 27.083 34.4062 26.7363V28.3906C34.4062 28.692 34.1607 28.9375 33.8594 28.9375Z" fill="black"/>
</g>
<defs>
<clipPath id="clip0_3902_5197">
<rect width="35" height="35" fill="white" transform="translate(0.5 0.5)"/>
</clipPath>
</defs>
</svg>
