<svg width="35" height="35" viewBox="0 0 35 35" fill="none" xmlns="http://www.w3.org/2000/svg">
<g clip-path="url(#clip0_3902_5184)">
<path d="M15.3111 28.4186H17.3989C17.6826 28.4186 17.9126 28.1886 17.9126 27.9049C17.9126 27.6212 17.6826 27.3912 17.3989 27.3912H15.3111C15.0274 27.3912 14.7974 27.6212 14.7974 27.9049C14.7974 28.1887 15.0273 28.4186 15.3111 28.4186Z" fill="black"/>
<path d="M33.4593 31.9242H32.4517V27.3205C32.4517 26.0768 31.4383 25.0649 30.1926 25.0649H28.4538L26.8062 22.2039C26.1274 21.0251 24.8596 20.2929 23.4974 20.2929H16.2392C15.248 20.2929 14.3086 20.6705 13.5941 21.3562L9.67633 25.1161L4.60667 26.4583C3.39137 26.78 2.54262 27.8813 2.54262 29.1365V31.9242H1.535C0.687075 31.9242 -0.00280762 32.6141 -0.00280762 33.4621C-0.00280762 34.3101 0.687075 35 1.53507 35H11.1768C11.4604 35 11.6905 34.7701 11.6905 34.4863C11.6905 34.2025 11.4604 33.9726 11.1768 33.9726H1.53507C1.25357 33.9726 1.02457 33.7436 1.02457 33.4621C1.02457 33.1806 1.25357 32.9516 1.53507 32.9516H33.4593C33.7408 32.9516 33.9698 33.1806 33.9698 33.4621C33.9698 33.7436 33.7408 33.9726 33.4593 33.9726H13.2316C12.9479 33.9726 12.7178 34.2026 12.7178 34.4863C12.7178 34.77 12.9479 35 13.2316 35H33.4593C34.3073 35 34.9972 34.3101 34.9972 33.4621C34.9972 32.6141 34.3073 31.9242 33.4593 31.9242ZM31.4243 27.3205V27.831H30.7492C30.4723 27.831 30.247 27.6067 30.247 27.331V26.0951C30.9009 26.1238 31.4243 26.6616 31.4243 27.3205ZM14.3055 22.0975C14.8278 21.5963 15.5144 21.3203 16.2392 21.3203H19.347V25.0649H11.2134L14.3055 22.0975ZM4.86964 27.4514L5.63308 27.2493V27.8042C5.63308 28.1129 5.3809 28.3641 5.07089 28.3641H3.75286C3.97147 27.9245 4.37089 27.5835 4.86964 27.4514ZM3.57006 29.3915H5.07089C5.9474 29.3915 6.66045 28.6795 6.66045 27.8042V26.9773L10.003 26.0923H22.982C23.2657 26.0923 23.4957 25.8624 23.4957 25.5786C23.4957 25.2948 23.2657 25.0649 22.982 25.0649H20.3744V21.3202H23.4974C24.4932 21.3202 25.4199 21.8553 25.9159 22.7165L27.2682 25.0649H25.0368C24.7531 25.0649 24.5231 25.2949 24.5231 25.5786C24.5231 25.8623 24.7531 26.0923 25.0368 26.0923H28.1568H29.2197V27.3309C29.2197 28.1732 29.9059 28.8583 30.7493 28.8583H31.4244V31.9241H28.8591C28.3368 30.6543 27.0827 29.7969 25.6832 29.7969C24.2836 29.7969 23.0296 30.6543 22.5073 31.9241H12.9566C12.4342 30.6543 11.1802 29.7969 9.78065 29.7969C8.38113 29.7969 7.12701 30.6543 6.60474 31.9241H3.57006V29.3915ZM27.7041 31.9242H23.6621C24.0972 31.2539 24.8536 30.8244 25.6831 30.8244C26.5126 30.8244 27.269 31.2539 27.7041 31.9242ZM11.8016 31.9242H7.7596C8.19464 31.2539 8.95111 30.8244 9.78065 30.8244C10.6101 30.8244 11.3665 31.2539 11.8016 31.9242Z" fill="black"/>
<path d="M1.53507 3.07583H5.68797V7.36764C5.27686 7.76733 5.02085 8.32522 5.02085 8.94202C5.02085 10.1544 6.00885 11.1408 7.22319 11.1408C7.23932 11.1408 7.25525 11.1399 7.27125 11.1396L10.2302 14.0924C10.2302 14.0994 10.2298 14.1063 10.2298 14.1133C10.2298 14.6984 10.4581 15.2484 10.8726 15.662L13.5448 18.3287C13.7221 18.5002 14.0449 18.5462 14.2705 18.3287L15.1982 17.4029L16.9018 19.103C17.4041 19.5694 18.0785 18.8537 17.6276 18.3758L15.9254 16.6772L16.6458 15.9583C16.8163 15.7898 16.8632 15.4479 16.6458 15.231L13.9735 12.5644C13.5408 12.1326 12.9706 11.9197 12.4022 11.9251L9.42518 8.95426C9.42518 8.95016 9.42552 8.94605 9.42552 8.94195C9.42552 8.32521 9.16952 7.76727 8.7584 7.36757V3.07583H12.6985C12.9822 3.07583 13.2122 2.8458 13.2122 2.56211C13.2122 2.27842 12.9823 2.04839 12.6985 2.04839H1.53507C1.25357 2.04839 1.02457 1.81938 1.02457 1.53788C1.02457 1.25638 1.25357 1.02737 1.53507 1.02737H33.4593C33.7408 1.02737 33.9698 1.25638 33.9698 1.53788C33.9698 1.81938 33.7408 2.04839 33.4593 2.04839H14.7533C14.4696 2.04839 14.2396 2.27835 14.2396 2.56211C14.2396 2.84587 14.4696 3.07583 14.7533 3.07583H23.0926V10.7413C22.6869 11.1389 22.4346 11.6921 22.4346 12.3032V16.0744C22.4346 16.3581 22.6646 16.5881 22.9483 16.5881H24.1142V18.8454C24.1142 19.1291 24.3441 19.3592 24.6279 19.3592C24.9116 19.3592 25.1416 19.1291 25.1416 18.8454V16.5881H26.3075C26.5912 16.5881 26.8212 16.3581 26.8212 16.0744V12.3032C26.8212 11.6921 26.5689 11.1389 26.1631 10.7412V3.07583H33.4593C34.3073 3.07583 34.9972 2.38595 34.9972 1.53788C34.9972 0.689883 34.3073 0 33.4593 0H1.53507C0.687075 0 -0.00280762 0.689951 -0.00280762 1.53795C-0.00280762 2.38595 0.687075 3.07583 1.53507 3.07583ZM6.0483 8.94195C6.0483 8.29603 6.57535 7.77055 7.22319 7.77055C7.87103 7.77055 8.39815 8.29603 8.39815 8.94195C8.39815 9.58788 7.8711 10.1134 7.22319 10.1134C6.57535 10.1134 6.0483 9.58788 6.0483 8.94195ZM15.5557 15.5947L13.9076 17.2393L11.5983 14.9347C10.5245 13.7354 12.1842 12.2771 13.2478 13.2917L15.5557 15.5947ZM11.2727 12.2493C11.0154 12.4063 10.7388 12.6638 10.5551 12.965L8.39063 10.8051C8.68047 10.6234 8.92534 10.3767 9.10382 10.085L11.2727 12.2493ZM7.73103 6.80285C7.44549 6.73477 7.06535 6.71733 6.71535 6.80285V3.07583H7.73103V6.80285ZM25.7938 15.5606H23.462V12.3031C23.462 11.6622 23.985 11.1407 24.6278 11.1407C25.2707 11.1407 25.7937 11.6622 25.7937 12.3031V15.5606H25.7938ZM25.1357 10.1732C24.8503 10.105 24.4701 10.0874 24.1201 10.1732V3.07583H25.1357V10.1732Z" fill="black"/>
</g>
<defs>
<clipPath id="clip0_3902_5184">
<rect width="35" height="35" fill="white" transform="translate(-0.00280762)"/>
</clipPath>
</defs>
</svg>
