<svg width="35" height="36" viewBox="0 0 35 36" fill="none" xmlns="http://www.w3.org/2000/svg">
<g clip-path="url(#clip0_3902_5232)">
<path d="M33.1123 3.49927H31.3494V2.73535C31.3494 1.6913 30.4999 0.841797 29.4558 0.841797C28.4118 0.841797 27.5623 1.69123 27.5623 2.73535V3.49927H25.9014V2.73535C25.9014 1.6913 25.052 0.841797 24.0078 0.841797C22.9637 0.841797 22.1143 1.69123 22.1143 2.73535V3.49927H12.8717V2.73535C12.8717 1.6913 12.0222 0.841797 10.9781 0.841797C9.93408 0.841797 9.08457 1.69123 9.08457 2.73535V3.49927H7.42365V2.73535C7.42365 1.6913 6.57421 0.841797 5.53009 0.841797C4.48597 0.841797 3.63654 1.69123 3.63654 2.73535V3.49927H1.87355C0.836604 3.49927 -0.00701904 4.34289 -0.00701904 5.3799V33.2776C-0.00701904 34.3146 0.836604 35.1582 1.87362 35.1582H26.243C26.9059 35.1582 26.9059 34.1328 26.243 34.1328H1.87362C1.402 34.1328 1.01837 33.7492 1.01837 33.2776V10.9312H3.97799C4.64087 10.9312 4.64087 9.90584 3.97799 9.90584H1.01837V5.3799C1.01837 4.90836 1.402 4.52466 1.87362 4.52466H3.6366V5.32911C3.6366 6.37316 4.48604 7.22267 5.53016 7.22267C6.57421 7.22267 7.42371 6.37323 7.42371 5.32911V4.52466H9.08464V5.32911C9.08464 6.37316 9.93407 7.22267 10.9782 7.22267C12.0223 7.22267 12.8717 6.37323 12.8717 5.32911V4.52466H22.1143V5.32911C22.1143 6.37316 22.9637 7.22267 24.0078 7.22267C25.052 7.22267 25.9014 6.37323 25.9014 5.32911V4.52466H27.5623V5.32911C27.5623 6.37316 28.4118 7.22267 29.4558 7.22267C30.4999 7.22267 31.3494 6.37323 31.3494 5.32911V4.52466H33.1123C33.5839 4.52466 33.9676 4.90829 33.9676 5.3799V9.90584H7.07447C6.41158 9.90584 6.41158 10.9312 7.07447 10.9312H33.9676V33.2776C33.9676 33.7491 33.584 34.1328 33.1123 34.1328H29.3192C28.6563 34.1328 28.6563 35.1582 29.3192 35.1582H33.1123C34.1494 35.1582 34.993 34.3146 34.993 33.2776V5.3799C34.993 4.34289 34.1494 3.49927 33.1123 3.49927ZM6.39832 5.32911C6.39832 5.80776 6.00888 6.19728 5.53016 6.19728C5.05144 6.19728 4.66199 5.80783 4.66199 5.32911V2.73535C4.66199 2.2567 5.05144 1.86719 5.53016 1.86719C6.00881 1.86719 6.39832 2.25663 6.39832 2.73535V5.32911ZM11.8463 5.32911C11.8463 5.80776 11.4568 6.19728 10.9781 6.19728C10.4995 6.19728 10.11 5.80783 10.11 5.32911V2.73535C10.11 2.2567 10.4994 1.86719 10.9781 1.86719C11.4568 1.86719 11.8463 2.25663 11.8463 2.73535V5.32911ZM24.876 5.32911C24.876 5.80776 24.4866 6.19728 24.0078 6.19728C23.5291 6.19728 23.1397 5.80783 23.1397 5.32911V2.73535C23.1397 2.2567 23.5291 1.86719 24.0078 1.86719C24.4866 1.86719 24.876 2.25663 24.876 2.73535V5.32911ZM30.324 5.32911C30.324 5.80776 29.9345 6.19728 29.4558 6.19728C28.9771 6.19728 28.5877 5.80783 28.5877 5.32911V2.73535C28.5877 2.2567 28.9771 1.86719 29.4558 1.86719C29.9345 1.86719 30.324 2.25663 30.324 2.73535V5.32911Z" fill="black"/>
<path d="M9.80171 13.2714C8.76729 13.2714 7.92572 14.1129 7.92572 15.1473C7.92572 16.1818 8.76729 17.0233 9.80171 17.0233C10.8361 17.0233 11.6777 16.1818 11.6777 15.1473C11.6777 14.1129 10.8361 13.2714 9.80171 13.2714ZM9.80171 15.9979C9.33269 15.9979 8.95111 15.6164 8.95111 15.1473C8.95111 14.6783 9.33269 14.2968 9.80171 14.2968C10.2707 14.2968 10.6523 14.6783 10.6523 15.1473C10.6523 15.6164 10.2707 15.9979 9.80171 15.9979Z" fill="black"/>
<path d="M14.8687 13.2714C13.8342 13.2714 12.9927 14.1129 12.9927 15.1473C12.9927 16.1818 13.8343 17.0233 14.8687 17.0233C15.9031 17.0233 16.7446 16.1818 16.7446 15.1473C16.7446 14.1129 15.9031 13.2714 14.8687 13.2714ZM14.8687 15.9979C14.3997 15.9979 14.0181 15.6164 14.0181 15.1473C14.0181 14.6783 14.3997 14.2968 14.8687 14.2968C15.3377 14.2968 15.7193 14.6783 15.7193 15.1473C15.7193 15.6164 15.3377 15.9979 14.8687 15.9979Z" fill="black"/>
<path d="M25.0027 13.2714C23.9683 13.2714 23.1267 14.1129 23.1267 15.1473C23.1267 16.1818 23.9683 17.0233 25.0027 17.0233C26.037 17.0233 26.8786 16.1818 26.8786 15.1473C26.8786 14.1129 26.0371 13.2714 25.0027 13.2714ZM25.0027 15.9979C24.5337 15.9979 24.1521 15.6164 24.1521 15.1473C24.1521 14.6783 24.5337 14.2968 25.0027 14.2968C25.4716 14.2968 25.8532 14.6783 25.8532 15.1473C25.8532 15.6164 25.4717 15.9979 25.0027 15.9979Z" fill="black"/>
<path d="M30.0696 17.0233C31.1041 17.0233 31.9456 16.1818 31.9456 15.1473C31.9456 14.1129 31.104 13.2714 30.0696 13.2714C29.0353 13.2714 28.1937 14.1129 28.1937 15.1473C28.1937 16.1818 29.0352 17.0233 30.0696 17.0233ZM30.0696 14.2968C30.5387 14.2968 30.9202 14.6783 30.9202 15.1473C30.9202 15.6164 30.5387 15.9979 30.0696 15.9979C29.6007 15.9979 29.2191 15.6164 29.2191 15.1473C29.2191 14.6783 29.6006 14.2968 30.0696 14.2968Z" fill="black"/>
<path d="M4.73475 18.1147C3.70034 18.1147 2.85876 18.9563 2.85876 19.9907C2.85876 21.0251 3.70034 21.8667 4.73475 21.8667C5.76916 21.8667 6.61074 21.0251 6.61074 19.9907C6.61074 18.9563 5.76916 18.1147 4.73475 18.1147ZM4.73475 20.8413C4.26574 20.8413 3.88416 20.4597 3.88416 19.9907C3.88416 19.5217 4.26574 19.1401 4.73475 19.1401C5.20376 19.1401 5.58535 19.5217 5.58535 19.9907C5.58535 20.4597 5.20376 20.8413 4.73475 20.8413Z" fill="black"/>
<path d="M9.80171 18.1147C8.76729 18.1147 7.92572 18.9563 7.92572 19.9907C7.92572 21.0251 8.76729 21.8667 9.80171 21.8667C10.8361 21.8667 11.6777 21.0251 11.6777 19.9907C11.6777 18.9563 10.8361 18.1147 9.80171 18.1147ZM9.80171 20.8413C9.33269 20.8413 8.95111 20.4597 8.95111 19.9907C8.95111 19.5217 9.33269 19.1401 9.80171 19.1401C10.2707 19.1401 10.6523 19.5217 10.6523 19.9907C10.6523 20.4597 10.2707 20.8413 9.80171 20.8413Z" fill="black"/>
<path d="M14.8687 18.1147C13.8342 18.1147 12.9927 18.9563 12.9927 19.9907C12.9927 21.0251 13.8343 21.8667 14.8687 21.8667C15.9031 21.8667 16.7446 21.0251 16.7446 19.9907C16.7446 18.9563 15.9031 18.1147 14.8687 18.1147ZM14.8687 20.8413C14.3997 20.8413 14.0181 20.4597 14.0181 19.9907C14.0181 19.5217 14.3997 19.1401 14.8687 19.1401C15.3377 19.1401 15.7193 19.5217 15.7193 19.9907C15.7193 20.4597 15.3377 20.8413 14.8687 20.8413Z" fill="black"/>
<path d="M25.0027 18.1147C23.9683 18.1147 23.1267 18.9563 23.1267 19.9907C23.1267 21.0251 23.9683 21.8667 25.0027 21.8667C26.037 21.8667 26.8786 21.0251 26.8786 19.9907C26.8786 18.9563 26.0371 18.1147 25.0027 18.1147ZM25.0027 20.8413C24.5337 20.8413 24.1521 20.4597 24.1521 19.9907C24.1521 19.5217 24.5337 19.1401 25.0027 19.1401C25.4716 19.1401 25.8532 19.5217 25.8532 19.9907C25.8532 20.4597 25.4717 20.8413 25.0027 20.8413Z" fill="black"/>
<path d="M30.0696 21.8667C31.1041 21.8667 31.9456 21.0251 31.9456 19.9907C31.9456 18.9563 31.104 18.1147 30.0696 18.1147C29.0353 18.1147 28.1937 18.9563 28.1937 19.9907C28.1937 21.0251 29.0352 21.8667 30.0696 21.8667ZM30.0696 19.1401C30.5387 19.1401 30.9202 19.5217 30.9202 19.9907C30.9202 20.4598 30.5387 20.8413 30.0696 20.8413C29.6007 20.8413 29.2191 20.4598 29.2191 19.9907C29.2191 19.5217 29.6006 19.1401 30.0696 19.1401Z" fill="black"/>
<path d="M4.73475 22.9581C3.70034 22.9581 2.85876 23.7997 2.85876 24.8341C2.85876 25.8685 3.70034 26.7101 4.73475 26.7101C5.76916 26.7101 6.61074 25.8685 6.61074 24.8341C6.61074 23.7997 5.76916 22.9581 4.73475 22.9581ZM4.73475 25.6847C4.26574 25.6847 3.88416 25.3031 3.88416 24.8341C3.88416 24.3651 4.26574 23.9835 4.73475 23.9835C5.20376 23.9835 5.58535 24.3651 5.58535 24.8341C5.58535 25.3031 5.20376 25.6847 4.73475 25.6847Z" fill="black"/>
<path d="M9.80171 22.9581C8.76729 22.9581 7.92572 23.7997 7.92572 24.8341C7.92572 25.8685 8.76729 26.7101 9.80171 26.7101C10.8361 26.7101 11.6777 25.8685 11.6777 24.8341C11.6777 23.7997 10.8361 22.9581 9.80171 22.9581ZM9.80171 25.6847C9.33269 25.6847 8.95111 25.3031 8.95111 24.8341C8.95111 24.3651 9.33269 23.9835 9.80171 23.9835C10.2707 23.9835 10.6523 24.3651 10.6523 24.8341C10.6523 25.3031 10.2707 25.6847 9.80171 25.6847Z" fill="black"/>
<path d="M14.8687 22.9581C13.8342 22.9581 12.9927 23.7997 12.9927 24.8341C12.9927 25.8685 13.8343 26.7101 14.8687 26.7101C15.9031 26.7101 16.7446 25.8685 16.7446 24.8341C16.7446 23.7997 15.9031 22.9581 14.8687 22.9581ZM14.8687 25.6847C14.3997 25.6847 14.0181 25.3031 14.0181 24.8341C14.0181 24.3651 14.3997 23.9835 14.8687 23.9835C15.3377 23.9835 15.7193 24.3651 15.7193 24.8341C15.7193 25.3031 15.3377 25.6847 14.8687 25.6847Z" fill="black"/>
<path d="M25.0027 22.9581C23.9683 22.9581 23.1267 23.7997 23.1267 24.8341C23.1267 25.8685 23.9683 26.7101 25.0027 26.7101C26.037 26.7101 26.8786 25.8685 26.8786 24.8341C26.8786 23.7997 26.0371 22.9581 25.0027 22.9581ZM25.0027 25.6847C24.5337 25.6847 24.1521 25.3031 24.1521 24.8341C24.1521 24.3651 24.5337 23.9835 25.0027 23.9835C25.4716 23.9835 25.8532 24.3651 25.8532 24.8341C25.8532 25.3031 25.4717 25.6847 25.0027 25.6847Z" fill="black"/>
<path d="M19.9357 13.2714C18.9013 13.2714 18.0598 14.1129 18.0598 15.1473C18.0598 16.1818 18.9013 17.0233 19.9357 17.0233C20.97 17.0233 21.8116 16.1818 21.8116 15.1473C21.8116 14.1129 20.9701 13.2714 19.9357 13.2714ZM19.9357 15.9979C19.4667 15.9979 19.0851 15.6164 19.0851 15.1473C19.0851 14.6783 19.4667 14.2968 19.9357 14.2968C20.4046 14.2968 20.7862 14.6783 20.7862 15.1473C20.7862 15.6164 20.4047 15.9979 19.9357 15.9979Z" fill="black"/>
<path d="M19.9357 18.1147C18.9013 18.1147 18.0598 18.9563 18.0598 19.9907C18.0598 21.0251 18.9013 21.8667 19.9357 21.8667C20.97 21.8667 21.8116 21.0251 21.8116 19.9907C21.8116 18.9563 20.9701 18.1147 19.9357 18.1147ZM19.9357 20.8413C19.4667 20.8413 19.0851 20.4597 19.0851 19.9907C19.0851 19.5217 19.4667 19.1401 19.9357 19.1401C20.4046 19.1401 20.7862 19.5217 20.7862 19.9907C20.7862 20.4597 20.4047 20.8413 19.9357 20.8413Z" fill="black"/>
<path d="M19.9357 22.9581C18.9013 22.9581 18.0598 23.7997 18.0598 24.8341C18.0598 25.8685 18.9013 26.7101 19.9357 26.7101C20.97 26.7101 21.8116 25.8685 21.8116 24.8341C21.8116 23.7997 20.9701 22.9581 19.9357 22.9581ZM19.9357 25.6847C19.4667 25.6847 19.0851 25.3031 19.0851 24.8341C19.0851 24.3651 19.4667 23.9835 19.9357 23.9835C20.4046 23.9835 20.7862 24.3651 20.7862 24.8341C20.7862 25.3031 20.4047 25.6847 19.9357 25.6847Z" fill="black"/>
<path d="M31.9456 24.8341C31.9456 23.7997 31.104 22.9581 30.0696 22.9581C29.0353 22.9581 28.1937 23.7997 28.1937 24.8341C28.1937 25.8685 29.0353 26.7101 30.0696 26.7101C31.104 26.7101 31.9456 25.8685 31.9456 24.8341ZM29.219 24.8341C29.219 24.3651 29.6006 23.9835 30.0696 23.9835C30.5386 23.9835 30.9202 24.3651 30.9202 24.8341C30.9202 25.3031 30.5386 25.6847 30.0696 25.6847C29.6006 25.6847 29.219 25.3031 29.219 24.8341Z" fill="black"/>
<path d="M4.73475 27.8015C3.70034 27.8015 2.85876 28.6431 2.85876 29.6775C2.85876 30.7119 3.70034 31.5535 4.73475 31.5535C5.76916 31.5535 6.61074 30.7119 6.61074 29.6775C6.61074 28.6431 5.76916 27.8015 4.73475 27.8015ZM4.73475 30.5281C4.26574 30.5281 3.88416 30.1465 3.88416 29.6775C3.88416 29.2085 4.26574 28.8269 4.73475 28.8269C5.20376 28.8269 5.58535 29.2085 5.58535 29.6775C5.58535 30.1465 5.20376 30.5281 4.73475 30.5281Z" fill="black"/>
<path d="M9.80171 27.8015C8.76729 27.8015 7.92572 28.6431 7.92572 29.6775C7.92572 30.7119 8.76729 31.5535 9.80171 31.5535C10.8361 31.5535 11.6777 30.7119 11.6777 29.6775C11.6777 28.6431 10.8361 27.8015 9.80171 27.8015ZM9.80171 30.5281C9.33269 30.5281 8.95111 30.1465 8.95111 29.6775C8.95111 29.2085 9.33269 28.8269 9.80171 28.8269C10.2707 28.8269 10.6523 29.2085 10.6523 29.6775C10.6523 30.1465 10.2707 30.5281 9.80171 30.5281Z" fill="black"/>
<path d="M14.8687 27.8015C13.8342 27.8015 12.9927 28.6431 12.9927 29.6775C12.9927 30.7119 13.8343 31.5535 14.8687 31.5535C15.9031 31.5535 16.7446 30.7119 16.7446 29.6775C16.7446 28.6431 15.9031 27.8015 14.8687 27.8015ZM14.8687 30.5281C14.3997 30.5281 14.0181 30.1465 14.0181 29.6775C14.0181 29.2085 14.3997 28.8269 14.8687 28.8269C15.3377 28.8269 15.7193 29.2085 15.7193 29.6775C15.7193 30.1465 15.3377 30.5281 14.8687 30.5281Z" fill="black"/>
</g>
<defs>
<clipPath id="clip0_3902_5232">
<rect width="35" height="35" fill="white" transform="translate(-0.00701904 0.5)"/>
</clipPath>
</defs>
</svg>
