<svg width="35" height="36" viewBox="0 0 35 36" fill="none" xmlns="http://www.w3.org/2000/svg">
<g clip-path="url(#clip0_3902_5206)">
<path d="M29.8687 6.71366C26.5635 3.40835 22.1688 1.58807 17.4944 1.58807C12.82 1.58807 8.42528 3.40835 5.12004 6.71366C1.8148 10.019 -0.00561523 14.4136 -0.00561523 19.0881C-0.00561523 24.0998 2.14948 28.8798 5.90713 32.2023C6.12212 32.3925 6.45065 32.3722 6.64083 32.1572C6.83101 31.9421 6.81084 31.6136 6.59571 31.4235C3.06119 28.2982 1.03406 23.8021 1.03406 19.0881C1.03406 14.6914 2.74619 10.5578 5.85518 7.4488C8.96416 4.33981 13.0977 2.62768 17.4944 2.62768C21.8911 2.62768 26.0247 4.33981 29.1337 7.4488C32.2426 10.5578 33.9548 14.6913 33.9548 19.0881C33.9548 23.8022 31.9276 28.2982 28.3931 31.4234C28.1779 31.6136 28.1578 31.942 28.3479 32.1571C28.4507 32.2733 28.5938 32.3326 28.7376 32.3326C28.86 32.3326 28.9828 32.2896 29.0817 32.2022C32.8393 28.8798 34.9944 24.0998 34.9944 19.0881C34.9944 14.4136 33.174 10.019 29.8687 6.71366Z" fill="black"/>
<path d="M24.4441 29.6842H12.7917C12.5046 29.6842 12.2719 29.917 12.2719 30.204C12.2719 30.4911 12.5046 30.7238 12.7917 30.7238H24.444C24.8537 30.7238 25.187 31.0571 25.187 31.4668V32.6295C25.187 33.0392 24.8537 33.3725 24.444 33.3725H10.5446C10.1349 33.3725 9.80169 33.0391 9.80169 32.6295V31.4668C9.80169 31.0571 10.135 30.7238 10.5446 30.7238H11.059C11.3461 30.7238 11.5788 30.4911 11.5788 30.204C11.5788 29.917 11.3461 29.6842 11.059 29.6842H10.5446C9.56168 29.6842 8.76208 30.4839 8.76208 31.4668V32.6295C8.76208 33.6125 9.56175 34.412 10.5446 34.412H24.4441C25.427 34.412 26.2267 33.6123 26.2267 32.6295V31.4668C26.2266 30.4839 25.427 29.6842 24.4441 29.6842Z" fill="black"/>
<path d="M26.3128 7.30199C23.7522 5.38314 20.7028 4.3689 17.4942 4.3689C11.5732 4.3689 6.2524 7.89111 3.93898 13.3424C3.83419 13.5893 3.93447 13.8754 4.17052 14.0029C4.24879 14.0451 4.33349 14.0653 4.41709 14.0653C4.58573 14.0653 4.7502 13.9832 4.8498 13.8341C7.09404 10.4733 10.8427 8.4669 14.8776 8.4669C17.8156 8.4669 20.6454 9.53625 22.8457 11.4779C23.0609 11.6678 23.3896 11.6474 23.5794 11.4321C23.7694 11.2169 23.7488 10.8884 23.5337 10.6984C21.1433 8.58899 18.0691 7.42729 14.8776 7.42729C12.2432 7.42729 9.72089 8.21486 7.59847 9.63571C10.1319 6.98214 13.679 5.40857 17.4943 5.40857C20.4763 5.40857 23.3102 6.35098 25.6894 8.13399C25.9192 8.30612 26.2449 8.25943 26.4172 8.02975C26.5892 7.79999 26.5426 7.47412 26.3128 7.30199Z" fill="black"/>
<path d="M29.0111 9.92115C28.8321 9.69666 28.5052 9.65968 28.2806 9.83857C28.0561 10.0175 28.0193 10.3445 28.1981 10.5691C30.0367 12.8761 31.0567 15.632 31.1644 18.5683H27.8218C27.6029 17.0992 27.1386 15.691 26.4391 14.3763C26.3043 14.1229 25.9896 14.0266 25.736 14.1616C25.4825 14.2964 25.3864 14.6112 25.5212 14.8646C26.232 16.2005 26.6787 17.6412 26.8491 19.1465C26.8789 19.4094 27.1012 19.6079 27.3656 19.6079H31.6935C31.9807 19.6079 32.2134 19.3751 32.2134 19.0881C32.2134 15.7197 31.106 12.5498 29.0111 9.92115Z" fill="black"/>
<path d="M28.1508 7.57277C27.9257 7.42491 27.625 7.47338 27.4579 7.68454L18.4378 19.0784C18.2596 19.3035 18.2976 19.6303 18.5227 19.8086C18.7479 19.9869 19.0747 19.9488 19.253 19.7237L24.6341 12.9264L18.5521 24.2533C18.5061 24.3287 18.4273 24.4514 18.3889 24.4996C18.1987 24.7386 17.9269 24.8891 17.6233 24.9235C17.3199 24.9582 17.0212 24.8722 16.7822 24.682C16.5432 24.4917 16.3927 24.2199 16.3582 23.9163C16.3238 23.6129 16.4095 23.3142 16.6007 23.0741L18.2265 21.0205C18.4046 20.7954 18.3666 20.4684 18.1415 20.2902C17.9165 20.1121 17.5895 20.1501 17.4113 20.3751L15.7865 22.4276C15.4233 22.8838 15.2595 23.4541 15.3252 24.0335C15.391 24.6129 15.6784 25.132 16.1347 25.4952C16.5249 25.8059 16.9987 25.9707 17.4902 25.9707C17.5732 25.9707 17.6568 25.966 17.7406 25.9565C18.32 25.8907 18.8391 25.6032 19.2022 25.1471C19.2979 25.0268 19.4239 24.8207 19.4482 24.7805C19.4528 24.7729 19.4573 24.7652 19.4615 24.7573L28.3234 8.25309C28.4507 8.01581 28.3759 7.72057 28.1508 7.57277Z" fill="black"/>
<path d="M17.9956 23.3927C17.741 23.0053 17.116 23.1451 17.0496 23.6046C17.018 23.823 17.131 24.0471 17.3302 24.1449C17.5231 24.2397 17.7578 24.2086 17.9164 24.0626C18.1012 23.8924 18.1368 23.6013 17.9956 23.3927Z" fill="black"/>
</g>
<defs>
<clipPath id="clip0_3902_5206">
<rect width="35" height="35" fill="white" transform="translate(-0.00561523 0.5)"/>
</clipPath>
</defs>
</svg>
