<svg width="15" height="16" viewBox="0 0 15 16" fill="none" xmlns="http://www.w3.org/2000/svg">
<g id="ep:info-filled">
<path id="Vector" d="M7.50047 1.4375C9.24108 1.4375 10.9104 2.12895 12.1412 3.35975C13.372 4.59054 14.0634 6.25986 14.0634 8.00047C14.0634 9.74107 13.372 11.4104 12.1412 12.6412C10.9104 13.872 9.24108 14.5634 7.50047 14.5634C5.75986 14.5634 4.09054 13.872 2.85975 12.6412C1.62895 11.4104 0.9375 9.74107 0.9375 8.00047C0.9375 6.25986 1.62895 4.59054 2.85975 3.35975C4.09054 2.12895 5.75986 1.4375 7.50047 1.4375ZM8.48484 5.46687C8.97234 5.46687 9.36797 5.12844 9.36797 4.62687C9.36797 4.12531 8.97141 3.78687 8.48484 3.78687C7.99734 3.78687 7.60359 4.12531 7.60359 4.62687C7.60359 5.12844 7.99734 5.46687 8.48484 5.46687ZM8.65641 10.7422C8.65641 10.6419 8.69109 10.3812 8.67141 10.2331L7.90078 11.12C7.74141 11.2878 7.54172 11.4041 7.44797 11.3731C7.40543 11.3575 7.36988 11.3272 7.34771 11.2876C7.32554 11.2481 7.31821 11.202 7.32703 11.1575L8.61141 7.1C8.71641 6.58531 8.42766 6.11562 7.81547 6.05562C7.16953 6.05562 6.21891 6.71094 5.64047 7.5425C5.64047 7.64187 5.62172 7.88937 5.64141 8.0375L6.41109 7.14969C6.57047 6.98375 6.75609 6.86656 6.84984 6.89844C6.89603 6.91501 6.93388 6.94904 6.95526 6.99321C6.97665 7.03738 6.97986 7.08817 6.96422 7.13469L5.69109 11.1725C5.54391 11.645 5.82234 12.1081 6.49734 12.2131C7.49109 12.2131 8.07797 11.5737 8.65734 10.7422H8.65641Z" fill="#444343"/>
</g>
</svg>
