<svg width="26" height="25" viewBox="0 0 26 25" fill="none" xmlns="http://www.w3.org/2000/svg">
<path d="M13 22.9167C18.753 22.9167 23.4167 18.253 23.4167 12.5C23.4167 6.74704 18.753 2.08334 13 2.08334C7.24707 2.08334 2.58337 6.74704 2.58337 12.5C2.58337 18.253 7.24707 22.9167 13 22.9167Z" fill="#FCBF49"/>
<path d="M13 19.7917C13.8629 19.7917 14.5625 19.0921 14.5625 18.2292C14.5625 17.3662 13.8629 16.6667 13 16.6667C12.1371 16.6667 11.4375 17.3662 11.4375 18.2292C11.4375 19.0921 12.1371 19.7917 13 19.7917Z" fill="#EDEBEA"/>
<path d="M13.7084 5.20834H12.2917C11.3745 5.20834 10.4949 5.57269 9.8463 6.22126C9.19773 6.86982 8.83337 7.74946 8.83337 8.66667V9.375C8.83337 9.65127 8.94312 9.91622 9.13847 10.1116C9.33382 10.3069 9.59877 10.4167 9.87504 10.4167C10.1513 10.4167 10.4163 10.3069 10.6116 10.1116C10.807 9.91622 10.9167 9.65127 10.9167 9.375V8.66667C10.9167 8.302 11.0616 7.95226 11.3194 7.6944C11.5773 7.43653 11.927 7.29167 12.2917 7.29167H13.7084C14.0386 7.28744 14.3594 7.40224 14.612 7.61507C14.8646 7.82791 15.0321 8.12455 15.0839 8.45076C15.1358 8.77696 15.0685 9.11093 14.8943 9.39158C14.7201 9.67223 14.4508 9.88081 14.1355 9.97917C13.5009 10.1929 12.9495 10.6004 12.5589 11.1443C12.1683 11.6881 11.9582 12.3408 11.9584 13.0104V13.5417C11.9584 13.8179 12.0681 14.0829 12.2635 14.2782C12.4588 14.4736 12.7238 14.5833 13 14.5833C13.2763 14.5833 13.5413 14.4736 13.7366 14.2782C13.932 14.0829 14.0417 13.8179 14.0417 13.5417V13.0104C14.0417 12.7786 14.1154 12.5528 14.252 12.3656C14.3887 12.1784 14.5813 12.0394 14.8021 11.9688C15.5839 11.7089 16.2477 11.1792 16.6747 10.4746C17.1016 9.76997 17.2638 8.93639 17.1322 8.12309C17.0006 7.30979 16.5839 6.56988 15.9565 6.03582C15.3292 5.50176 14.5322 5.20843 13.7084 5.20834Z" fill="#EDEBEA"/>
</svg>
