<svg width="36" height="36" viewBox="0 0 36 36" fill="none" xmlns="http://www.w3.org/2000/svg">
<g clip-path="url(#clip0_3636_605)">
<path d="M5.16697 7.38919V9.31419C4.21616 9.84821 3.77436 10.979 4.11116 12.0162L9.30285 27.9837C9.26977 28.1539 9.2522 28.3267 9.25035 28.5C9.25329 29.5242 9.79484 30.4712 10.676 30.9931C10.5032 31.5055 10.4158 32.0427 10.417 32.5833V33.75C10.417 34.7165 11.2005 35.5 12.167 35.5H29.667C30.6334 35.5 31.417 34.7165 31.417 33.75V32.7881C31.8139 32.2149 32.0182 31.5303 32.0003 30.8334C32.0003 30.6747 31.9935 30.5219 31.9798 30.3749C31.6919 27.9958 29.5491 26.2873 27.1656 26.5366L23.1616 26.8907C22.9821 26.4533 22.5564 26.1673 22.0835 26.1668H19.7502C19.1331 26.1691 18.6245 26.6519 18.59 27.2681C17.7663 27.3043 16.1942 27.3929 14.9184 27.5732C14.8366 27.319 14.72 27.0774 14.5719 26.8551C14.7037 23.6603 14.2805 20.4669 13.3213 17.4168C12.3778 14.6517 11.0479 12.034 9.37094 9.64149C9.18377 9.3807 8.9439 9.16209 8.66684 8.9998V7.045C9.03653 6.71585 9.24864 6.24492 9.25015 5.75V2.25C9.25015 1.28354 8.46661 0.5 7.50015 0.5H6.45015C5.61685 0.502051 4.89983 1.09008 4.73467 1.90697L4.03467 5.40697C3.85844 6.25866 4.34379 7.10837 5.16697 7.38919ZM12.167 26.75C13.1334 26.75 13.917 27.5335 13.917 28.5C13.917 29.4665 13.1334 30.25 12.167 30.25C11.2004 30.25 10.417 29.4665 10.417 28.5C10.417 27.5335 11.2004 26.75 12.167 26.75ZM12.167 31.4167C13.683 31.4122 14.9418 30.2448 15.0603 28.7334C16.2509 28.5636 17.7605 28.4761 18.5836 28.4382V29.0834C18.5852 29.5783 18.7973 30.0492 19.1669 30.3784V32H11.6262C11.6602 31.7884 11.7123 31.5802 11.7819 31.3776C11.9092 31.3995 12.0378 31.4125 12.167 31.4167ZM21.5003 32H20.3336V30.8333H21.5003V32ZM30.2503 33.75C30.2503 34.0722 29.9891 34.3333 29.667 34.3333H12.167C11.8448 34.3333 11.5837 34.0722 11.5837 33.75V33.1667H30.2504L30.2503 33.75ZM27.2683 27.6985C29.0138 27.5009 30.5947 28.741 30.8185 30.4833C30.829 30.5941 30.8337 30.7102 30.8337 30.8333C30.8433 31.2413 30.7425 31.6445 30.542 32H22.667V30.3783C23.0367 30.0492 23.2488 29.5782 23.2503 29.0833V28.0537L27.2683 27.6985ZM19.7503 27.3333H22.0836V29.0833C22.0836 29.4055 21.8224 29.6666 21.5003 29.6666H20.3336C20.0114 29.6666 19.7503 29.4055 19.7503 29.0833V27.3333ZM12.2148 17.7877C13.0437 20.404 13.4519 23.1354 13.424 25.8796C12.2848 25.3168 10.9108 25.5718 10.0495 26.5062L5.2218 11.6562C5.02937 11.0592 5.35742 10.4193 5.95441 10.2269C5.96965 10.2219 5.98503 10.2174 6.00055 10.213L7.16724 9.8759C7.63482 9.74444 8.13459 9.9204 8.41671 10.3157C10.0289 12.6147 11.3076 15.1303 12.2148 17.7877ZM7.50029 8.67134C7.28044 8.66758 7.06128 8.69526 6.8493 8.75357L6.33366 8.9V7.5H7.50035L7.50029 8.67134ZM5.8786 2.13625C5.9328 1.86343 6.17213 1.66689 6.45029 1.66669H7.50029C7.82246 1.66669 8.0836 1.92789 8.0836 2.25V5.75C8.0836 6.07218 7.82239 6.33331 7.50029 6.33331H5.75029C5.42811 6.33338 5.16691 6.07225 5.16684 5.75007C5.16684 5.71083 5.1708 5.67173 5.1786 5.63331L5.8786 2.13625Z" fill="black"/>
</g>
<defs>
<clipPath id="clip0_3636_605">
<rect width="35" height="35" fill="white" transform="translate(0.5 0.5)"/>
</clipPath>
</defs>
</svg>
