<svg width="25" height="25" viewBox="0 0 25 25" fill="none" xmlns="http://www.w3.org/2000/svg">
<g clip-path="url(#clip0_3806_4512)">
<path d="M21.3388 4.43835C18.9779 2.07742 15.8389 0.777222 12.5 0.777222C9.16113 0.777222 6.02207 2.07742 3.66118 4.43835C1.30029 6.79929 0 9.93831 0 13.2772C0 16.8571 1.53936 20.2713 4.22339 22.6445C4.37695 22.7803 4.61162 22.7659 4.74746 22.6123C4.8833 22.4587 4.8689 22.224 4.71523 22.0882C2.19058 19.8559 0.742627 16.6444 0.742627 13.2772C0.742627 10.1367 1.96558 7.18416 4.18628 4.96345C6.40698 2.74275 9.35952 1.5198 12.5 1.5198C15.6405 1.5198 18.5931 2.74275 20.8138 4.96345C23.0345 7.18416 24.2574 10.1367 24.2574 13.2772C24.2574 16.6445 22.8095 19.8559 20.2848 22.0882C20.1311 22.224 20.1167 22.4586 20.2525 22.6122C20.3259 22.6952 20.4282 22.7376 20.5309 22.7376C20.6183 22.7376 20.706 22.7069 20.7767 22.6445C23.4606 20.2713 25 16.8571 25 13.2772C25 9.93831 23.6998 6.79929 21.3388 4.43835Z" fill="black"/>
<path d="M17.4641 20.8458H9.14097C8.93594 20.8458 8.76968 21.0121 8.76968 21.2171C8.76968 21.4221 8.93594 21.5884 9.14097 21.5884H17.4641C17.7567 21.5884 17.9948 21.8265 17.9948 22.1191V22.9496C17.9948 23.2423 17.7567 23.4803 17.4641 23.4803H7.53594C7.24331 23.4803 7.00527 23.2422 7.00527 22.9496V22.1191C7.00527 21.8265 7.24336 21.5884 7.53594 21.5884H7.90337C8.1084 21.5884 8.27466 21.4221 8.27466 21.2171C8.27466 21.0121 8.1084 20.8458 7.90337 20.8458H7.53594C6.83384 20.8458 6.2627 21.417 6.2627 22.1191V22.9496C6.2627 23.6517 6.83389 24.2228 7.53594 24.2228H17.4641C18.1662 24.2228 18.7374 23.6516 18.7374 22.9496V22.1191C18.7374 21.417 18.1662 20.8458 17.4641 20.8458Z" fill="black"/>
<path d="M18.7988 4.8585C16.9698 3.48789 14.7917 2.76343 12.4998 2.76343C8.27051 2.76343 4.46998 5.2793 2.81754 9.17305C2.74268 9.34941 2.81431 9.55381 2.98292 9.64482C3.03883 9.675 3.09932 9.6894 3.15904 9.6894C3.2795 9.6894 3.39698 9.63076 3.46812 9.52427C5.07115 7.12373 7.74879 5.69058 10.6308 5.69058C12.7294 5.69058 14.7507 6.45439 16.3223 7.84131C16.4761 7.97695 16.7108 7.96235 16.8464 7.80859C16.9821 7.65483 16.9674 7.42022 16.8137 7.28452C15.1063 5.77778 12.9105 4.948 10.6309 4.948C8.74913 4.948 6.94747 5.51055 5.43145 6.52544C7.24102 4.63003 9.77471 3.50605 12.4999 3.50605C14.6299 3.50605 16.6541 4.1792 18.3536 5.45278C18.5177 5.57573 18.7503 5.54238 18.8734 5.37832C18.9962 5.21421 18.9629 4.98145 18.7988 4.8585Z" fill="black"/>
<path d="M20.7262 6.72938C20.5983 6.56903 20.3648 6.54262 20.2044 6.6704C20.044 6.79823 20.0177 7.03178 20.1455 7.19218C21.4588 8.84003 22.1873 10.8085 22.2642 12.9059H19.8766C19.7203 11.8565 19.3887 10.8507 18.889 9.91161C18.7927 9.73061 18.568 9.66186 18.3868 9.75824C18.2057 9.85458 18.1371 10.0794 18.2334 10.2604C18.7411 11.2146 19.0602 12.2437 19.1819 13.3189C19.2032 13.5067 19.3619 13.6485 19.5508 13.6485H22.6422C22.8473 13.6485 23.0135 13.4822 23.0135 13.2772C23.0136 10.8712 22.2225 8.60702 20.7262 6.72938Z" fill="black"/>
<path d="M20.1118 5.05197C19.951 4.94636 19.7362 4.98098 19.6169 5.13181L13.174 13.2703C13.0467 13.4311 13.0738 13.6645 13.2346 13.7919C13.3954 13.9192 13.6289 13.892 13.7562 13.7312L17.5999 8.876L13.2556 16.9666C13.2228 17.0205 13.1665 17.1081 13.139 17.1425C13.0032 17.3133 12.809 17.4208 12.5922 17.4454C12.3754 17.4701 12.1621 17.4087 11.9914 17.2728C11.8207 17.1369 11.7131 16.9427 11.6885 16.7259C11.6639 16.5092 11.7252 16.2958 11.8618 16.1243L13.023 14.6575C13.1503 14.4967 13.1231 14.2632 12.9623 14.1359C12.8016 14.0086 12.568 14.0358 12.4407 14.1965L11.2802 15.6626C11.0207 15.9884 10.9038 16.3958 10.9507 16.8096C10.9977 17.2235 11.203 17.5943 11.5289 17.8537C11.8076 18.0756 12.146 18.1933 12.4971 18.1933C12.5564 18.1933 12.6161 18.19 12.6759 18.1832C13.0898 18.1362 13.4606 17.9308 13.72 17.605C13.7883 17.5192 13.8783 17.3719 13.8957 17.3432C13.8989 17.3378 13.9022 17.3322 13.9051 17.3266L20.2351 5.53791C20.326 5.36843 20.2726 5.15754 20.1118 5.05197Z" fill="black"/>
<path d="M12.8579 16.352C12.6761 16.0752 12.2297 16.1751 12.1822 16.5033C12.1597 16.6593 12.2404 16.8194 12.3827 16.8893C12.5204 16.9569 12.6881 16.9347 12.8014 16.8304C12.9334 16.7089 12.9588 16.5009 12.8579 16.352Z" fill="black"/>
</g>
<defs>
<clipPath id="clip0_3806_4512">
<rect width="25" height="25" fill="white"/>
</clipPath>
</defs>
</svg>
