<svg width="25" height="25" viewBox="0 0 25 25" fill="none" xmlns="http://www.w3.org/2000/svg">
<g clip-path="url(#clip0_3806_4533)">
<path d="M6.88336 12.8404L6.02661 15.0639C5.93635 15.2982 5.99054 15.5541 6.16809 15.7317C6.34629 15.9099 6.60235 15.9632 6.83585 15.8731L9.05941 15.0164C9.47804 14.8551 9.85112 14.6125 10.1683 14.2952L17.7051 6.75835C17.7053 6.75821 17.7055 6.75806 17.7056 6.75791C17.7058 6.75777 17.7059 6.75757 17.7061 6.75743L18.489 5.97445C19.1976 5.26592 19.1977 4.11924 18.489 3.41057C17.7822 2.7038 16.6321 2.7038 15.9252 3.41057L15.1418 4.19393L7.60453 11.7313C7.28729 12.0487 7.04466 12.4217 6.88336 12.8404ZM9.70154 13.7263L9.17287 13.1977L16.4002 5.9703L16.9289 6.49897L9.70154 13.7263ZM16.443 3.9285C16.8644 3.50713 17.5499 3.50718 17.9713 3.9285C18.3936 4.35079 18.3937 5.03432 17.9713 5.45666L17.4467 5.98119L15.9186 4.45297L16.443 3.9285ZM15.4007 4.97081L15.8824 5.45251L8.65503 12.6799L8.17333 12.1982L15.4007 4.97081ZM9.1197 14.1802C9.0162 14.2384 8.90846 14.2898 8.79612 14.3331L6.79607 15.1037L7.56669 13.1036C7.60994 12.9913 7.6613 12.8836 7.71959 12.7801C8.22132 13.2818 8.61647 13.6769 9.1197 14.1802Z" fill="black"/>
<path d="M22.3324 7.96936H17.3963C17.194 7.96936 17.0301 8.13325 17.0301 8.33551C17.0301 8.53777 17.194 8.70166 17.3963 8.70166H22.3324C23.3995 8.70166 24.2677 9.56983 24.2677 10.637V19.4518C24.2677 20.5189 23.3995 21.3871 22.3324 21.3871H6.44202C5.87561 21.3871 5.33957 21.1403 4.97137 20.7099L1.20109 16.3025C0.577516 15.5735 0.577516 14.5154 1.20109 13.7864L1.6662 13.2427L2.49673 14.0731C2.28387 14.3398 2.15616 14.6774 2.15616 15.0444C2.15616 15.9046 2.856 16.6044 3.7162 16.6044C4.57641 16.6044 5.27625 15.9046 5.27625 15.0444C5.27625 14.1842 4.57641 13.4844 3.7162 13.4844C3.48958 13.4844 3.27433 13.5333 3.07984 13.6206L2.14371 12.6845L4.97137 9.37899C5.33957 8.94859 5.87561 8.70171 6.44202 8.70171H9.77238C9.97459 8.70171 10.1385 8.53782 10.1385 8.33556C10.1385 8.1333 9.97459 7.96941 9.77238 7.96941H6.44202C5.66129 7.96941 4.92245 8.30968 4.41492 8.90299L1.62436 12.1651L0.669737 11.2105C0.526744 11.0676 0.294897 11.0676 0.151952 11.2105C0.00895851 11.3536 0.00895851 11.5854 0.151952 11.7284L1.14686 12.7232L0.644644 13.3103C-0.214881 14.315 -0.214881 15.7737 0.644644 16.7784L4.41492 21.1858C4.92245 21.7791 5.66134 22.1194 6.44202 22.1194H22.3324C23.8033 22.1194 25 20.9226 25 19.4517V10.637C25 9.16608 23.8033 7.96936 22.3324 7.96936ZM3.7162 14.2166C4.17262 14.2166 4.54395 14.5879 4.54395 15.0444C4.54395 15.5008 4.17262 15.8721 3.7162 15.8721C3.25979 15.8721 2.88846 15.5008 2.88846 15.0444C2.88846 14.5879 3.25979 14.2166 3.7162 14.2166Z" fill="black"/>
<path d="M20.2481 12.5426H14.2026C14.0004 12.5426 13.8364 12.7065 13.8364 12.9088C13.8364 13.111 14.0004 13.2749 14.2026 13.2749H20.2481C20.4503 13.2749 20.6143 13.111 20.6143 12.9088C20.6143 12.7065 20.4503 12.5426 20.2481 12.5426Z" fill="black"/>
<path d="M20.2481 14.6782H14.2026C14.0004 14.6782 13.8364 14.8421 13.8364 15.0444C13.8364 15.2466 14.0004 15.4105 14.2026 15.4105H20.2481C20.4503 15.4105 20.6143 15.2466 20.6143 15.0444C20.6143 14.8421 20.4503 14.6782 20.2481 14.6782Z" fill="black"/>
<path d="M20.2482 16.814H9.49152C9.2893 16.814 9.12537 16.9779 9.12537 17.1801C9.12537 17.3824 9.2893 17.5463 9.49152 17.5463H20.2482C20.4504 17.5463 20.6143 17.3824 20.6143 17.1801C20.6143 16.9779 20.4504 16.814 20.2482 16.814Z" fill="black"/>
</g>
<defs>
<clipPath id="clip0_3806_4533">
<rect width="25" height="25" fill="white"/>
</clipPath>
</defs>
</svg>
