<svg width="26" height="25" viewBox="0 0 26 25" fill="none" xmlns="http://www.w3.org/2000/svg">
<path d="M13 22.9167C18.753 22.9167 23.4167 18.253 23.4167 12.5C23.4167 6.74704 18.753 2.08334 13 2.08334C7.24707 2.08334 2.58337 6.74704 2.58337 12.5C2.58337 18.253 7.24707 22.9167 13 22.9167Z" fill="#20BF55"/>
<path d="M12.2084 15.3854C11.933 15.3898 11.6671 15.2849 11.4688 15.0938L9.09381 12.7604C8.89628 12.5656 8.78421 12.3004 8.78225 12.023C8.7803 11.7456 8.88862 11.4788 9.08339 11.2812C9.27816 11.0837 9.54342 10.9716 9.82082 10.9697C10.0982 10.9677 10.365 11.0761 10.5626 11.2708L12.2084 12.8854L16.4792 8.71875C16.577 8.62231 16.6929 8.54608 16.8201 8.49441C16.9474 8.44274 17.0836 8.41665 17.221 8.41761C17.3583 8.41858 17.4941 8.44659 17.6207 8.50005C17.7472 8.5535 17.862 8.63136 17.9584 8.72917C18.0548 8.82697 18.1311 8.94282 18.1827 9.07009C18.2344 9.19736 18.2605 9.33355 18.2595 9.47091C18.2586 9.60826 18.2305 9.74408 18.1771 9.87061C18.1236 9.99713 18.0458 10.1119 17.948 10.2083L12.9376 15.1354C12.7354 15.3089 12.4745 15.3984 12.2084 15.3854Z" fill="#EDEBEA"/>
</svg>
