<svg width="25" height="25" viewBox="0 0 25 25" fill="none" xmlns="http://www.w3.org/2000/svg">
<g clip-path="url(#clip0_3806_4487)">
<path d="M23.6567 2.14233H22.3974V1.59668C22.3974 0.850928 21.7907 0.244141 21.0449 0.244141C20.2991 0.244141 19.6924 0.850879 19.6924 1.59668V2.14233H18.506V1.59668C18.506 0.850928 17.8993 0.244141 17.1535 0.244141C16.4077 0.244141 15.8009 0.850879 15.8009 1.59668V2.14233H9.19907V1.59668C9.19907 0.850928 8.59233 0.244141 7.84653 0.244141C7.10078 0.244141 6.49399 0.850879 6.49399 1.59668V2.14233H5.30762V1.59668C5.30762 0.850928 4.70088 0.244141 3.95508 0.244141C3.20928 0.244141 2.60254 0.850879 2.60254 1.59668V2.14233H1.34326C0.602588 2.14233 0 2.74492 0 3.48564V23.4126C0 24.1533 0.602588 24.7559 1.34331 24.7559H18.75C19.2235 24.7559 19.2235 24.0234 18.75 24.0234H1.34331C1.00645 24.0234 0.732422 23.7494 0.732422 23.4125V7.45088H2.84644C3.31992 7.45088 3.31992 6.71846 2.84644 6.71846H0.732422V3.48564C0.732422 3.14883 1.00645 2.87476 1.34331 2.87476H2.60259V3.44937C2.60259 4.19512 3.20933 4.8019 3.95513 4.8019C4.70088 4.8019 5.30767 4.19517 5.30767 3.44937V2.87476H6.49404V3.44937C6.49404 4.19512 7.10078 4.8019 7.84658 4.8019C8.59238 4.8019 9.19912 4.19517 9.19912 3.44937V2.87476H15.8009V3.44937C15.8009 4.19512 16.4077 4.8019 17.1535 4.8019C17.8993 4.8019 18.506 4.19517 18.506 3.44937V2.87476H19.6924V3.44937C19.6924 4.19512 20.2991 4.8019 21.0449 4.8019C21.7907 4.8019 22.3974 4.19517 22.3974 3.44937V2.87476H23.6567C23.9935 2.87476 24.2676 3.14878 24.2676 3.48564V6.71846H5.0582C4.58472 6.71846 4.58472 7.45088 5.0582 7.45088H24.2676V23.4125C24.2676 23.7494 23.9936 24.0234 23.6567 24.0234H20.9473C20.4738 24.0234 20.4738 24.7559 20.9473 24.7559H23.6567C24.3974 24.7559 25 24.1533 25 23.4125V3.48564C25 2.74492 24.3974 2.14233 23.6567 2.14233ZM4.57524 3.44937C4.57524 3.79126 4.29707 4.06948 3.95513 4.06948C3.61318 4.06948 3.33501 3.79131 3.33501 3.44937V1.59668C3.33501 1.25479 3.61318 0.976562 3.95513 0.976562C4.29702 0.976562 4.57524 1.25474 4.57524 1.59668V3.44937ZM8.46665 3.44937C8.46665 3.79126 8.18848 4.06948 7.84653 4.06948C7.50464 4.06948 7.22642 3.79131 7.22642 3.44937V1.59668C7.22642 1.25479 7.50459 0.976562 7.84653 0.976562C8.18848 0.976562 8.46665 1.25474 8.46665 1.59668V3.44937ZM17.7736 3.44937C17.7736 3.79126 17.4954 4.06948 17.1535 4.06948C16.8115 4.06948 16.5333 3.79131 16.5333 3.44937V1.59668C16.5333 1.25479 16.8115 0.976562 17.1535 0.976562C17.4954 0.976562 17.7736 1.25474 17.7736 1.59668V3.44937ZM21.665 3.44937C21.665 3.79126 21.3868 4.06948 21.0449 4.06948C20.703 4.06948 20.4248 3.79131 20.4248 3.44937V1.59668C20.4248 1.25479 20.703 0.976562 21.0449 0.976562C21.3868 0.976562 21.665 1.25474 21.665 1.59668V3.44937Z" fill="black"/>
<path d="M7.00625 9.12244C6.26738 9.12244 5.66626 9.72356 5.66626 10.4624C5.66626 11.2013 6.26738 11.8024 7.00625 11.8024C7.74512 11.8024 8.34624 11.2013 8.34624 10.4624C8.34624 9.72356 7.74512 9.12244 7.00625 9.12244ZM7.00625 11.07C6.67124 11.07 6.39868 10.7974 6.39868 10.4624C6.39868 10.1274 6.67124 9.85486 7.00625 9.85486C7.34126 9.85486 7.61382 10.1274 7.61382 10.4624C7.61382 10.7974 7.34126 11.07 7.00625 11.07Z" fill="black"/>
<path d="M10.6255 9.12244C9.8866 9.12244 9.28552 9.72356 9.28552 10.4624C9.28552 11.2013 9.88665 11.8024 10.6255 11.8024C11.3644 11.8024 11.9655 11.2013 11.9655 10.4624C11.9655 9.72356 11.3643 9.12244 10.6255 9.12244ZM10.6255 11.07C10.2905 11.07 10.0179 10.7974 10.0179 10.4624C10.0179 10.1274 10.2905 9.85486 10.6255 9.85486C10.9605 9.85486 11.233 10.1274 11.233 10.4624C11.233 10.7974 10.9605 11.07 10.6255 11.07Z" fill="black"/>
<path d="M17.864 9.12244C17.1252 9.12244 16.524 9.72356 16.524 10.4624C16.524 11.2013 17.1252 11.8024 17.864 11.8024C18.6029 11.8024 19.204 11.2013 19.204 10.4624C19.204 9.72356 18.6029 9.12244 17.864 9.12244ZM17.864 11.07C17.529 11.07 17.2565 10.7974 17.2565 10.4624C17.2565 10.1274 17.529 9.85486 17.864 9.85486C18.199 9.85486 18.4716 10.1274 18.4716 10.4624C18.4716 10.7974 18.199 11.07 17.864 11.07Z" fill="black"/>
<path d="M21.4834 11.8024C22.2222 11.8024 22.8234 11.2013 22.8234 10.4624C22.8234 9.72356 22.2222 9.12244 21.4834 9.12244C20.7446 9.12244 20.1434 9.72356 20.1434 10.4624C20.1434 11.2013 20.7445 11.8024 21.4834 11.8024ZM21.4834 9.85486C21.8184 9.85486 22.0909 10.1274 22.0909 10.4624C22.0909 10.7974 21.8184 11.07 21.4834 11.07C21.1484 11.07 20.8759 10.7974 20.8759 10.4624C20.8759 10.1274 21.1484 9.85486 21.4834 9.85486Z" fill="black"/>
<path d="M3.38699 12.582C2.64812 12.582 2.047 13.1832 2.047 13.922C2.047 14.6609 2.64812 15.262 3.38699 15.262C4.12585 15.262 4.72698 14.6609 4.72698 13.922C4.72698 13.1832 4.12585 12.582 3.38699 12.582ZM3.38699 14.5295C3.05198 14.5295 2.77942 14.257 2.77942 13.922C2.77942 13.587 3.05198 13.3144 3.38699 13.3144C3.722 13.3144 3.99456 13.587 3.99456 13.922C3.99456 14.257 3.722 14.5295 3.38699 14.5295Z" fill="black"/>
<path d="M7.00625 12.582C6.26738 12.582 5.66626 13.1832 5.66626 13.922C5.66626 14.6609 6.26738 15.262 7.00625 15.262C7.74512 15.262 8.34624 14.6609 8.34624 13.922C8.34624 13.1832 7.74512 12.582 7.00625 12.582ZM7.00625 14.5295C6.67124 14.5295 6.39868 14.257 6.39868 13.922C6.39868 13.587 6.67124 13.3144 7.00625 13.3144C7.34126 13.3144 7.61382 13.587 7.61382 13.922C7.61382 14.257 7.34126 14.5295 7.00625 14.5295Z" fill="black"/>
<path d="M10.6255 12.582C9.8866 12.582 9.28552 13.1832 9.28552 13.922C9.28552 14.6609 9.88665 15.262 10.6255 15.262C11.3644 15.262 11.9655 14.6609 11.9655 13.922C11.9655 13.1832 11.3643 12.582 10.6255 12.582ZM10.6255 14.5295C10.2905 14.5295 10.0179 14.257 10.0179 13.922C10.0179 13.587 10.2905 13.3144 10.6255 13.3144C10.9605 13.3144 11.233 13.587 11.233 13.922C11.233 14.257 10.9605 14.5295 10.6255 14.5295Z" fill="black"/>
<path d="M17.864 12.582C17.1252 12.582 16.524 13.1832 16.524 13.922C16.524 14.6609 17.1252 15.262 17.864 15.262C18.6029 15.262 19.204 14.6609 19.204 13.922C19.204 13.1832 18.6029 12.582 17.864 12.582ZM17.864 14.5295C17.529 14.5295 17.2565 14.257 17.2565 13.922C17.2565 13.587 17.529 13.3144 17.864 13.3144C18.199 13.3144 18.4716 13.587 18.4716 13.922C18.4716 14.257 18.199 14.5295 17.864 14.5295Z" fill="black"/>
<path d="M21.4834 15.2619C22.2222 15.2619 22.8234 14.6608 22.8234 13.9219C22.8234 13.183 22.2222 12.5819 21.4834 12.5819C20.7446 12.5819 20.1434 13.183 20.1434 13.9219C20.1434 14.6608 20.7445 15.2619 21.4834 15.2619ZM21.4834 13.3144C21.8184 13.3144 22.0909 13.5869 22.0909 13.9219C22.0909 14.257 21.8184 14.5295 21.4834 14.5295C21.1484 14.5295 20.8759 14.257 20.8759 13.9219C20.8759 13.5869 21.1484 13.3144 21.4834 13.3144Z" fill="black"/>
<path d="M3.38699 16.0415C2.64812 16.0415 2.047 16.6426 2.047 17.3815C2.047 18.1204 2.64812 18.7215 3.38699 18.7215C4.12585 18.7215 4.72698 18.1204 4.72698 17.3815C4.72698 16.6426 4.12585 16.0415 3.38699 16.0415ZM3.38699 17.9891C3.05198 17.9891 2.77942 17.7165 2.77942 17.3815C2.77942 17.0465 3.05198 16.7739 3.38699 16.7739C3.722 16.7739 3.99456 17.0465 3.99456 17.3815C3.99456 17.7165 3.722 17.9891 3.38699 17.9891Z" fill="black"/>
<path d="M7.00625 16.0415C6.26738 16.0415 5.66626 16.6426 5.66626 17.3815C5.66626 18.1204 6.26738 18.7215 7.00625 18.7215C7.74512 18.7215 8.34624 18.1204 8.34624 17.3815C8.34624 16.6426 7.74512 16.0415 7.00625 16.0415ZM7.00625 17.9891C6.67124 17.9891 6.39868 17.7165 6.39868 17.3815C6.39868 17.0465 6.67124 16.7739 7.00625 16.7739C7.34126 16.7739 7.61382 17.0465 7.61382 17.3815C7.61382 17.7165 7.34126 17.9891 7.00625 17.9891Z" fill="black"/>
<path d="M10.6255 16.0415C9.8866 16.0415 9.28552 16.6426 9.28552 17.3815C9.28552 18.1204 9.88665 18.7215 10.6255 18.7215C11.3644 18.7215 11.9655 18.1204 11.9655 17.3815C11.9655 16.6426 11.3643 16.0415 10.6255 16.0415ZM10.6255 17.9891C10.2905 17.9891 10.0179 17.7165 10.0179 17.3815C10.0179 17.0465 10.2905 16.7739 10.6255 16.7739C10.9605 16.7739 11.233 17.0465 11.233 17.3815C11.233 17.7165 10.9605 17.9891 10.6255 17.9891Z" fill="black"/>
<path d="M17.864 16.0415C17.1252 16.0415 16.524 16.6426 16.524 17.3815C16.524 18.1204 17.1252 18.7215 17.864 18.7215C18.6029 18.7215 19.204 18.1204 19.204 17.3815C19.204 16.6426 18.6029 16.0415 17.864 16.0415ZM17.864 17.9891C17.529 17.9891 17.2565 17.7165 17.2565 17.3815C17.2565 17.0465 17.529 16.7739 17.864 16.7739C18.199 16.7739 18.4716 17.0465 18.4716 17.3815C18.4716 17.7165 18.199 17.9891 17.864 17.9891Z" fill="black"/>
<path d="M14.2447 9.12244C13.5059 9.12244 12.9048 9.72356 12.9048 10.4624C12.9048 11.2013 13.5059 11.8024 14.2447 11.8024C14.9835 11.8024 15.5847 11.2013 15.5847 10.4624C15.5847 9.72356 14.9836 9.12244 14.2447 9.12244ZM14.2447 11.07C13.9098 11.07 13.6372 10.7974 13.6372 10.4624C13.6372 10.1274 13.9098 9.85486 14.2447 9.85486C14.5797 9.85486 14.8522 10.1274 14.8522 10.4624C14.8522 10.7974 14.5797 11.07 14.2447 11.07Z" fill="black"/>
<path d="M14.2447 12.582C13.5059 12.582 12.9048 13.1832 12.9048 13.922C12.9048 14.6609 13.5059 15.262 14.2447 15.262C14.9835 15.262 15.5847 14.6609 15.5847 13.922C15.5847 13.1832 14.9836 12.582 14.2447 12.582ZM14.2447 14.5295C13.9098 14.5295 13.6372 14.257 13.6372 13.922C13.6372 13.587 13.9098 13.3144 14.2447 13.3144C14.5797 13.3144 14.8522 13.587 14.8522 13.922C14.8522 14.257 14.5797 14.5295 14.2447 14.5295Z" fill="black"/>
<path d="M14.2447 16.0415C13.5059 16.0415 12.9048 16.6426 12.9048 17.3815C12.9048 18.1204 13.5059 18.7215 14.2447 18.7215C14.9835 18.7215 15.5847 18.1204 15.5847 17.3815C15.5847 16.6426 14.9836 16.0415 14.2447 16.0415ZM14.2447 17.9891C13.9098 17.9891 13.6372 17.7165 13.6372 17.3815C13.6372 17.0465 13.9098 16.7739 14.2447 16.7739C14.5797 16.7739 14.8522 17.0465 14.8522 17.3815C14.8522 17.7165 14.5797 17.9891 14.2447 17.9891Z" fill="black"/>
<path d="M22.8234 17.3815C22.8234 16.6426 22.2222 16.0415 21.4834 16.0415C20.7446 16.0415 20.1434 16.6426 20.1434 17.3815C20.1434 18.1204 20.7446 18.7215 21.4834 18.7215C22.2222 18.7215 22.8234 18.1204 22.8234 17.3815ZM20.8758 17.3815C20.8758 17.0465 21.1484 16.7739 21.4833 16.7739C21.8183 16.7739 22.0909 17.0465 22.0909 17.3815C22.0909 17.7165 21.8183 17.9891 21.4833 17.9891C21.1484 17.9891 20.8758 17.7165 20.8758 17.3815Z" fill="black"/>
<path d="M3.38699 19.5011C2.64812 19.5011 2.047 20.1022 2.047 20.8411C2.047 21.58 2.64812 22.1811 3.38699 22.1811C4.12585 22.1811 4.72698 21.58 4.72698 20.8411C4.72698 20.1022 4.12585 19.5011 3.38699 19.5011ZM3.38699 21.4487C3.05198 21.4487 2.77942 21.1761 2.77942 20.8411C2.77942 20.5061 3.05198 20.2335 3.38699 20.2335C3.722 20.2335 3.99456 20.5061 3.99456 20.8411C3.99456 21.1761 3.722 21.4487 3.38699 21.4487Z" fill="black"/>
<path d="M7.00625 19.5011C6.26738 19.5011 5.66626 20.1022 5.66626 20.8411C5.66626 21.58 6.26738 22.1811 7.00625 22.1811C7.74512 22.1811 8.34624 21.58 8.34624 20.8411C8.34624 20.1022 7.74512 19.5011 7.00625 19.5011ZM7.00625 21.4487C6.67124 21.4487 6.39868 21.1761 6.39868 20.8411C6.39868 20.5061 6.67124 20.2335 7.00625 20.2335C7.34126 20.2335 7.61382 20.5061 7.61382 20.8411C7.61382 21.1761 7.34126 21.4487 7.00625 21.4487Z" fill="black"/>
<path d="M10.6255 19.5011C9.8866 19.5011 9.28552 20.1022 9.28552 20.8411C9.28552 21.58 9.88665 22.1811 10.6255 22.1811C11.3644 22.1811 11.9655 21.58 11.9655 20.8411C11.9655 20.1022 11.3643 19.5011 10.6255 19.5011ZM10.6255 21.4487C10.2905 21.4487 10.0179 21.1761 10.0179 20.8411C10.0179 20.5061 10.2905 20.2335 10.6255 20.2335C10.9605 20.2335 11.233 20.5061 11.233 20.8411C11.233 21.1761 10.9605 21.4487 10.6255 21.4487Z" fill="black"/>
</g>
<defs>
<clipPath id="clip0_3806_4487">
<rect width="25" height="25" fill="white"/>
</clipPath>
</defs>
</svg>
