<svg width="29" height="36" viewBox="0 0 29 36" fill="none" xmlns="http://www.w3.org/2000/svg">
<path d="M25.0321 12.643C27.0864 11.4988 28.3625 9.32876 28.3625 6.97984C28.3625 3.26511 25.2584 0.312237 21.5323 0.509592C18.2074 0.68514 15.5341 3.39786 15.4083 6.72965C15.3744 7.62673 15.5243 8.49887 15.8322 9.30305C15.1605 9.1988 14.4799 9.14507 13.7981 9.14507C6.54527 9.14507 0.607406 15.0242 0.620872 22.3499C0.634818 29.6614 6.58007 35.5002 13.7981 35.5002C21.0643 35.5002 26.9758 29.5887 26.9758 22.3227C26.9758 19.3128 25.9465 16.391 24.0515 14.0461C24.1431 13.745 24.2952 13.0536 25.0321 12.643ZM1.64613 22.3467C1.6369 17.884 4.1345 13.6001 8.31962 11.4774C8.37212 11.6126 8.37055 11.8305 8.1965 12.195C7.79188 13.0428 8.00735 13.8829 8.19753 14.6241C8.4156 15.4744 8.50925 15.9367 8.07523 16.3356C7.58906 16.7824 7.03254 16.7555 6.44349 16.7271C5.80685 16.696 5.01388 16.6578 4.56161 17.4368C4.00625 18.3933 4.7591 19.0316 5.20891 19.4129C5.47216 19.636 5.74423 19.8668 5.74423 20.0628C5.74423 20.177 5.28171 20.3814 5.03329 20.4912C4.38674 20.7768 3.40961 21.2085 3.40961 22.296C3.40961 22.6235 3.3582 22.9365 3.31281 23.2126C3.22429 23.7516 3.14061 24.2607 3.48166 24.6705C3.81608 25.0721 4.39372 25.1342 4.85959 25.1433C5.14957 25.149 5.47558 25.1402 5.82073 25.1309C7.88875 25.0751 9.63356 25.1372 10.0289 26.4684C10.3299 27.4827 10.0211 27.9747 9.59357 28.6557C9.2407 29.2178 8.84066 29.8549 8.79021 30.8301C8.7226 32.1369 9.46266 33.1389 9.90563 33.8357C5.10856 32.2093 1.65645 27.6695 1.64613 22.3467ZM25.3973 18.7031C24.4142 18.9436 24.0135 19.5902 23.876 19.894C23.6374 20.4214 23.6662 21.0121 23.9476 21.364C24.0878 21.5392 24.2714 22.1654 24.1381 22.7891C24.0445 23.2271 23.8233 23.5385 23.4807 23.7147C22.3689 24.2864 22.1671 25.7274 22.0335 26.681C21.9943 26.9614 22.1898 27.2206 22.4702 27.2599C22.7502 27.2992 23.0098 27.1037 23.0491 26.8233C23.187 25.8388 23.3596 24.93 23.9496 24.6266C24.5702 24.3075 24.9822 23.7462 25.1409 23.0034C25.3121 22.2023 25.1458 21.2279 24.7543 20.7309C24.7318 20.6791 24.7147 20.4725 24.8523 20.2353C25.0066 19.9692 25.2877 19.7839 25.6621 19.6954C25.8523 20.553 25.9505 21.4338 25.9505 22.3227C25.9505 29.0233 20.499 34.4748 13.7982 34.4748C12.9147 34.4748 12.0532 34.3792 11.2227 34.1992C10.9619 33.2281 9.74294 32.2623 9.81431 30.8829C9.85095 30.174 10.1478 29.7013 10.4621 29.2007C10.9228 28.4669 11.445 27.6351 11.0119 26.1764C10.3606 23.9824 7.61209 24.0566 5.79311 24.1057C5.4602 24.1146 5.14595 24.123 4.87982 24.1179C4.38387 24.1082 4.27491 24.0185 4.27286 24.0185C4.23314 23.9368 4.28831 23.6009 4.32481 23.3786C4.37403 23.0794 4.43514 22.707 4.43514 22.2958C4.43514 21.9176 4.75944 21.733 5.44776 21.4289C6.03674 21.1687 6.76977 20.8449 6.76977 20.0626C6.76977 19.3915 6.27211 18.9695 5.87213 18.6305C5.32403 18.1659 5.358 18.1075 5.44858 17.9515C5.57026 17.7418 5.75968 17.7203 6.39413 17.751C7.0579 17.7832 7.96763 17.8272 8.76929 17.0903C9.67533 16.2576 9.40674 15.2105 9.19093 14.3692C9.02995 13.7414 8.87784 13.1484 9.12209 12.6365C9.45781 11.9333 9.41638 11.4164 9.25382 11.0527C10.6584 10.4842 12.1923 10.1703 13.7983 10.1703C14.6778 10.1703 15.5554 10.2652 16.4101 10.4524C16.6463 10.8244 16.921 11.1726 17.231 11.4914C16.3033 11.5876 15.8 11.9864 15.5617 12.2536C15.2115 12.6462 15.0576 13.1596 15.1501 13.627C15.1877 13.8167 15.1595 13.9977 15.0707 14.1367L15.0659 14.1442C14.9451 14.3334 14.7355 14.4457 14.5223 14.4391C13.9754 14.4201 13.5551 14.6404 13.2686 15.0918C12.8612 15.7337 12.8658 16.4912 13.2804 17.0215C13.521 17.3292 14.2591 17.9858 15.911 17.435C16.9643 17.084 17.8659 17.4041 18.2924 17.877C18.3892 17.9843 18.6016 18.2624 18.4832 18.5241C18.1638 19.2303 16.7433 19.1221 15.8365 18.8198C15.0464 18.5564 13.5651 18.2252 12.5237 18.9656C11.8676 19.4319 11.5278 20.216 11.5137 21.296C11.4764 24.123 11.9009 25.5671 14.3243 25.6138C14.6555 25.6202 14.9604 25.617 15.2553 25.614C16.8339 25.5982 17.183 25.6581 17.2899 26.3351C17.3438 26.6762 17.3417 27.1679 17.3396 27.6883C17.333 29.3005 17.3233 31.5434 19.2537 31.5434C20.0599 31.5434 21.1605 31.1082 22.2232 29.2791C22.3655 29.0343 22.2824 28.7206 22.0376 28.5783C21.7926 28.436 21.4789 28.5191 21.3367 28.764C20.8404 29.618 20.0534 30.6146 19.1186 30.5105C18.4112 30.4319 18.3589 29.1877 18.365 27.6925C18.3673 27.1296 18.3695 26.5978 18.3028 26.1751C18.1866 25.439 17.798 24.9575 17.1481 24.7439C16.6324 24.5744 15.9894 24.581 15.2447 24.5886C14.9574 24.5917 14.6601 24.5947 14.3441 24.5886C13.003 24.5628 12.4999 24.2734 12.5389 21.3095C12.5486 20.5749 12.7433 20.0675 13.1178 19.8013C13.8347 19.2916 15.1319 19.6658 15.5123 19.7926C16.9865 20.284 18.8375 20.2289 19.4174 18.9468C19.6727 18.3825 19.5368 17.7258 19.0539 17.1903C18.4036 16.4694 17.0796 15.9648 15.5867 16.4622C14.7435 16.7433 14.2597 16.6092 14.0882 16.3899C13.9443 16.2059 13.9624 15.912 14.1343 15.6412C14.2243 15.4993 14.3066 15.458 14.4877 15.4639C15.0662 15.4835 15.6154 15.1891 15.9303 14.6959L15.9351 14.6884C16.1666 14.3259 16.245 13.8782 16.156 13.428C16.1325 13.3092 16.1651 13.1176 16.3269 12.9362C16.5015 12.7403 16.9485 12.4242 17.978 12.5085C18.1904 12.5259 18.3805 12.5358 18.5543 12.5387C18.7675 12.6664 19.3815 12.9507 19.6335 13.7787L20.3209 16.035C20.5351 16.7384 21.1486 17.1924 21.8833 17.1924C22.6178 17.1924 23.2314 16.7385 23.4457 16.035L23.6832 15.2553C24.4352 16.3077 25.0115 17.4671 25.3973 18.7031ZM23.1517 13.4805C23.0384 13.8525 23.0987 13.6546 22.4645 15.7363C22.3427 16.136 21.9886 16.1671 21.883 16.1671C21.7773 16.1671 21.4232 16.136 21.3015 15.7363L20.6141 13.4801C20.3871 12.7345 19.8924 12.1167 19.2212 11.7408C17.4616 10.7546 16.3538 8.86411 16.4329 6.76834C16.5381 3.98001 18.8017 1.68066 21.5863 1.53362C24.7375 1.36628 27.337 3.86572 27.337 6.97984C27.337 8.95708 26.2626 10.7838 24.5331 11.7473C23.8703 12.1165 23.3797 12.732 23.1517 13.4805Z" fill="#21E786"/>
</svg>
