<svg width="36" height="35" viewBox="0 0 36 35" fill="none" xmlns="http://www.w3.org/2000/svg">
<g clip-path="url(#clip0_3756_9408)">
<path d="M33.5865 14.6125L31.5346 12.9708C31.5264 12.9642 31.5182 12.956 31.51 12.9495L33.4202 12.5672C33.6756 12.5163 33.8594 12.2921 33.8594 12.0312V10.3906C33.8594 10.0887 33.6144 9.84375 33.3125 9.84375H30.5781C30.2763 9.84375 30.0312 10.0887 30.0312 10.3906V11.3488C30.0187 11.3318 30.0061 11.3148 29.9935 11.2979C29.9591 11.2027 29.8978 11.1251 29.8202 11.0633C29.5123 10.6274 29.2487 10.191 29.077 9.81367L28.1527 7.78094C27.5637 6.4843 25.9866 5.46875 24.5625 5.46875H11.4375C10.0134 5.46875 8.43625 6.4843 7.84727 7.78094L6.92359 9.81313C6.75187 10.1905 6.48828 10.6274 6.18039 11.0633C6.10273 11.1251 6.04203 11.2027 6.00703 11.2979C5.99445 11.3148 5.98242 11.3313 5.9693 11.3488V10.3906C5.9693 10.0887 5.7243 9.84375 5.42242 9.84375H2.6875C2.38563 9.84375 2.14062 10.0887 2.14062 10.3906V12.0312C2.14062 12.2921 2.32437 12.5163 2.58031 12.5672L4.49055 12.9495C4.48234 12.956 4.47414 12.9642 4.46594 12.9708L2.41352 14.6125C1.34055 15.4711 0.5 17.22 0.5 18.5938V27.8906C0.5 28.7952 1.23609 29.5312 2.14062 29.5312H6.51562C7.42016 29.5312 8.15625 28.7952 8.15625 27.8906V26.7969H27.8438V27.8906C27.8438 28.7952 28.5798 29.5312 29.4844 29.5312H33.8594C34.7639 29.5312 35.5 28.7952 35.5 27.8906V18.5938C35.5 17.22 34.6595 15.4711 33.5865 14.6125ZM28.617 25.7031L27.363 24.4491C26.8309 23.917 25.8619 23.5156 25.1094 23.5156H10.6172C9.86469 23.5156 8.89563 23.917 8.36352 24.4491L7.10953 25.7031H3.23438C2.32984 25.7031 1.59375 24.967 1.59375 24.0625V21.3281H2.14062V21.875C2.14062 23.0814 3.12172 24.0625 4.32812 24.0625H5.96875C6.27063 24.0625 6.51562 23.8175 6.51562 23.5156C6.51562 23.2138 6.27063 22.9688 5.96875 22.9688H4.32812C3.72492 22.9688 3.23438 22.4782 3.23438 21.875V21.3281H4.32812C4.78203 21.3281 5.4875 21.6202 5.80852 21.9412C5.91516 22.0478 6.05516 22.1014 6.19516 22.1014C6.33516 22.1014 6.47516 22.0478 6.5818 21.9412C6.79563 21.7273 6.79563 21.3817 6.5818 21.1679C6.04969 20.6358 5.08117 20.2344 4.32812 20.2344H1.59375V18.5938C1.59375 18.4007 1.62437 18.1923 1.66758 17.9796C2.01758 18.3449 2.52672 18.5938 3.23438 18.5938H7.60938C7.7543 18.5938 7.8932 18.5363 7.99602 18.4335L8.70312 17.7264L9.41023 18.4335C9.5125 18.5363 9.65195 18.5938 9.79688 18.5938H16.133L17.6134 20.0741C17.72 20.1808 17.86 20.2344 18 20.2344C18.14 20.2344 18.28 20.1808 18.3866 20.0741L19.867 18.5938H26.2031C26.348 18.5938 26.4875 18.5363 26.5898 18.4335L27.2969 17.7264L28.004 18.4335C28.1062 18.5363 28.2457 18.5938 28.3906 18.5938H32.7656C33.4733 18.5938 33.9824 18.3449 34.3324 17.9796C34.3756 18.1923 34.4062 18.4007 34.4062 18.5938V20.2344H31.6719C30.9194 20.2344 29.9503 20.6358 29.4182 21.1679C29.2044 21.3817 29.2044 21.7273 29.4182 21.9412C29.5248 22.0478 29.6648 22.1014 29.8048 22.1014C29.9448 22.1014 30.0848 22.0478 30.1915 21.9412C30.5125 21.6202 31.218 21.3281 31.6719 21.3281H32.7656V21.875C32.7656 22.4782 32.2751 22.9688 31.6719 22.9688H30.0312C29.7294 22.9688 29.4844 23.2138 29.4844 23.5156C29.4844 23.8175 29.7294 24.0625 30.0312 24.0625H31.6719C32.8783 24.0625 33.8594 23.0814 33.8594 21.875V21.3281H34.4062V24.0625C34.4062 24.967 33.6702 25.7031 32.7656 25.7031H28.617ZM27.0705 25.7031H8.65609L9.1368 25.2224C9.45781 24.9014 10.1633 24.6094 10.6172 24.6094H25.1094C25.5633 24.6094 26.2688 24.9014 26.5898 25.2224L27.0705 25.7031ZM6.82188 12.0312H29.1781C29.708 12.7318 30.3134 13.3946 30.851 13.825L31.5089 14.3511L27.6409 15.8982C27.6403 15.8982 27.6403 15.8988 27.6398 15.8988C27.5736 15.9255 27.5112 15.9655 27.4577 16.0191L26.9108 16.5659L25.9767 17.5H19.6406C19.4957 17.5 19.3562 17.5574 19.254 17.6602L18 18.9142L16.746 17.6602C16.6438 17.5574 16.5043 17.5 16.3594 17.5H10.0233L9.08977 16.5665L8.54289 16.0196C8.4893 15.966 8.42695 15.9261 8.36078 15.8993C8.36023 15.8993 8.36023 15.8988 8.35969 15.8988L4.49164 14.3516L5.14953 13.8255C5.68656 13.3946 6.29195 12.7318 6.82188 12.0312ZM33.8271 16.6354C33.7172 17.2069 33.3628 17.5 32.7656 17.5H28.617L28.0702 16.9531L28.1511 16.8722L32.4905 15.1364L32.9029 15.4667C33.2496 15.744 33.5695 16.1656 33.8271 16.6354ZM31.125 10.9375H32.7656V11.5828L31.125 11.9109V10.9375ZM7.91836 10.2659L8.84203 8.23375C9.25437 7.32758 10.4427 6.5625 11.4375 6.5625H24.5625C25.5573 6.5625 26.7456 7.32758 27.1574 8.2332L28.0816 10.2659C28.1779 10.477 28.3031 10.7051 28.4404 10.9375H7.55961C7.69688 10.7051 7.82266 10.477 7.91836 10.2659ZM3.23438 10.9375H4.875V11.9109L3.23438 11.5828V10.9375ZM3.09656 15.4667L3.50891 15.1364L7.84891 16.8722L7.92984 16.9531L7.38297 17.5H3.23438C2.63719 17.5 2.28281 17.2069 2.17289 16.6354C2.43047 16.1656 2.74984 15.744 3.09656 15.4667ZM6.51562 28.4375H2.14062C1.8393 28.4375 1.59375 28.192 1.59375 27.8906V26.2363C2.05203 26.583 2.61641 26.7969 3.23438 26.7969H7.0625V27.8906C7.0625 28.192 6.81695 28.4375 6.51562 28.4375ZM33.8594 28.4375H29.4844C29.183 28.4375 28.9375 28.192 28.9375 27.8906V26.7969H32.7656C33.3836 26.7969 33.948 26.583 34.4062 26.2363V27.8906C34.4062 28.192 34.1607 28.4375 33.8594 28.4375Z" fill="#21E786"/>
</g>
<defs>
<clipPath id="clip0_3756_9408">
<rect width="35" height="35" fill="white" transform="translate(0.5)"/>
</clipPath>
</defs>
</svg>
