<svg width="35" height="36" viewBox="0 0 35 36" fill="none" xmlns="http://www.w3.org/2000/svg">
<g clip-path="url(#clip0_3756_9417)">
<path d="M29.8685 6.71366C26.5632 3.40835 22.1686 1.58807 17.4941 1.58807C12.8197 1.58807 8.42504 3.40835 5.1198 6.71366C1.81455 10.019 -0.00585938 14.4136 -0.00585938 19.0881C-0.00585938 24.0998 2.14924 28.8798 5.90689 32.2023C6.12188 32.3925 6.45041 32.3722 6.64059 32.1572C6.83076 31.9421 6.8106 31.6136 6.59547 31.4235C3.06095 28.2982 1.03382 23.8021 1.03382 19.0881C1.03382 14.6914 2.74595 10.5578 5.85493 7.4488C8.96392 4.33981 13.0975 2.62768 17.4941 2.62768C21.8908 2.62768 26.0244 4.33981 29.1334 7.4488C32.2424 10.5578 33.9545 14.6913 33.9545 19.0881C33.9545 23.8022 31.9274 28.2982 28.3928 31.4234C28.1777 31.6136 28.1575 31.942 28.3477 32.1571C28.4504 32.2733 28.5936 32.3326 28.7373 32.3326C28.8597 32.3326 28.9825 32.2896 29.0815 32.2022C32.839 28.8798 34.9941 24.0998 34.9941 19.0881C34.9941 14.4136 33.1738 10.019 29.8685 6.71366Z" fill="#21E786"/>
<path d="M24.4437 29.6842H12.7913C12.5043 29.6842 12.2715 29.917 12.2715 30.204C12.2715 30.4911 12.5043 30.7238 12.7913 30.7238H24.4436C24.8533 30.7238 25.1866 31.0571 25.1866 31.4668V32.6295C25.1866 33.0392 24.8533 33.3725 24.4436 33.3725H10.5443C10.1346 33.3725 9.80133 33.0391 9.80133 32.6295V31.4668C9.80133 31.0571 10.1346 30.7238 10.5443 30.7238H11.0587C11.3457 30.7238 11.5785 30.4911 11.5785 30.204C11.5785 29.917 11.3457 29.6842 11.0587 29.6842H10.5443C9.56132 29.6842 8.76172 30.4839 8.76172 31.4668V32.6295C8.76172 33.6125 9.56139 34.412 10.5443 34.412H24.4437C25.4266 34.412 26.2263 33.6123 26.2263 32.6295V31.4668C26.2262 30.4839 25.4266 29.6842 24.4437 29.6842Z" fill="#21E786"/>
<path d="M26.3127 7.30199C23.7521 5.38314 20.7027 4.3689 17.494 4.3689C11.573 4.3689 6.25228 7.89111 3.93886 13.3424C3.83407 13.5893 3.93435 13.8754 4.1704 14.0029C4.24867 14.0451 4.33336 14.0653 4.41697 14.0653C4.58561 14.0653 4.75008 13.9832 4.84968 13.8341C7.09392 10.4733 10.8426 8.4669 14.8775 8.4669C17.8155 8.4669 20.6453 9.53625 22.8456 11.4779C23.0608 11.6678 23.3895 11.6474 23.5793 11.4321C23.7692 11.2169 23.7487 10.8884 23.5335 10.6984C21.1431 8.58899 18.0689 7.42729 14.8775 7.42729C12.2431 7.42729 9.72077 8.21486 7.59834 9.63571C10.1317 6.98214 13.6789 5.40857 17.4942 5.40857C20.4762 5.40857 23.3101 6.35098 25.6893 8.13399C25.9191 8.30612 26.2448 8.25943 26.4171 8.02975C26.5891 7.79999 26.5424 7.47412 26.3127 7.30199Z" fill="#21E786"/>
<path d="M29.0108 9.92115C28.8319 9.69666 28.505 9.65968 28.2803 9.83857C28.0559 10.0175 28.019 10.3445 28.1979 10.5691C30.0365 12.8761 31.0565 15.632 31.1642 18.5683H27.8215C27.6026 17.0992 27.1384 15.691 26.4388 14.3763C26.304 14.1229 25.9894 14.0266 25.7357 14.1616C25.4823 14.2964 25.3861 14.6112 25.521 14.8646C26.2318 16.2005 26.6785 17.6412 26.8489 19.1465C26.8786 19.4094 27.1009 19.6079 27.3654 19.6079H31.6933C31.9804 19.6079 32.2131 19.3751 32.2131 19.0881C32.2132 15.7197 31.1058 12.5498 29.0108 9.92115Z" fill="#21E786"/>
<path d="M28.1508 7.57277C27.9257 7.42491 27.625 7.47338 27.4579 7.68454L18.4378 19.0784C18.2596 19.3035 18.2976 19.6303 18.5227 19.8086C18.7479 19.9869 19.0747 19.9488 19.253 19.7237L24.6341 12.9264L18.5521 24.2533C18.5061 24.3287 18.4273 24.4514 18.3889 24.4996C18.1987 24.7386 17.9269 24.8891 17.6233 24.9235C17.3199 24.9582 17.0212 24.8722 16.7822 24.682C16.5432 24.4917 16.3927 24.2199 16.3582 23.9163C16.3238 23.6129 16.4095 23.3142 16.6007 23.0741L18.2265 21.0205C18.4046 20.7954 18.3666 20.4684 18.1415 20.2902C17.9165 20.1121 17.5895 20.1501 17.4113 20.3751L15.7865 22.4276C15.4233 22.8838 15.2595 23.4541 15.3252 24.0335C15.391 24.6129 15.6784 25.132 16.1347 25.4952C16.5249 25.8059 16.9987 25.9707 17.4902 25.9707C17.5732 25.9707 17.6568 25.966 17.7406 25.9565C18.32 25.8907 18.8391 25.6032 19.2022 25.1471C19.2979 25.0268 19.4239 24.8207 19.4482 24.7805C19.4528 24.7729 19.4573 24.7652 19.4615 24.7573L28.3234 8.25309C28.4507 8.01581 28.3759 7.72057 28.1508 7.57277Z" fill="#21E786"/>
<path d="M17.9952 23.3927C17.7407 23.0053 17.1156 23.1451 17.0492 23.6046C17.0176 23.823 17.1307 24.0471 17.3299 24.1449C17.5227 24.2397 17.7575 24.2086 17.916 24.0626C18.1008 23.8924 18.1365 23.6013 17.9952 23.3927Z" fill="#21E786"/>
</g>
<defs>
<clipPath id="clip0_3756_9417">
<rect width="35" height="35" fill="white" transform="translate(-0.00585938 0.5)"/>
</clipPath>
</defs>
</svg>
