<svg width="35" height="35" viewBox="0 0 35 35" fill="none" xmlns="http://www.w3.org/2000/svg">
<g clip-path="url(#clip0_3756_9396)">
<path d="M15.3111 28.4186H17.3989C17.6826 28.4186 17.9126 28.1886 17.9126 27.9049C17.9126 27.6212 17.6826 27.3912 17.3989 27.3912H15.3111C15.0274 27.3912 14.7974 27.6212 14.7974 27.9049C14.7974 28.1887 15.0273 28.4186 15.3111 28.4186Z" fill="#21E786"/>
<path d="M33.4592 31.9242H32.4516V27.3205C32.4516 26.0768 31.4381 25.0649 30.1924 25.0649H28.4536L26.8061 22.2039C26.1273 21.0251 24.8594 20.2929 23.4973 20.2929H16.2391C15.2479 20.2929 14.3085 20.6705 13.594 21.3562L9.67621 25.1161L4.60654 26.4583C3.39125 26.78 2.5425 27.8813 2.5425 29.1365V31.9242H1.53488C0.686953 31.9242 -0.00292969 32.6141 -0.00292969 33.4621C-0.00292969 34.3101 0.686953 35 1.53495 35H11.1766C11.4603 35 11.6904 34.7701 11.6904 34.4863C11.6904 34.2025 11.4603 33.9726 11.1766 33.9726H1.53495C1.25345 33.9726 1.02444 33.7436 1.02444 33.4621C1.02444 33.1806 1.25345 32.9516 1.53495 32.9516H33.4592C33.7407 32.9516 33.9697 33.1806 33.9697 33.4621C33.9697 33.7436 33.7407 33.9726 33.4592 33.9726H13.2314C12.9478 33.9726 12.7177 34.2026 12.7177 34.4863C12.7177 34.77 12.9478 35 13.2314 35H33.4592C34.3072 35 34.9971 34.3101 34.9971 33.4621C34.9971 32.6141 34.3072 31.9242 33.4592 31.9242ZM31.4242 27.3205V27.831H30.7491C30.4722 27.831 30.2469 27.6067 30.2469 27.331V26.0951C30.9008 26.1238 31.4242 26.6616 31.4242 27.3205ZM14.3054 22.0975C14.8276 21.5963 15.5143 21.3203 16.2391 21.3203H19.3469V25.0649H11.2133L14.3054 22.0975ZM4.86952 27.4514L5.63296 27.2493V27.8042C5.63296 28.1129 5.38078 28.3641 5.07077 28.3641H3.75273C3.97135 27.9245 4.37077 27.5835 4.86952 27.4514ZM3.56994 29.3915H5.07077C5.94728 29.3915 6.66033 28.6795 6.66033 27.8042V26.9773L10.0028 26.0923H22.9819C23.2656 26.0923 23.4956 25.8624 23.4956 25.5786C23.4956 25.2948 23.2656 25.0649 22.9819 25.0649H20.3742V21.3202H23.4973C24.493 21.3202 25.4198 21.8553 25.9157 22.7165L27.2681 25.0649H25.0367C24.753 25.0649 24.523 25.2949 24.523 25.5786C24.523 25.8623 24.7529 26.0923 25.0367 26.0923H28.1567H29.2195V27.3309C29.2195 28.1732 29.9057 28.8583 30.7492 28.8583H31.4243V31.9241H28.859C28.3367 30.6543 27.0826 29.7969 25.683 29.7969C24.2835 29.7969 23.0295 30.6543 22.5071 31.9241H12.9564C12.4341 30.6543 11.18 29.7969 9.78053 29.7969C8.38101 29.7969 7.12688 30.6543 6.60462 31.9241H3.56994V29.3915ZM27.704 31.9242H23.662C24.097 31.2539 24.8535 30.8244 25.683 30.8244C26.5125 30.8244 27.2689 31.2539 27.704 31.9242ZM11.8015 31.9242H7.75948C8.19452 31.2539 8.95099 30.8244 9.78053 30.8244C10.61 30.8244 11.3664 31.2539 11.8015 31.9242Z" fill="#21E786"/>
<path d="M1.53495 3.07583H5.68785V7.36764C5.27674 7.76733 5.02073 8.32522 5.02073 8.94202C5.02073 10.1544 6.00873 11.1408 7.22307 11.1408C7.2392 11.1408 7.25513 11.1399 7.27112 11.1396L10.2301 14.0924C10.2301 14.0994 10.2296 14.1063 10.2296 14.1133C10.2296 14.6984 10.458 15.2484 10.8724 15.662L13.5447 18.3287C13.722 18.5002 14.0448 18.5462 14.2704 18.3287L15.1981 17.4029L16.9017 19.103C17.404 19.5694 18.0783 18.8537 17.6274 18.3758L15.9253 16.6772L16.6457 15.9583C16.8162 15.7898 16.863 15.4479 16.6457 15.231L13.9734 12.5644C13.5406 12.1326 12.9705 11.9197 12.4021 11.9251L9.42506 8.95426C9.42506 8.95016 9.4254 8.94605 9.4254 8.94195C9.4254 8.32521 9.16939 7.76727 8.75828 7.36757V3.07583H12.6984C12.9821 3.07583 13.2121 2.8458 13.2121 2.56211C13.2121 2.27842 12.9821 2.04839 12.6984 2.04839H1.53495C1.25345 2.04839 1.02444 1.81938 1.02444 1.53788C1.02444 1.25638 1.25345 1.02737 1.53495 1.02737H33.4592C33.7407 1.02737 33.9697 1.25638 33.9697 1.53788C33.9697 1.81938 33.7407 2.04839 33.4592 2.04839H14.7532C14.4695 2.04839 14.2395 2.27835 14.2395 2.56211C14.2395 2.84587 14.4695 3.07583 14.7532 3.07583H23.0925V10.7413C22.6868 11.1389 22.4345 11.6921 22.4345 12.3032V16.0744C22.4345 16.3581 22.6645 16.5881 22.9482 16.5881H24.1141V18.8454C24.1141 19.1291 24.344 19.3592 24.6278 19.3592C24.9115 19.3592 25.1415 19.1291 25.1415 18.8454V16.5881H26.3074C26.5911 16.5881 26.8211 16.3581 26.8211 16.0744V12.3032C26.8211 11.6921 26.5688 11.1389 26.163 10.7412V3.07583H33.4592C34.3072 3.07583 34.9971 2.38595 34.9971 1.53788C34.9971 0.689883 34.3072 0 33.4592 0H1.53495C0.686953 0 -0.00292969 0.689951 -0.00292969 1.53795C-0.00292969 2.38595 0.686953 3.07583 1.53495 3.07583ZM6.04817 8.94195C6.04817 8.29603 6.57522 7.77055 7.22307 7.77055C7.87091 7.77055 8.39803 8.29603 8.39803 8.94195C8.39803 9.58788 7.87098 10.1134 7.22307 10.1134C6.57522 10.1134 6.04817 9.58788 6.04817 8.94195ZM15.5556 15.5947L13.9075 17.2393L11.5981 14.9347C10.5244 13.7354 12.1841 12.2771 13.2477 13.2917L15.5556 15.5947ZM11.2725 12.2493C11.0152 12.4063 10.7387 12.6638 10.555 12.965L8.39051 10.8051C8.68035 10.6234 8.92521 10.3767 9.1037 10.085L11.2725 12.2493ZM7.73091 6.80285C7.44537 6.73477 7.06522 6.71733 6.71522 6.80285V3.07583H7.73091V6.80285ZM25.7936 15.5606H23.4618V12.3031C23.4618 11.6622 23.9849 11.1407 24.6277 11.1407C25.2706 11.1407 25.7936 11.6622 25.7936 12.3031V15.5606H25.7936ZM25.1356 10.1732C24.8501 10.105 24.4699 10.0874 24.1199 10.1732V3.07583H25.1356V10.1732Z" fill="#21E786"/>
</g>
<defs>
<clipPath id="clip0_3756_9396">
<rect width="35" height="35" fill="white" transform="translate(-0.00292969)"/>
</clipPath>
</defs>
</svg>
