<svg width="35" height="36" viewBox="0 0 35 36" fill="none" xmlns="http://www.w3.org/2000/svg">
<g clip-path="url(#clip0_3646_681)">
<path d="M28.0321 12.643C30.0864 11.4988 31.3625 9.32876 31.3625 6.97984C31.3625 3.26511 28.2584 0.312237 24.5323 0.509592C21.2074 0.68514 18.5341 3.39786 18.4083 6.72965C18.3744 7.62673 18.5243 8.49887 18.8322 9.30305C18.1605 9.1988 17.4799 9.14507 16.7981 9.14507C9.54527 9.14507 3.60741 15.0242 3.62087 22.3499C3.63482 29.6614 9.58007 35.5002 16.7981 35.5002C24.0643 35.5002 29.9758 29.5887 29.9758 22.3227C29.9758 19.3128 28.9465 16.391 27.0515 14.0461C27.1431 13.745 27.2952 13.0536 28.0321 12.643ZM4.64613 22.3467C4.6369 17.884 7.1345 13.6001 11.3196 11.4774C11.3721 11.6126 11.3705 11.8305 11.1965 12.195C10.7919 13.0428 11.0074 13.8829 11.1975 14.6241C11.4156 15.4744 11.5092 15.9367 11.0752 16.3356C10.5891 16.7824 10.0325 16.7555 9.44349 16.7271C8.80685 16.696 8.01388 16.6578 7.56161 17.4368C7.00625 18.3933 7.7591 19.0316 8.20891 19.4129C8.47216 19.636 8.74423 19.8668 8.74423 20.0628C8.74423 20.177 8.28171 20.3814 8.03329 20.4912C7.38674 20.7768 6.40961 21.2085 6.40961 22.296C6.40961 22.6235 6.3582 22.9365 6.31281 23.2126C6.22429 23.7516 6.14061 24.2607 6.48166 24.6705C6.81608 25.0721 7.39372 25.1342 7.85959 25.1433C8.14957 25.149 8.47558 25.1402 8.82073 25.1309C10.8887 25.0751 12.6336 25.1372 13.0289 26.4684C13.3299 27.4827 13.0211 27.9747 12.5936 28.6557C12.2407 29.2178 11.8407 29.8549 11.7902 30.8301C11.7226 32.1369 12.4627 33.1389 12.9056 33.8357C8.10856 32.2093 4.65645 27.6695 4.64613 22.3467ZM28.3973 18.7031C27.4142 18.9436 27.0135 19.5902 26.876 19.894C26.6374 20.4214 26.6662 21.0121 26.9476 21.364C27.0878 21.5392 27.2714 22.1654 27.1381 22.7891C27.0445 23.2271 26.8233 23.5385 26.4807 23.7147C25.3689 24.2864 25.1671 25.7274 25.0335 26.681C24.9943 26.9614 25.1898 27.2206 25.4702 27.2599C25.7502 27.2992 26.0098 27.1037 26.0491 26.8233C26.187 25.8388 26.3596 24.93 26.9496 24.6266C27.5702 24.3075 27.9822 23.7462 28.1409 23.0034C28.3121 22.2023 28.1458 21.2279 27.7543 20.7309C27.7318 20.6791 27.7147 20.4725 27.8523 20.2353C28.0066 19.9692 28.2877 19.7839 28.6621 19.6954C28.8523 20.553 28.9505 21.4338 28.9505 22.3227C28.9505 29.0233 23.499 34.4748 16.7982 34.4748C15.9147 34.4748 15.0532 34.3792 14.2227 34.1992C13.9619 33.2281 12.7429 32.2623 12.8143 30.8829C12.8509 30.174 13.1478 29.7013 13.4621 29.2007C13.9228 28.4669 14.445 27.6351 14.0119 26.1764C13.3606 23.9824 10.6121 24.0566 8.79311 24.1057C8.4602 24.1146 8.14595 24.123 7.87982 24.1179C7.38387 24.1082 7.27491 24.0185 7.27286 24.0185C7.23314 23.9368 7.28831 23.6009 7.32481 23.3786C7.37403 23.0794 7.43514 22.707 7.43514 22.2958C7.43514 21.9176 7.75944 21.733 8.44776 21.4289C9.03674 21.1687 9.76977 20.8449 9.76977 20.0626C9.76977 19.3915 9.27211 18.9695 8.87213 18.6305C8.32403 18.1659 8.358 18.1075 8.44858 17.9515C8.57026 17.7418 8.75968 17.7203 9.39413 17.751C10.0579 17.7832 10.9676 17.8272 11.7693 17.0903C12.6753 16.2576 12.4067 15.2105 12.1909 14.3692C12.0299 13.7414 11.8778 13.1484 12.1221 12.6365C12.4578 11.9333 12.4164 11.4164 12.2538 11.0527C13.6584 10.4842 15.1923 10.1703 16.7983 10.1703C17.6778 10.1703 18.5554 10.2652 19.4101 10.4524C19.6463 10.8244 19.921 11.1726 20.231 11.4914C19.3033 11.5876 18.8 11.9864 18.5617 12.2536C18.2115 12.6462 18.0576 13.1596 18.1501 13.627C18.1877 13.8167 18.1595 13.9977 18.0707 14.1367L18.0659 14.1442C17.9451 14.3334 17.7355 14.4457 17.5223 14.4391C16.9754 14.4201 16.5551 14.6404 16.2686 15.0918C15.8612 15.7337 15.8658 16.4912 16.2804 17.0215C16.521 17.3292 17.2591 17.9858 18.911 17.435C19.9643 17.084 20.8659 17.4041 21.2924 17.877C21.3892 17.9843 21.6016 18.2624 21.4832 18.5241C21.1638 19.2303 19.7433 19.1221 18.8365 18.8198C18.0464 18.5564 16.5651 18.2252 15.5237 18.9656C14.8676 19.4319 14.5278 20.216 14.5137 21.296C14.4764 24.123 14.9009 25.5671 17.3243 25.6138C17.6555 25.6202 17.9604 25.617 18.2553 25.614C19.8339 25.5982 20.183 25.6581 20.2899 26.3351C20.3438 26.6762 20.3417 27.1679 20.3396 27.6883C20.333 29.3005 20.3233 31.5434 22.2537 31.5434C23.0599 31.5434 24.1605 31.1082 25.2232 29.2791C25.3655 29.0343 25.2824 28.7206 25.0376 28.5783C24.7926 28.436 24.4789 28.5191 24.3367 28.764C23.8404 29.618 23.0534 30.6146 22.1186 30.5105C21.4112 30.4319 21.3589 29.1877 21.365 27.6925C21.3673 27.1296 21.3695 26.5978 21.3028 26.1751C21.1866 25.439 20.798 24.9575 20.1481 24.7439C19.6324 24.5744 18.9894 24.581 18.2447 24.5886C17.9574 24.5917 17.6601 24.5947 17.3441 24.5886C16.003 24.5628 15.4999 24.2734 15.5389 21.3095C15.5486 20.5749 15.7433 20.0675 16.1178 19.8013C16.8347 19.2916 18.1319 19.6658 18.5123 19.7926C19.9865 20.284 21.8375 20.2289 22.4174 18.9468C22.6727 18.3825 22.5368 17.7258 22.0539 17.1903C21.4036 16.4694 20.0796 15.9648 18.5867 16.4622C17.7435 16.7433 17.2597 16.6092 17.0882 16.3899C16.9443 16.2059 16.9624 15.912 17.1343 15.6412C17.2243 15.4993 17.3066 15.458 17.4877 15.4639C18.0662 15.4835 18.6154 15.1891 18.9303 14.6959L18.9351 14.6884C19.1666 14.3259 19.245 13.8782 19.156 13.428C19.1325 13.3092 19.1651 13.1176 19.3269 12.9362C19.5015 12.7403 19.9485 12.4242 20.978 12.5085C21.1904 12.5259 21.3805 12.5358 21.5543 12.5387C21.7675 12.6664 22.3815 12.9507 22.6335 13.7787L23.3209 16.035C23.5351 16.7384 24.1486 17.1924 24.8833 17.1924C25.6178 17.1924 26.2314 16.7385 26.4457 16.035L26.6832 15.2553C27.4352 16.3077 28.0115 17.4671 28.3973 18.7031ZM26.1517 13.4805C26.0384 13.8525 26.0987 13.6546 25.4645 15.7363C25.3427 16.136 24.9886 16.1671 24.883 16.1671C24.7773 16.1671 24.4232 16.136 24.3015 15.7363L23.6141 13.4801C23.3871 12.7345 22.8924 12.1167 22.2212 11.7408C20.4616 10.7546 19.3538 8.86411 19.4329 6.76834C19.5381 3.98001 21.8017 1.68066 24.5863 1.53362C27.7375 1.36628 30.337 3.86572 30.337 6.97984C30.337 8.95708 29.2626 10.7838 27.5331 11.7473C26.8703 12.1165 26.3797 12.732 26.1517 13.4805Z" fill="black"/>
<path d="M26.2715 3.53965C26.0086 3.43356 25.7101 3.56057 25.604 3.823C25.4979 4.0855 25.6249 4.3843 25.8874 4.4904C26.9078 4.9026 27.5672 5.87966 27.5672 6.97957C27.5672 8.45955 26.3631 9.66363 24.883 9.66363C23.403 9.66363 22.199 8.45955 22.199 6.97957C22.199 5.87966 22.8584 4.9026 23.8788 4.4904C24.1413 4.38437 24.2682 4.08557 24.1622 3.823C24.0562 3.5605 23.7574 3.43363 23.4948 3.53965C22.0847 4.10922 21.1736 5.45946 21.1736 6.97957C21.1736 9.02495 22.8377 10.689 24.883 10.689C26.9285 10.689 28.5926 9.02495 28.5926 6.97957C28.5926 5.45946 27.6815 4.10922 26.2715 3.53965Z" fill="black"/>
</g>
<defs>
<clipPath id="clip0_3646_681">
<rect width="35" height="35" fill="white" transform="translate(-0.00830078 0.5)"/>
</clipPath>
</defs>
</svg>
