<svg width="35" height="36" viewBox="0 0 35 36" fill="none" xmlns="http://www.w3.org/2000/svg">
<g clip-path="url(#clip0_3646_692)">
<path d="M34.4854 11.5893L27.2951 4.39892C27.0948 4.1987 26.7702 4.1987 26.57 4.39892C26.3697 4.59915 26.3697 4.92378 26.57 5.12394L33.7603 12.3143C34.0247 12.5788 34.0247 13.0089 33.7603 13.2734L32.5216 14.512L20.9715 2.96188L22.2102 1.72315C22.4746 1.4588 22.9048 1.4588 23.1691 1.72315L24.8754 3.42932C25.0756 3.62954 25.4002 3.62954 25.6004 3.42932C25.8007 3.2291 25.8007 2.90446 25.6004 2.7043L23.8942 0.998132C23.23 0.334024 22.1494 0.333888 21.4851 0.998132L11.2967 11.187C10.6326 11.8511 10.6326 12.9318 11.2967 13.596L12.5193 14.8186C12.6721 14.9715 12.9045 15.012 13.0999 14.9201L15.1186 13.9716C15.4521 13.815 15.8511 13.8847 16.1114 14.1451L17.2444 15.2781L9.51659 22.144C9.1506 22.4616 8.64659 22.5815 8.16869 22.4645C7.16136 22.2188 6.12579 22.2192 5.14306 22.4412L6.10617 21.4781C6.30639 21.2778 6.30639 20.9532 6.10617 20.7531C5.90594 20.5528 5.58137 20.5528 5.38108 20.7531L1.99718 24.137C-0.532378 26.5613 -0.688168 30.6972 1.67589 33.3039C2.90553 34.6697 4.59113 35.4485 6.42219 35.4967C8.19412 35.5561 10.0274 34.8372 11.29 33.5448L14.7314 30.1033C14.9317 29.9031 14.9317 29.5785 14.7314 29.3783C14.5311 29.1781 14.2066 29.1781 14.0063 29.3783L13.0555 30.3291C13.2724 29.3525 13.2663 28.322 13.0165 27.3055C12.9006 26.8341 13.0212 26.3335 13.3353 25.9713L18.9648 19.6357C19.1528 19.424 19.1337 19.0999 18.922 18.9119C18.7103 18.7238 18.3862 18.7429 18.1983 18.9546L12.5647 25.2949C12.0287 25.913 11.8255 26.7561 12.0208 27.5503C12.4898 29.459 11.9453 31.4268 10.5649 32.8198C9.51783 33.8863 7.99028 34.5221 6.44912 34.4717C4.90209 34.431 3.47756 33.7726 2.43802 32.6179C0.457049 30.4324 0.557196 26.9323 2.71604 24.8684C4.088 23.5458 6.06433 23.0069 7.92547 23.4608C8.72568 23.6565 9.57176 23.4539 10.1932 22.9147L17.9708 16.0046L21.3385 19.3722C21.599 19.6327 21.6687 20.0316 21.512 20.365L20.5635 22.3837C20.4716 22.5793 20.5122 22.8114 20.6649 22.9643L21.8875 24.1869C22.2197 24.519 22.6558 24.685 23.0921 24.685C23.5283 24.685 23.9646 24.5189 24.2966 24.1869L34.4855 13.9985C35.1496 13.3342 35.1496 12.2535 34.4854 11.5893ZM23.5714 23.4617C23.3071 23.7261 22.8769 23.7261 22.6125 23.4617L21.6446 22.4937L22.44 20.801C22.7799 20.0777 22.6285 19.2121 22.0635 18.6471L16.8365 13.4201C16.2714 12.8551 15.4059 12.7038 14.6826 13.0435L12.9897 13.839L12.0218 12.871C11.8937 12.7429 11.8232 12.5726 11.8232 12.3915C11.8232 12.2104 11.8937 12.0401 12.0218 11.9121L20.2465 3.68737L31.7962 15.2371L23.5714 23.4617Z" fill="black"/>
<path d="M3.45964 25.7496C2.62292 26.5864 2.16211 27.7005 2.16211 28.8868C2.16211 30.073 2.62292 31.1871 3.45964 32.0239C4.32466 32.8889 5.46059 33.3213 6.59686 33.3213C7.73285 33.3213 8.86919 32.8887 9.73407 32.0239C11.4639 30.2941 11.4639 27.4794 9.73407 25.7496C8.00417 24.0197 5.18954 24.0198 3.45964 25.7496ZM9.00892 31.2989C7.67905 32.6289 5.51479 32.629 4.18479 31.2989C3.54167 30.6558 3.1875 29.7992 3.1875 28.8868C3.1875 27.9744 3.54167 27.1178 4.18479 26.4747C4.84979 25.8097 5.72336 25.4772 6.59686 25.4772C7.47035 25.4772 8.34398 25.8097 9.00892 26.4747C10.339 27.8047 10.339 29.9688 9.00892 31.2989Z" fill="black"/>
<path d="M22.7462 9.79108C21.9593 9.79108 21.2195 10.0975 20.663 10.654C19.5144 11.8027 19.5144 13.6718 20.663 14.8204C21.2195 15.3769 21.9593 15.6833 22.7462 15.6833C23.5332 15.6833 24.2731 15.3769 24.8295 14.8204H24.8296C25.9782 13.6717 25.9782 11.8026 24.8295 10.654C24.2731 10.0975 23.5332 9.79108 22.7462 9.79108ZM24.1044 14.0954C23.7416 14.4582 23.2593 14.6579 22.7462 14.6579C22.2332 14.6579 21.7509 14.4582 21.3882 14.0954C20.6393 13.3464 20.6393 12.1279 21.3882 11.3791C21.7509 11.0163 22.2332 10.8165 22.7462 10.8165C23.2593 10.8165 23.7417 11.0163 24.1044 11.3791C24.8533 12.1279 24.8533 13.3464 24.1044 14.0954Z" fill="black"/>
<path d="M20.4092 6.96118C20.6923 6.96118 20.9219 6.73164 20.9219 6.44849C20.9219 6.16533 20.6923 5.93579 20.4092 5.93579C20.126 5.93579 19.8965 6.16533 19.8965 6.44849C19.8965 6.73164 20.126 6.96118 20.4092 6.96118Z" fill="black"/>
<path d="M29.0352 15.5873C29.3183 15.5873 29.5479 15.3577 29.5479 15.0746C29.5479 14.7914 29.3183 14.5619 29.0352 14.5619C28.752 14.5619 28.5225 14.7914 28.5225 15.0746C28.5225 15.3577 28.752 15.5873 29.0352 15.5873Z" fill="black"/>
</g>
<defs>
<clipPath id="clip0_3646_692">
<rect width="35" height="35" fill="white" transform="translate(-0.00976562 0.5)"/>
</clipPath>
</defs>
</svg>
