<svg width="36" height="36" viewBox="0 0 36 36" fill="none" xmlns="http://www.w3.org/2000/svg">
<g clip-path="url(#clip0_3636_726)">
<mask id="mask0_3636_726" style="mask-type:luminance" maskUnits="userSpaceOnUse" x="0" y="0" width="36" height="36">
<path d="M0.5 0.500004H35.5V35.5H0.5V0.500004Z" fill="white"/>
</mask>
<g mask="url(#mask0_3636_726)">
<path d="M29.0059 30.373H6.99414C6.23904 30.373 5.62695 29.761 5.62695 29.0059V6.99414C5.62695 6.23905 6.23904 5.62696 6.99414 5.62696H29.0059C29.761 5.62696 30.373 6.23905 30.373 6.99414V29.0059C30.373 29.761 29.761 30.373 29.0059 30.373Z" stroke="black" stroke-width="1.3" stroke-miterlimit="10" stroke-linecap="round" stroke-linejoin="round"/>
<path d="M26.2715 26.2715H9.72852V9.72852H26.2715V26.2715Z" stroke="black" stroke-width="1.3" stroke-miterlimit="10" stroke-linecap="round" stroke-linejoin="round"/>
<path d="M18 1.52539V5.62695" stroke="black" stroke-width="1.3" stroke-miterlimit="10" stroke-linecap="round" stroke-linejoin="round"/>
<path d="M18 30.373V34.4746" stroke="black" stroke-width="1.3" stroke-miterlimit="10" stroke-linecap="round" stroke-linejoin="round"/>
<path d="M13.8984 1.52539V5.62695" stroke="black" stroke-width="1.3" stroke-miterlimit="10" stroke-linecap="round" stroke-linejoin="round"/>
<path d="M13.8984 30.373V34.4746" stroke="black" stroke-width="1.3" stroke-miterlimit="10" stroke-linecap="round" stroke-linejoin="round"/>
<path d="M9.79688 1.52539V5.62695" stroke="black" stroke-width="1.3" stroke-miterlimit="10" stroke-linecap="round" stroke-linejoin="round"/>
<path d="M9.79688 30.373V34.4746" stroke="black" stroke-width="1.3" stroke-miterlimit="10" stroke-linecap="round" stroke-linejoin="round"/>
<path d="M22.1016 1.52539V5.62695" stroke="black" stroke-width="1.3" stroke-miterlimit="10" stroke-linecap="round" stroke-linejoin="round"/>
<path d="M22.1016 30.373V34.4746" stroke="black" stroke-width="1.3" stroke-miterlimit="10" stroke-linecap="round" stroke-linejoin="round"/>
<path d="M26.2031 1.52539V5.62695" stroke="black" stroke-width="1.3" stroke-miterlimit="10" stroke-linecap="round" stroke-linejoin="round"/>
<path d="M26.2031 30.373V34.4746" stroke="black" stroke-width="1.3" stroke-miterlimit="10" stroke-linecap="round" stroke-linejoin="round"/>
<path d="M1.52539 18H5.62695" stroke="black" stroke-width="1.3" stroke-miterlimit="10" stroke-linecap="round" stroke-linejoin="round"/>
<path d="M30.373 18H34.4746" stroke="black" stroke-width="1.3" stroke-miterlimit="10" stroke-linecap="round" stroke-linejoin="round"/>
<path d="M1.52539 22.1016H5.62695" stroke="black" stroke-width="1.3" stroke-miterlimit="10" stroke-linecap="round" stroke-linejoin="round"/>
<path d="M30.373 22.1016H34.4746" stroke="black" stroke-width="1.3" stroke-miterlimit="10" stroke-linecap="round" stroke-linejoin="round"/>
<path d="M1.52539 26.2031H5.62695" stroke="black" stroke-width="1.3" stroke-miterlimit="10" stroke-linecap="round" stroke-linejoin="round"/>
<path d="M30.373 26.2031H34.4746" stroke="black" stroke-width="1.3" stroke-miterlimit="10" stroke-linecap="round" stroke-linejoin="round"/>
<path d="M1.52539 13.8984H5.62695" stroke="black" stroke-width="1.3" stroke-miterlimit="10" stroke-linecap="round" stroke-linejoin="round"/>
<path d="M30.373 13.8984H34.4746" stroke="black" stroke-width="1.3" stroke-miterlimit="10" stroke-linecap="round" stroke-linejoin="round"/>
<path d="M1.52539 9.79688H5.62695" stroke="black" stroke-width="1.3" stroke-miterlimit="10" stroke-linecap="round" stroke-linejoin="round"/>
<path d="M30.373 9.79688H34.4746" stroke="black" stroke-width="1.3" stroke-miterlimit="10" stroke-linecap="round" stroke-linejoin="round"/>
</g>
</g>
<defs>
<clipPath id="clip0_3636_726">
<rect width="35" height="35" fill="white" transform="translate(0.5 0.5)"/>
</clipPath>
</defs>
</svg>
