<svg width="36" height="26" viewBox="0 0 36 26" fill="none" xmlns="http://www.w3.org/2000/svg">
<path d="M1.18359 10.2544V18.491M1.18359 14.3728H3.92911M12.509 0.988233H20.7455M15.2545 0.988233V5.10661M18 0.988233V5.10661M27.9526 18.8343H30.6981V23.639C32.9725 23.639 34.8164 21.7951 34.8164 19.5207V11.284C34.8164 9.00952 32.9725 7.16566 30.6981 7.16566V11.9704H27.9526V10.5976C27.9526 9.46035 27.0307 8.53846 25.8934 8.53846H22.4615L21.0887 5.10661H11.4793L9.42022 7.85206H5.98823C4.85107 7.85206 3.92911 8.77395 3.92911 9.91125V20.207C3.92911 21.3442 4.85107 22.2661 5.98823 22.2661H9.42022L11.4793 25.0117H21.0887L22.4615 22.2661H25.8933C27.0306 22.2661 27.9525 21.3442 27.9525 20.207V18.8343H27.9526Z" stroke="black" stroke-width="1.3" stroke-miterlimit="10" stroke-linecap="round" stroke-linejoin="round"/>
<path d="M17.6568 7.85206L12.2344 16.0455L16.183 16.0386L15.1466 22.1659L21.0201 13.9795H17.6568V7.85206Z" fill="black"/>
</svg>
