<svg width="36" height="36" viewBox="0 0 36 36" fill="none" xmlns="http://www.w3.org/2000/svg">
<g clip-path="url(#clip0_3636_681)">
<path d="M31.3334 0.5C29.0367 0.5 27.1667 2.37 27.1667 4.66664C27.1667 6.67828 28.6001 8.36164 30.5001 8.74828V17.1666H18.8334V8.74836C20.7334 8.36172 22.1667 6.67836 22.1667 4.66672C22.1666 2.37 20.2966 0.5 18 0.5C15.7034 0.5 13.8334 2.37 13.8334 4.66664C13.8334 6.67828 15.2667 8.36164 17.1667 8.74828V17.1666H5.5V8.74836C7.4 8.36172 8.83336 6.67836 8.83336 4.66672C8.83336 2.37 6.96336 0.5 4.66664 0.5C2.36992 0.5 0.5 2.37 0.5 4.66664C0.5 6.67828 1.93336 8.36164 3.83336 8.74828V27.2516C1.93336 27.6384 0.5 29.3216 0.5 31.3334C0.5 33.63 2.37 35.5 4.66664 35.5C6.96328 35.5 8.83328 33.63 8.83328 31.3334C8.83328 29.3217 7.39992 27.6384 5.49992 27.2517V18.8334H17.1666V27.2517C15.2666 27.6384 13.8332 29.3217 13.8332 31.3334C13.8334 33.63 15.7034 35.5 18 35.5C20.2966 35.5 22.1666 33.63 22.1666 31.3334C22.1666 29.3217 20.7333 27.6384 18.8333 27.2517V18.8334H31.3333C31.7933 18.8334 32.1666 18.46 32.1666 18V8.74836C34.0666 8.36164 35.5 6.67836 35.5 4.66664C35.5 2.37 33.63 0.5 31.3334 0.5ZM7.16664 31.3334C7.16664 32.7117 6.045 33.8334 4.66664 33.8334C3.28828 33.8334 2.16664 32.7117 2.16664 31.3334C2.16664 29.955 3.28828 28.8334 4.66664 28.8334C6.045 28.8334 7.16664 29.955 7.16664 31.3334ZM4.66664 7.16664C3.28828 7.16664 2.16664 6.045 2.16664 4.66664C2.16664 3.28828 3.28828 2.16664 4.66664 2.16664C6.045 2.16664 7.16664 3.28828 7.16664 4.66664C7.16664 6.045 6.045 7.16664 4.66664 7.16664ZM20.5 31.3334C20.5 32.7117 19.3784 33.8334 18 33.8334C16.6216 33.8334 15.5 32.7117 15.5 31.3334C15.5 29.955 16.6216 28.8334 18 28.8334C19.3784 28.8334 20.5 29.955 20.5 31.3334ZM18 7.16664C16.6216 7.16664 15.5 6.045 15.5 4.66664C15.5 3.28828 16.6216 2.16664 18 2.16664C19.3784 2.16664 20.5 3.28828 20.5 4.66664C20.5 6.045 19.3784 7.16664 18 7.16664ZM31.3334 7.16664C29.955 7.16664 28.8334 6.045 28.8334 4.66664C28.8334 3.28828 29.955 2.16664 31.3334 2.16664C32.7117 2.16664 33.8334 3.28828 33.8334 4.66664C33.8334 6.045 32.7116 7.16664 31.3334 7.16664Z" fill="black"/>
</g>
<defs>
<clipPath id="clip0_3636_681">
<rect width="35" height="35" fill="white" transform="translate(0.5 0.5)"/>
</clipPath>
</defs>
</svg>
