<svg width="25" height="25" viewBox="0 0 25 25" fill="none" xmlns="http://www.w3.org/2000/svg">
<g clip-path="url(#clip0_3806_4543)">
<path d="M20.0289 8.67367C21.4962 7.85633 22.4077 6.30632 22.4077 4.62853C22.4077 1.97515 20.1905 -0.134047 17.5291 0.00692102C15.1541 0.132312 13.2446 2.06997 13.1547 4.44982C13.1305 5.09059 13.2376 5.71355 13.4575 6.28796C12.9778 6.2135 12.4916 6.17512 12.0046 6.17512C6.82402 6.17512 2.58268 10.3745 2.5923 15.6071C2.60226 20.8297 6.84887 25.0002 12.0046 25.0002C17.1947 25.0002 21.4172 20.7777 21.4172 15.5877C21.4172 13.4378 20.682 11.3508 19.3284 9.67587C19.3939 9.46078 19.5026 8.96693 20.0289 8.67367ZM3.32463 15.6049C3.31804 12.4172 5.10203 9.35732 8.09141 7.8411C8.12891 7.93763 8.12778 8.0933 8.00347 8.35365C7.71445 8.95922 7.86836 9.55927 8.0042 10.0887C8.15996 10.696 8.22686 11.0263 7.91684 11.3112C7.56958 11.6304 7.17206 11.6111 6.75131 11.5908C6.29657 11.5687 5.73016 11.5414 5.40711 12.0978C5.01043 12.781 5.54818 13.2369 5.86947 13.5093C6.05751 13.6687 6.25184 13.8335 6.25184 13.9735C6.25184 14.0551 5.92147 14.201 5.74403 14.2795C5.28221 14.4835 4.58426 14.7918 4.58426 15.5686C4.58426 15.8026 4.54754 16.0261 4.51512 16.2233C4.45188 16.6083 4.39212 16.972 4.63572 17.2647C4.87459 17.5516 5.28719 17.5959 5.61996 17.6024C5.82709 17.6065 6.05995 17.6002 6.30648 17.5935C7.78364 17.5537 9.02994 17.598 9.31231 18.5489C9.52735 19.2734 9.30675 19.6249 9.00137 20.1113C8.74932 20.5128 8.46358 20.9679 8.42754 21.6644C8.37925 22.5978 8.90787 23.3136 9.22427 23.8113C5.79779 22.6496 3.332 19.4068 3.32463 15.6049ZM20.2898 13.0023C19.5876 13.1741 19.3013 13.6359 19.2031 13.8529C19.0327 14.2297 19.0532 14.6516 19.2543 14.903C19.3544 15.0281 19.4855 15.4753 19.3903 15.9209C19.3235 16.2337 19.1655 16.4561 18.9207 16.582C18.1266 16.9904 17.9825 18.0197 17.8871 18.7008C17.859 18.9011 17.9986 19.0862 18.199 19.1143C18.399 19.1424 18.5844 19.0027 18.6125 18.8024C18.711 18.0992 18.8342 17.4501 19.2557 17.2334C19.699 17.0054 19.9932 16.6045 20.1066 16.0739C20.2289 15.5017 20.1101 14.8057 19.8305 14.4507C19.8144 14.4137 19.8022 14.2661 19.9005 14.0967C20.0107 13.9066 20.2114 13.7743 20.4789 13.7111C20.6147 14.3237 20.6849 14.9528 20.6849 15.5877C20.6849 20.3739 16.791 24.2678 12.0047 24.2678C11.3736 24.2678 10.7582 24.1995 10.1651 24.0709C9.97877 23.3773 9.10806 22.6874 9.15904 21.7021C9.18521 21.1958 9.39722 20.8581 9.62174 20.5006C9.95079 19.9764 10.3238 19.3823 10.0145 18.3404C9.54923 16.7732 7.58603 16.8262 6.28676 16.8613C6.04896 16.8677 5.8245 16.8736 5.63441 16.87C5.28016 16.8631 5.20233 16.799 5.20086 16.799C5.17249 16.7406 5.2119 16.5007 5.23797 16.3419C5.27313 16.1282 5.31678 15.8622 5.31678 15.5685C5.31678 15.2984 5.54842 15.1665 6.04008 14.9493C6.46078 14.7634 6.98437 14.5322 6.98437 13.9734C6.98437 13.494 6.6289 13.1926 6.3432 12.9505C5.9517 12.6186 5.97596 12.5769 6.04066 12.4654C6.12758 12.3156 6.26288 12.3003 6.71606 12.3222C7.19018 12.3452 7.83999 12.3767 8.4126 11.8503C9.05977 11.2555 8.86792 10.5076 8.71377 9.90664C8.59878 9.4582 8.49014 9.03461 8.6646 8.66903C8.9044 8.16673 8.87481 7.79749 8.7587 7.53768C9.76197 7.13162 10.8576 6.90745 12.0048 6.90745C12.6329 6.90745 13.2598 6.97522 13.8703 7.10892C14.039 7.37464 14.2352 7.62337 14.4567 7.85106C13.794 7.91981 13.4346 8.20463 13.2643 8.3955C13.0142 8.67592 12.9043 9.04267 12.9703 9.37651C12.9971 9.51201 12.977 9.64126 12.9136 9.74057L12.9102 9.74594C12.8239 9.88105 12.6741 9.96128 12.5219 9.95659C12.1312 9.94301 11.831 10.1003 11.6264 10.4228C11.3354 10.8813 11.3386 11.4224 11.6348 11.8011C11.8067 12.021 12.3339 12.4899 13.5138 12.0965C14.2661 11.8458 14.9101 12.0744 15.2148 12.4122C15.284 12.4889 15.4357 12.6875 15.3511 12.8744C15.1229 13.3788 14.1083 13.3016 13.4606 13.0857C12.8963 12.8975 11.8382 12.6609 11.0943 13.1898C10.6257 13.5229 10.383 14.0829 10.3729 14.8543C10.3463 16.8737 10.6495 17.9051 12.3805 17.9385C12.6171 17.9431 12.8348 17.9408 13.0454 17.9386C14.173 17.9274 14.4224 17.9702 14.4988 18.4537C14.5372 18.6974 14.5358 19.0485 14.5343 19.4203C14.5295 20.5719 14.5226 22.1739 15.9015 22.1739C16.4773 22.1739 17.2634 21.8631 18.0226 20.5566C18.1242 20.3817 18.0648 20.1576 17.89 20.056C17.7149 19.9544 17.4909 20.0137 17.3893 20.1886C17.0348 20.7986 16.4727 21.5105 15.805 21.4361C15.2997 21.38 15.2623 20.4913 15.2667 19.4233C15.2684 19.0212 15.2699 18.6414 15.2223 18.3395C15.1393 17.8137 14.8617 17.4697 14.3974 17.3171C14.0291 17.1961 13.5698 17.2008 13.0379 17.2062C12.8326 17.2084 12.6203 17.2105 12.3946 17.2062C11.4367 17.1878 11.0773 16.9811 11.1052 14.864C11.1121 14.3393 11.2512 13.9769 11.5187 13.7867C12.0308 13.4227 12.9573 13.6899 13.229 13.7805C14.282 14.1315 15.6041 14.0922 16.0184 13.1763C16.2008 12.7733 16.1037 12.3042 15.7587 11.9217C15.2943 11.4068 14.3485 11.0463 13.2822 11.4016C12.6799 11.6024 12.3343 11.5066 12.2118 11.35C12.1091 11.2186 12.122 11.0086 12.2448 10.8152C12.3091 10.7138 12.3678 10.6843 12.4971 10.6886C12.9104 10.7025 13.3027 10.4923 13.5276 10.14L13.531 10.1346C13.6964 9.87568 13.7524 9.55595 13.6889 9.23437C13.672 9.1495 13.6953 9.01264 13.8109 8.88305C13.9356 8.74315 14.2549 8.51737 14.9902 8.57758C15.142 8.58998 15.2777 8.59706 15.4019 8.59911C15.5541 8.69032 15.9927 8.89345 16.1728 9.48486L16.6637 11.0965C16.8168 11.5989 17.255 11.9232 17.7797 11.9232C18.3044 11.9232 18.7427 11.599 18.8957 11.0965L19.0654 10.5396C19.6026 11.2913 20.0142 12.1194 20.2898 13.0023ZM18.6858 9.27187C18.6048 9.53759 18.6479 9.39618 18.1949 10.8832C18.1079 11.1687 17.855 11.1909 17.7795 11.1909C17.7041 11.1909 17.4511 11.1687 17.3642 10.8832L16.8732 9.27157C16.711 8.739 16.3577 8.29774 15.8783 8.02919C14.6214 7.32479 13.8301 5.97444 13.8866 4.47746C13.9618 2.48579 15.5786 0.843401 17.5676 0.738371C19.8185 0.618839 21.6753 2.40415 21.6753 4.62853C21.6753 6.04084 20.9078 7.34564 19.6724 8.03382C19.199 8.29755 18.8486 8.73725 18.6858 9.27187Z" fill="black"/>
<path d="M18.7712 2.17116C18.5834 2.09538 18.3703 2.18611 18.2945 2.37356C18.2187 2.56106 18.3094 2.77448 18.4969 2.85027C19.2258 3.1447 19.6967 3.8426 19.6967 4.62824C19.6967 5.68537 18.8367 6.54543 17.7795 6.54543C16.7223 6.54543 15.8623 5.68537 15.8623 4.62824C15.8623 3.8426 16.3333 3.1447 17.0622 2.85027C17.2497 2.77453 17.3403 2.56111 17.2646 2.37356C17.1889 2.18606 16.9755 2.09543 16.7879 2.17116C15.7807 2.578 15.1299 3.54245 15.1299 4.62824C15.1299 6.08923 16.3185 7.27785 17.7795 7.27785C19.2405 7.27785 20.4292 6.08923 20.4292 4.62824C20.4292 3.54245 19.7784 2.578 18.7712 2.17116Z" fill="black"/>
</g>
<defs>
<clipPath id="clip0_3806_4543">
<rect width="25" height="25" fill="white"/>
</clipPath>
</defs>
</svg>
