<svg width="26" height="26" viewBox="0 0 26 26" fill="none" xmlns="http://www.w3.org/2000/svg">
<path d="M4.1301 2.93058C4.0594 2.85472 3.97415 2.79387 3.87943 2.75166C3.78471 2.70946 3.68246 2.68676 3.57878 2.68493C3.4751 2.68311 3.37211 2.70218 3.27596 2.74101C3.17981 2.77985 3.09246 2.83766 3.01914 2.91098C2.94581 2.98431 2.88801 3.07165 2.84917 3.1678C2.81033 3.26395 2.79126 3.36694 2.79309 3.47062C2.79492 3.57431 2.81761 3.67656 2.85982 3.77128C2.90202 3.866 2.96287 3.95125 3.03874 4.02194L7.98486 8.96909L4.00346 9.54669C2.86371 9.71245 2.4076 11.1137 3.23333 11.9178L7.16119 15.7468L6.23457 21.1532C6.03894 22.2888 7.2312 23.1547 8.25152 22.6183L13.106 20.0659L17.9615 22.6193C18.9808 23.1547 20.1731 22.2898 19.9795 21.1532L19.9383 20.9236L22.085 23.0692C22.2306 23.21 22.4256 23.2879 22.6281 23.2862C22.8305 23.2846 23.0242 23.2034 23.1675 23.0603C23.3107 22.9172 23.392 22.7236 23.3939 22.5211C23.3957 22.3187 23.318 22.1236 23.1774 21.9779L4.1301 2.93058ZM18.048 19.0322L18.4032 21.1058L13.7536 18.6616C13.5541 18.5566 13.332 18.5018 13.1065 18.5018C12.8811 18.5018 12.659 18.5566 12.4594 18.6616L7.80983 21.1058L8.69733 15.927C8.73529 15.7051 8.71877 15.4772 8.64919 15.2631C8.5796 15.0489 8.45903 14.8549 8.29785 14.6977L4.53575 11.0303L9.347 10.3312L18.048 19.0322ZM21.6773 11.0303L17.9996 14.6153L19.091 15.7067L22.9797 11.9178C23.8034 11.1137 23.3493 9.71245 22.2096 9.54669L16.7806 8.75803L14.3528 3.83971C13.8432 2.806 12.3699 2.806 11.8602 3.83971L10.3282 6.9439L11.4813 8.09703L13.106 4.80237L15.4318 9.51477C15.5316 9.71669 15.6789 9.89135 15.8611 10.0237C16.0434 10.1561 16.255 10.2422 16.4779 10.2746L21.6773 11.0303Z" fill="white"/>
</svg>
