<svg width="20" height="20" viewBox="0 0 20 20" fill="none" xmlns="http://www.w3.org/2000/svg">
<path d="M17.9822 5.64375C16.8548 4.74746 15.6066 4.05078 14.2722 3.57305C12.8989 3.08137 11.4615 2.83203 10 2.83203C8.53859 2.83203 7.10121 3.08137 5.72781 3.57309C4.39347 4.05082 3.14527 4.7475 2.01781 5.64379C1.83203 5.79148 1.80113 6.0618 1.94883 6.24754C2.09652 6.43336 2.36683 6.46414 2.55254 6.31652C4.71285 4.59914 7.28812 3.69141 10 3.69141C12.712 3.69141 15.2872 4.59914 17.4475 6.31648C17.5265 6.37934 17.6209 6.40984 17.7146 6.40984C17.8411 6.40984 17.9664 6.35422 18.0512 6.24754C18.1989 6.06176 18.168 5.79145 17.9822 5.64375Z" fill="#21E786"/>
<path d="M11.1641 11.714C11.5885 11.3727 11.8605 10.8493 11.8605 10.2636C11.8605 9.23772 11.0259 8.40308 9.99999 8.40308C8.97405 8.40308 8.13944 9.23772 8.13944 10.2636C8.13944 10.8492 8.41139 11.3725 8.83561 11.7138C8.07776 11.9987 7.44108 12.5592 7.06065 13.3123C6.95366 13.5241 7.03862 13.7826 7.25042 13.8896C7.31257 13.9209 7.37866 13.9358 7.44382 13.9358C7.60081 13.9358 7.7521 13.8495 7.82768 13.6998C8.24432 12.875 9.07675 12.3627 9.99995 12.3627C10.9194 12.3627 11.7502 12.872 12.1682 13.6918C12.2759 13.9032 12.5347 13.9872 12.7462 13.8794C12.9576 13.7717 13.0416 13.5129 12.9338 13.3015C12.5528 12.5541 11.9182 11.9976 11.1641 11.714ZM9.99999 9.26245C10.5521 9.26245 11.0012 9.71159 11.0012 10.2636C11.0012 10.8157 10.5521 11.2648 9.99999 11.2648C9.44792 11.2648 8.99882 10.8157 8.99882 10.2636C8.99882 9.71159 9.44792 9.26245 9.99999 9.26245Z" fill="#21E786"/>
<path d="M19.9475 10.6732C18.9581 8.85902 17.5343 7.33691 15.8301 6.27137C14.0707 5.17133 12.0546 4.58984 9.99998 4.58984C7.94533 4.58984 5.92928 5.17133 4.16986 6.27137C2.46568 7.33691 1.04189 8.85902 0.0524414 10.6732C-0.0174805 10.8014 -0.0174805 10.9564 0.0524414 11.0846C1.04189 12.8988 2.46568 14.4209 4.16986 15.4864C5.92928 16.5865 7.94529 17.168 9.99998 17.168C12.0547 17.168 14.0707 16.5865 15.8301 15.4864C17.5343 14.4209 18.9581 12.8988 19.9475 11.0846C20.0174 10.9564 20.0174 10.8014 19.9475 10.6732ZM9.99998 16.2891C7.01682 16.2891 4.58982 13.8621 4.58982 10.8789C4.58982 7.89574 7.01682 5.46879 9.99998 5.46879C12.9832 5.46879 15.4102 7.89574 15.4102 10.8789C15.4102 13.8621 12.9832 16.2891 9.99998 16.2891ZM0.921856 10.8789C2.02326 8.95527 3.62971 7.45266 5.49721 6.52059C4.40408 7.64957 3.73045 9.18707 3.73045 10.8789C3.73045 12.5708 4.40408 14.1082 5.49721 15.2373C3.62971 14.3052 2.02326 12.8025 0.921856 10.8789ZM14.5028 15.2372C15.5959 14.1082 16.2696 12.5708 16.2696 10.8789C16.2696 9.18707 15.5959 7.64961 14.5028 6.52059C16.3703 7.45266 17.9767 8.95527 19.0781 10.8789C17.9767 12.8025 16.3703 14.3051 14.5028 15.2372Z" fill="black"/>
<path d="M10 6.54297C7.60914 6.54297 5.66406 8.48805 5.66406 10.8789C5.66406 13.2698 7.60914 15.2148 10 15.2148C12.3909 15.2148 14.3359 13.2698 14.3359 10.8789C14.3359 8.48809 12.3909 6.54297 10 6.54297ZM10 14.3555C8.08301 14.3555 6.52344 12.7959 6.52344 10.8789C6.52344 8.96195 8.08301 7.40238 10 7.40238C11.917 7.40238 13.4766 8.96195 13.4766 10.8789C13.4766 12.7959 11.917 14.3555 10 14.3555Z" fill="black"/>
</svg>
