<svg width="36" height="36" viewBox="0 0 36 36" fill="none" xmlns="http://www.w3.org/2000/svg">
<g clip-path="url(#clip0_3636_799)">
<path d="M5.57137 26.2229H1.95361" stroke="black" stroke-width="1.3" stroke-miterlimit="10" stroke-linecap="round" stroke-linejoin="round"/>
<path d="M28.221 26.2229H24.6039" stroke="black" stroke-width="1.3" stroke-miterlimit="10" stroke-linecap="round" stroke-linejoin="round"/>
<path d="M11.0519 26.223H19.1232" stroke="black" stroke-width="1.3" stroke-miterlimit="10" stroke-linecap="round" stroke-linejoin="round"/>
<path d="M25.0447 22.1234L23.1217 16.9288" stroke="black" stroke-width="1.3" stroke-miterlimit="10" stroke-linecap="round" stroke-linejoin="round"/>
<path d="M5.13037 22.1234L7.46498 15.816H17.5911" stroke="black" stroke-width="1.3" stroke-miterlimit="10" stroke-linecap="round" stroke-linejoin="round"/>
<path d="M25.0446 22.1232H5.13036C3.47617 22.1232 2.09824 23.3914 1.96127 25.0399L1.52222 30.3228H28.6528L28.2137 25.0399C28.0768 23.3915 26.6987 22.1232 25.0446 22.1232Z" stroke="black" stroke-width="1.3" stroke-miterlimit="10" stroke-linecap="round" stroke-linejoin="round"/>
<path d="M21.7759 17.0452C26.0472 17.0452 29.5098 13.5826 29.5098 9.31126C29.5098 5.03994 26.0472 1.57735 21.7759 1.57735C17.5046 1.57735 14.042 5.03994 14.042 9.31126C14.042 13.5826 17.5046 17.0452 21.7759 17.0452Z" stroke="black" stroke-width="1.3" stroke-miterlimit="10" stroke-linecap="round" stroke-linejoin="round"/>
<path d="M34.4778 22.013L27.2444 14.7802V14.7795" stroke="black" stroke-width="1.3" stroke-miterlimit="10" stroke-linecap="round" stroke-linejoin="round"/>
<path d="M26.4429 30.3231V34.4226H21.7301V30.3231" stroke="black" stroke-width="1.3" stroke-miterlimit="10" stroke-linecap="round" stroke-linejoin="round"/>
<path d="M8.38482 30.3231V34.4226H3.672V30.3231" stroke="black" stroke-width="1.3" stroke-miterlimit="10" stroke-linecap="round" stroke-linejoin="round"/>
</g>
<defs>
<clipPath id="clip0_3636_799">
<rect width="35" height="35" fill="white" transform="translate(0.5 0.5)"/>
</clipPath>
</defs>
</svg>
